<svg width="120" height="120" xml:space="preserve" xmlns="http://www.w3.org/2000/svg"><g fill="none" stroke="green" stroke-width="7.515"><g style="stroke:#0c523d;stroke-width:3.75748;stroke-dasharray:none;stroke-opacity:1"><path d="M50 150q10-50 15-100 5 50 5 100m0 0Q80 90 85 40q5 50 5 110m0 0q10-40 15-90 5 50 5 90m0 0q10-70 15-120 5 50 5 120m0 0q10-50 15-100 5 50 5 100" style="stroke:#0c523d;stroke-width:3.75748;stroke-dasharray:none;stroke-opacity:1" transform="matrix(.49608 0 0 .14278 55.483 100.743)"/><path d="M70 150q15-30 22.5-65 7.5 35 7.5 65" style="stroke:#0c523d;stroke-width:3.75748;stroke-dasharray:none;stroke-opacity:1" transform="matrix(.49608 0 0 .14278 55.483 100.743)"/><path d="M90 150q15-20 22.5-55 7.5 35 7.5 55" style="stroke:#0c523d;stroke-width:3.75748;stroke-dasharray:none;stroke-opacity:1" transform="matrix(.49608 0 0 .14278 55.483 100.743)"/></g><g style="stroke:#0c523d;stroke-width:3.75748;stroke-dasharray:none;stroke-opacity:1"><path d="M50 150q10-50 15-100 5 50 5 100m0 0Q80 90 85 40q5 50 5 110m0 0q10-40 15-90 5 50 5 90m0 0q10-70 15-120 5 50 5 120m0 0q10-50 15-100 5 50 5 100" style="stroke:#0c523d;stroke-width:3.75748;stroke-dasharray:none;stroke-opacity:1" transform="matrix(.49608 0 0 .14278 15.797 100.743)"/><path d="M70 150q15-30 22.5-65 7.5 35 7.5 65" style="stroke:#0c523d;stroke-width:3.75748;stroke-dasharray:none;stroke-opacity:1" transform="matrix(.49608 0 0 .14278 15.797 100.743)"/><path d="M90 150q15-20 22.5-55 7.5 35 7.5 55" style="stroke:#0c523d;stroke-width:3.75748;stroke-dasharray:none;stroke-opacity:1" transform="matrix(.49608 0 0 .14278 15.797 100.743)"/></g><g style="stroke:#0c523d;stroke-width:3.75748;stroke-dasharray:none;stroke-opacity:1"><path d="M50 150q10-50 15-100 5 50 5 100m0 0Q80 90 85 40q5 50 5 110m0 0q10-40 15-90 5 50 5 90m0 0q10-70 15-120 5 50 5 120m0 0q10-50 15-100 5 50 5 100" style="stroke:#0c523d;stroke-width:3.75748;stroke-dasharray:none;stroke-opacity:1" transform="matrix(.49608 0 0 .14278 -23.89 100.743)"/><path d="M70 150q15-30 22.5-65 7.5 35 7.5 65" style="stroke:#0c523d;stroke-width:3.75748;stroke-dasharray:none;stroke-opacity:1" transform="matrix(.49608 0 0 .14278 -23.89 100.743)"/><path d="M90 150q15-20 22.5-55 7.5 35 7.5 55" style="stroke:#0c523d;stroke-width:3.75748;stroke-dasharray:none;stroke-opacity:1" transform="matrix(.49608 0 0 .14278 -23.89 100.743)"/></g></g><path stroke="#8b4513" stroke-width="16" style="stroke:#fff;stroke-width:6;stroke-dasharray:none;stroke-opacity:1" d="m2.726 94.952 16.492-16.491"/><circle cx="19.218" cy="77.193" fill="green" r="8.246" style="fill:#0c523d;fill-opacity:1;stroke-width:1"/><path stroke="#8b4513" stroke-width="60" style="fill:none;stroke:#fff;stroke-width:12;stroke-dasharray:none;stroke-opacity:1" d="M3.601 119.911v-73.61"/><g fill="green" transform="translate(.077 .089)"><circle cx="10.895" cy="45.72" r="14.191" style="fill:#0c523d;fill-opacity:1;stroke-width:1"/><circle cx="19.764" cy="36.851" r="10.643" style="fill:#0c523d;fill-opacity:1;stroke-width:1"/><circle cx="10.895" cy="19.112" r="14.191" style="fill:#0c523d;fill-opacity:1;stroke-width:1"/><circle cx="2.025" cy="10.243" r="10.643" style="fill:#0c523d;fill-opacity:1;stroke-width:1"/><circle cx="5.681" cy="31.529" r="8.246" style="fill:#0c523d;fill-opacity:1;stroke-width:1"/></g></svg>