<svg width="120" height="120" xml:space="preserve" xmlns="http://www.w3.org/2000/svg"><g fill="none" stroke="green" stroke-width="7.515" style="stroke:#0c523d;stroke-width:.659434;stroke-dasharray:none;stroke-opacity:1"><path d="M50 150q10-50 15-100 5 50 5 100m0 0Q80 90 85 40q5 50 5 110m0 0q10-40 15-90 5 50 5 90m0 0q10-70 15-120 5 50 5 120m0 0q10-50 15-100 5 50 5 100" style="stroke:#0c523d;stroke-width:2.84736;stroke-dasharray:none;stroke-opacity:1" transform="matrix(.42349 0 0 .0466 53.644 101.176)"/><path d="M70 150q15-30 22.5-65 7.5 35 7.5 65" style="stroke:#0c523d;stroke-width:2.84736;stroke-dasharray:none;stroke-opacity:1" transform="matrix(.42349 0 0 .0466 53.644 101.176)"/><path d="M90 150q15-20 22.5-55 7.5 35 7.5 55" style="stroke:#0c523d;stroke-width:2.84736;stroke-dasharray:none;stroke-opacity:1" transform="matrix(.42349 0 0 .0466 53.644 101.176)"/></g><g fill="none" stroke="green" stroke-width="7.515" style="stroke:#0c523d;stroke-width:2.59072;stroke-dasharray:none;stroke-opacity:1"><path d="M50 150q10-50 15-100 5 50 5 100m0 0Q80 90 85 40q5 50 5 110m0 0q10-40 15-90 5 50 5 90m0 0q10-70 15-120 5 50 5 120m0 0q10-50 15-100 5 50 5 100" style="stroke:#0c523d;stroke-width:2.59072;stroke-dasharray:none;stroke-opacity:1" transform="matrix(.49608 0 0 .10812 50.072 100.325)"/><path d="M70 150q15-30 22.5-65 7.5 35 7.5 65" style="stroke:#0c523d;stroke-width:2.59072;stroke-dasharray:none;stroke-opacity:1" transform="matrix(.49608 0 0 .10812 50.072 100.325)"/><path d="M90 150q15-20 22.5-55 7.5 35 7.5 55" style="stroke:#0c523d;stroke-width:2.59072;stroke-dasharray:none;stroke-opacity:1" transform="matrix(.49608 0 0 .10812 50.072 100.325)"/></g><g fill="none" stroke="green" stroke-width="7.515" style="stroke:#0c523d;stroke-width:2.59072;stroke-dasharray:none;stroke-opacity:1"><path d="M50 150q10-50 15-100 5 50 5 100m0 0Q80 90 85 40q5 50 5 110m0 0q10-40 15-90 5 50 5 90m0 0q10-70 15-120 5 50 5 120m0 0q10-50 15-100 5 50 5 100" style="stroke:#0c523d;stroke-width:2.59072;stroke-dasharray:none;stroke-opacity:1" transform="matrix(.49608 0 0 .10812 10.386 100.325)"/><path d="M70 150q15-30 22.5-65 7.5 35 7.5 65" style="stroke:#0c523d;stroke-width:2.59072;stroke-dasharray:none;stroke-opacity:1" transform="matrix(.49608 0 0 .10812 10.386 100.325)"/><path d="M90 150q15-20 22.5-55 7.5 35 7.5 55" style="stroke:#0c523d;stroke-width:2.59072;stroke-dasharray:none;stroke-opacity:1" transform="matrix(.49608 0 0 .10812 10.386 100.325)"/></g><g fill="none" stroke="green" stroke-width="7.515" style="stroke:#0c523d;stroke-width:2.59072;stroke-dasharray:none;stroke-opacity:1"><path d="M50 150q10-50 15-100 5 50 5 100m0 0Q80 90 85 40q5 50 5 110m0 0q10-40 15-90 5 50 5 90m0 0q10-70 15-120 5 50 5 120m0 0q10-50 15-100 5 50 5 100" style="stroke:#0c523d;stroke-width:2.59072;stroke-dasharray:none;stroke-opacity:1" transform="matrix(.49608 0 0 .10812 -29.3 100.325)"/><path d="M70 150q15-30 22.5-65 7.5 35 7.5 65" style="stroke:#0c523d;stroke-width:2.59072;stroke-dasharray:none;stroke-opacity:1" transform="matrix(.49608 0 0 .10812 -29.3 100.325)"/><path d="M90 150q15-20 22.5-55 7.5 35 7.5 55" style="stroke:#0c523d;stroke-width:2.59072;stroke-dasharray:none;stroke-opacity:1" transform="matrix(.49608 0 0 .10812 -29.3 100.325)"/></g><path style="fill:#fff;fill-opacity:1;stroke:#fff;stroke-width:0;stroke-linecap:round;stroke-linejoin:round;stroke-dasharray:none;stroke-opacity:1;paint-order:fill markers stroke" d="M108.26 1.115a10.231 10.238 0 0 0-6.444 9.485 10.231 10.238 0 0 0 10.232 10.239 10.231 10.238 0 0 0 6.756-2.558 12.743 12.561 0 0 1-11.498-12.473 12.743 12.561 0 0 1 .954-4.693z"/><path stroke="#8b4513" stroke-width="60" style="stroke-width:8;stroke-dasharray:none;stroke:#fff;stroke-opacity:1;fill:none" d="M117.237 119.913V65.46"/><path stroke="#8b4513" stroke-width="16" style="stroke-width:4;stroke-dasharray:none;stroke:#fff;stroke-opacity:1" d="m117.884 101.45-12.199-12.2"/><circle cx="-105.685" cy="88.312" fill="green" r="6.1" style="stroke-width:.999996;fill:#0c523d;fill-opacity:1" transform="scale(-1 1)"/><path style="fill:#fff;fill-opacity:1;stroke:#fff;stroke-width:0;stroke-linecap:round;stroke-linejoin:round;stroke-dasharray:none;stroke-opacity:1;paint-order:fill markers stroke" d="m24.146 3.91-.798-.25-.478.684-.183-.815-.832-.072.615-.566-.353-.756.797.25.479-.685.182.815.832.072-.615.566zm14.947 1.9-1.18-.473-.805.982-.182-1.257-1.253-.207.998-.786-.447-1.19 1.18.473.806-.982.181 1.257 1.253.207-.998.786Z"/><path style="fill:#fff;fill-opacity:1;stroke:#fff;stroke-width:0;stroke-linecap:round;stroke-linejoin:round;stroke-dasharray:none;stroke-opacity:1;paint-order:fill markers stroke" d="m52.005 6.32-1.917-.493-1.048 1.68-.533-1.907-1.978-.069 1.385-1.414-.93-1.747 1.917.492 1.048-1.68.533 1.907 1.978.069-1.385 1.414z" transform="translate(1.37 -1.975)"/><path style="fill:#fff;fill-opacity:1;stroke:#fff;stroke-width:0;stroke-linecap:round;stroke-linejoin:round;stroke-dasharray:none;stroke-opacity:1;paint-order:fill markers stroke" d="m42.142 11.13-2.864 2.044 1.083 3.348-3.202-1.458-2.357 2.61-.338-3.5-3.44-.737 2.863-2.043-1.083-3.348 3.202 1.458 2.358-2.611.338 3.502zM28.334 9.235l-1.806-.79-1.299 1.483-.218-1.96-1.934-.383 1.587-1.168-.634-1.867 1.806.79 1.298-1.482.219 1.959 1.933.384L27.7 7.369ZM15.96 5.81l-2.893-1.508-2.311 2.303-.142-3.26-3.15-.85L10.218.743l-.84-3.152 2.894 1.507 2.311-2.303.142 3.26 3.15.85-2.753 1.751Zm46.087-1.466-1.654-.607-1.08 1.393-.3-1.737-1.747-.238 1.354-1.128-.667-1.632 1.654.608 1.08-1.394.3 1.737 1.747.238-1.354 1.129Zm6.456 2.549-.746-.865-1.05.45.377-1.079-.914-.684 1.12-.215.136-1.134.746.865 1.05-.45-.376 1.08.914.684-1.122.213Z"/><path style="fill:#fff;fill-opacity:1;stroke:#fff;stroke-width:0;stroke-linecap:round;stroke-linejoin:round;stroke-dasharray:none;stroke-opacity:1;paint-order:fill markers stroke" d="m50.57 11.13-1.774-1.672-2.13 1.186.561-2.373-2.092-1.251 2.336-.7.038-2.439 1.774 1.673 2.13-1.186-.561 2.373 2.092 1.252-2.335.7z" transform="rotate(7.991 15.603 112.777) scale(.59593)"/><path style="fill:#fff;fill-opacity:1;stroke:#fff;stroke-width:0;stroke-linecap:round;stroke-linejoin:round;stroke-dasharray:none;stroke-opacity:1;paint-order:fill markers stroke" d="m27.044 11.542-1.66 2.327 1.717 2.286-2.846-.274-1.12 2.63-1.186-2.601-2.839.344 1.66-2.328-1.717-2.286 2.846.274 1.121-2.63 1.186 2.602zm35.69 2.356-1.55.683.183 1.684-1.367-1-1.367 1 .183-1.684-1.55-.683 1.55-.684-.183-1.684L60 12.531l1.367-1-.183 1.683zm-13.24 2.367-.85-1.228-1.427.439.639-1.35-1.094-1.018 1.489-.122.334-1.456.85 1.229 1.427-.439-.639 1.35 1.094 1.018-1.489.121zM77.29 11.53l-1.519-.415-.855 1.322-.4-1.523-1.573-.08 1.12-1.107-.718-1.402 1.519.416.855-1.323.4 1.523 1.573.08-1.12 1.108zm5.56-4.637-1.865-.372-.918 1.665-.61-1.8-1.9.037 1.254-1.428-.983-1.628 1.864.372.918-1.664.61 1.8 1.9-.038-1.253 1.429Z"/><path style="fill:#fff;fill-opacity:1;stroke:#fff;stroke-width:0;stroke-linecap:round;stroke-linejoin:round;stroke-dasharray:none;stroke-opacity:1;paint-order:fill markers stroke" d="m67.965 13.898-.365-.828-.9.098.535-.73-.535-.73.9.097.365-.828.365.828.9-.098-.535.73.535.73-.9-.097z" transform="translate(-3.596 -2.936)"/><path style="fill:#fff;fill-opacity:1;stroke:#fff;stroke-width:0;stroke-linecap:round;stroke-linejoin:round;stroke-dasharray:none;stroke-opacity:1;paint-order:fill markers stroke" d="m59.178 8.186-1.254.092-.29 1.224-.708-1.04-1.204.36.546-1.132-.914-.864 1.254-.092.29-1.224.708 1.04 1.205-.36-.547 1.132zm34.61-.768-.775-1.207-1.386.374.659-1.276-1.017-1.012 1.433-.068.369-1.387.775 1.208 1.386-.374-.658 1.275 1.016 1.013-1.433.067zm-3.407 5.019-1.89-.155-.72 1.755-.81-1.715-1.88.254 1.08-1.56-1.16-1.5 1.89.156.72-1.755.81 1.715 1.88-.254-1.08 1.559zm-10.939 1.6-.758.969.695 1.015-1.219-.172-.532 1.11-.46-1.142-1.227.094.758-.969-.694-1.015 1.218.172.532-1.11.46 1.141z"/><path style="fill:#fff;fill-opacity:1;stroke:#fff;stroke-width:0;stroke-linecap:round;stroke-linejoin:round;stroke-dasharray:none;stroke-opacity:1;paint-order:fill markers stroke" d="m95.59 14.037-.615.27.073.67-.542-.398-.543.397.073-.668-.615-.271.615-.272-.073-.668.543.397.542-.397-.073.668z" transform="translate(-.522 -3.227)"/><path style="fill:#fff;fill-opacity:1;stroke:#fff;stroke-width:0;stroke-linecap:round;stroke-linejoin:round;stroke-dasharray:none;stroke-opacity:1;paint-order:fill markers stroke" d="m113.097 24.658-1.374-.123-.532 1.272-.581-1.25-1.369.175.794-1.13-.836-1.096 1.374.122.532-1.272.58 1.251 1.37-.175-.794 1.128z" transform="translate(-13.608 -6.382)"/><path style="fill:#fff;fill-opacity:1;stroke:#fff;stroke-width:0;stroke-linecap:round;stroke-linejoin:round;stroke-dasharray:none;stroke-opacity:1;paint-order:fill markers stroke" d="m118.346 25.807-1.24-.232-.596 1.111-.418-1.19-1.26.04.82-.957-.664-1.071 1.24.232.596-1.111.418 1.19 1.26-.04-.82.957z" transform="translate(-62.612 -7.267)"/><path style="fill:#fff;fill-opacity:1;stroke:#fff;stroke-width:0;stroke-linecap:round;stroke-linejoin:round;stroke-dasharray:none;stroke-opacity:1;paint-order:fill markers stroke" d="m31.024.487-.682 1.122.863.99-1.312-.03-.425 1.242-.63-1.152-1.289.253.682-1.122-.863-.989 1.312.03.425-1.242.63 1.152zM72.943-.39l-.07 1.7 1.6.582-1.51.789.297 1.676-1.438-.912L70.52 4.54l.07-1.701-1.6-.582 1.51-.789-.297-1.676 1.438.912Z"/><path style="fill:#fff;fill-opacity:1;stroke:#fff;stroke-width:0;stroke-linecap:round;stroke-linejoin:round;stroke-dasharray:none;stroke-opacity:1;paint-order:fill markers stroke" d="m87.691-.39-.299 1.8 1.627.83-1.71.642.096 1.823-1.41-1.16-1.532.995.3-1.801-1.628-.83 1.71-.641-.096-1.824 1.41 1.16z" transform="translate(1.118)"/><path style="fill:#fff;fill-opacity:1;stroke:#fff;stroke-width:0;stroke-linecap:round;stroke-linejoin:round;stroke-dasharray:none;stroke-opacity:1;paint-order:fill markers stroke" d="m123.228 5.944-2.034.346-.285 2.043-1.316-1.589-1.912.775.718-1.934-1.627-1.269 2.034-.345.285-2.043 1.316 1.588 1.912-.774-.718 1.934z" transform="translate(-.537 -4.015)"/><path style="fill:#fff;fill-opacity:1;stroke:#fff;stroke-width:0;stroke-linecap:round;stroke-linejoin:round;stroke-dasharray:none;stroke-opacity:1;paint-order:fill markers stroke" d="M99.585 1.011 96.927.122l-1.65 2.265-.56-2.746-2.787-.298 2.1-1.857-1.137-2.562 2.658.89 1.651-2.266.559 2.747 2.787.297-2.1 1.857z" transform="translate(1.644 1.477)"/><path style="fill:#fff;fill-opacity:1;stroke:#fff;stroke-width:0;stroke-linecap:round;stroke-linejoin:round;stroke-dasharray:none;stroke-opacity:1;paint-order:fill markers stroke" d="m87.195 18.511-1.114-.075-.409 1.04-.491-1.003-1.104.166.622-.927-.696-.874 1.114.076.409-1.04.491 1.003 1.104-.166-.622.927z" transform="translate(-.18 -.475)"/><path style="fill:#fff;fill-opacity:1;stroke:#fff;stroke-width:0;stroke-linecap:round;stroke-linejoin:round;stroke-dasharray:none;stroke-opacity:1;paint-order:fill markers stroke" d="m51.885 9.502-.65-.604-.773.438.197-.866-.765-.45.848-.262.007-.888.651.604.773-.438-.198.866.766.45-.849.262z"/><path style="fill:#fff;fill-opacity:1;stroke:#fff;stroke-width:0;stroke-linecap:round;stroke-linejoin:round;stroke-dasharray:none;stroke-opacity:1;paint-order:fill markers stroke" d="m43.636 0-2.549-1.047-1.767 2.114-.368-2.73-2.715-.475 2.181-1.684-.946-2.588 2.549 1.047 1.768-2.114.368 2.73 2.714.475-2.181 1.684z" transform="translate(1.588 1.173)"/><path style="fill:#fff;fill-opacity:1;stroke:#fff;stroke-width:0;stroke-linecap:round;stroke-linejoin:round;stroke-dasharray:none;stroke-opacity:1;paint-order:fill markers stroke" d="m69.23 16.958-2.006.151-.463 1.958-1.133-1.662-1.927.578.872-1.812-1.464-1.38 2.006-.15.463-1.958 1.133 1.662 1.927-.579-.872 1.813z" transform="translate(2.749 -.9)"/><path style="fill:#fff;fill-opacity:1;stroke:#fff;stroke-width:0;stroke-linecap:round;stroke-linejoin:round;stroke-dasharray:none;stroke-opacity:1;paint-order:fill markers stroke" d="m98.964 20.312-1.365-.618-1 1.115-.149-1.49-1.466-.31 1.217-.874-.465-1.424 1.365.617 1.001-1.114.148 1.49 1.466.31-1.217.873z" transform="translate(-4.653 -2.637)"/><path style="fill:#fff;fill-opacity:1;stroke:#fff;stroke-width:0;stroke-linecap:round;stroke-linejoin:round;stroke-dasharray:none;stroke-opacity:1;paint-order:fill markers stroke" d="m43.768 14.974-.883-.337-.22.725-.15-.934-.737.173.733-.597-.518-.553.884.337.22-.725.15.934.737-.172-.733.597zm-13.758-.381-1.039-.235-.229 1.04-.316-1.017-1.015.322.723-.782-.787-.718 1.04.234.228-1.04.316 1.017 1.015-.322-.722.783zM20.183 6.32l-.917-.336-.33.92-.169-.962-.96.174.748-.627-.631-.745.917.334.33-.919.168.962.961-.174-.748.627Zm13.251-.51-.876.028.033.875-.463-.744-.742.467.414-.773-.775-.41.876-.028-.034-.876.463.745.742-.467-.413.773Z"/><path style="fill:#fff;fill-opacity:1;stroke:#fff;stroke-width:0;stroke-linecap:round;stroke-linejoin:round;stroke-dasharray:none;stroke-opacity:1;paint-order:fill markers stroke" d="m95.59 14.037-.615.27.073.67-.542-.398-.543.397.073-.668-.615-.271.615-.272-.073-.668.543.397.542-.397-.073.668z" transform="translate(20.448 10.526)"/><path style="fill:#fff;fill-opacity:1;stroke:#fff;stroke-width:0;stroke-linecap:round;stroke-linejoin:round;stroke-dasharray:none;stroke-opacity:1;paint-order:fill markers stroke" d="m33.434 5.81-.876.028.033.875-.463-.744-.742.467.414-.773-.775-.41.876-.028-.034-.876.463.745.742-.467-.413.773Z" transform="translate(75.048 17.278)"/><path style="fill:#fff;fill-opacity:1;stroke:#fff;stroke-width:0;stroke-linecap:round;stroke-linejoin:round;stroke-dasharray:none;stroke-opacity:1;paint-order:fill markers stroke" d="m59.178 8.186-1.254.092-.29 1.224-.708-1.04-1.204.36.546-1.132-.914-.864 1.254-.092.29-1.224.708 1.04 1.205-.36-.547 1.132z" transform="translate(62.507 14.121)"/><g fill="green" transform="scale(-1 1)"><circle cx="-111.785" cy="65.753" r="10.498" style="fill:#0c523d;fill-opacity:1;stroke-width:.999996"/><circle cx="-105" cy="56.016" r="7.873" style="fill:#0c523d;fill-opacity:1;stroke-width:.999996"/><circle cx="-111.785" cy="46.07" r="10.498" style="fill:#0c523d;fill-opacity:1;stroke-width:.999996"/><circle cx="-118.346" cy="39.508" r="7.873" style="fill:#0c523d;fill-opacity:1;stroke-width:.999996"/><circle cx="-119.299" cy="55.255" r="6.1" style="fill:#0c523d;fill-opacity:1;stroke-width:.999996"/></g><g fill="none" stroke="green" stroke-width="7.515" style="stroke:#0c523d;stroke-width:.659434;stroke-dasharray:none;stroke-opacity:1"><path d="M50 150q10-50 15-100 5 50 5 100m0 0Q80 90 85 40q5 50 5 110m0 0q10-40 15-90 5 50 5 90m0 0q10-70 15-120 5 50 5 120m0 0q10-50 15-100 5 50 5 100" style="stroke:#0c523d;stroke-width:2.84736;stroke-dasharray:none;stroke-opacity:1" transform="matrix(.42349 0 0 .0466 19.765 101.176)"/><path d="M70 150q15-30 22.5-65 7.5 35 7.5 65" style="stroke:#0c523d;stroke-width:2.84736;stroke-dasharray:none;stroke-opacity:1" transform="matrix(.42349 0 0 .0466 19.765 101.176)"/><path d="M90 150q15-20 22.5-55 7.5 35 7.5 55" style="stroke:#0c523d;stroke-width:2.84736;stroke-dasharray:none;stroke-opacity:1" transform="matrix(.42349 0 0 .0466 19.765 101.176)"/></g><g fill="none" stroke="green" stroke-width="7.515" style="stroke:#0c523d;stroke-width:.659434;stroke-dasharray:none;stroke-opacity:1"><path d="M50 150q10-50 15-100 5 50 5 100m0 0Q80 90 85 40q5 50 5 110m0 0q10-40 15-90 5 50 5 90m0 0q10-70 15-120 5 50 5 120m0 0q10-50 15-100 5 50 5 100" style="stroke:#0c523d;stroke-width:2.84736;stroke-dasharray:none;stroke-opacity:1" transform="matrix(.42349 0 0 .0466 -14.114 101.176)"/><path d="M70 150q15-30 22.5-65 7.5 35 7.5 65" style="stroke:#0c523d;stroke-width:2.84736;stroke-dasharray:none;stroke-opacity:1" transform="matrix(.42349 0 0 .0466 -14.114 101.176)"/><path d="M90 150q15-20 22.5-55 7.5 35 7.5 55" style="stroke:#0c523d;stroke-width:2.84736;stroke-dasharray:none;stroke-opacity:1" transform="matrix(.42349 0 0 .0466 -14.114 101.176)"/></g></svg>