<?xml version="1.0" encoding="UTF-8" standalone="no"?>
<!-- Created with Inkscape (http://www.inkscape.org/) -->

<svg
   width="259.77579"
   height="62.880005"
   viewBox="0 0 259.77579 62.880005"
   version="1.1"
   id="svg1"
   sodipodi:docname="logo.svg"
   inkscape:version="1.3.2 (091e20ef0f, 2023-11-25, custom)"
   xmlns:inkscape="http://www.inkscape.org/namespaces/inkscape"
   xmlns:sodipodi="http://sodipodi.sourceforge.net/DTD/sodipodi-0.dtd"
   xmlns="http://www.w3.org/2000/svg"
   xmlns:svg="http://www.w3.org/2000/svg">
  <sodipodi:namedview
     id="namedview1"
     pagecolor="#505050"
     bordercolor="#ffffff"
     borderopacity="1"
     inkscape:showpageshadow="0"
     inkscape:pageopacity="0"
     inkscape:pagecheckerboard="1"
     inkscape:deskcolor="#d1d1d1"
     inkscape:zoom="2.3520283"
     inkscape:cx="129.88789"
     inkscape:cy="31.249624"
     inkscape:window-width="1920"
     inkscape:window-height="1001"
     inkscape:window-x="0"
     inkscape:window-y="0"
     inkscape:window-maximized="1"
     inkscape:current-layer="svg1" />
  <defs
     id="defs1" />
  <g
     id="layer1"
     transform="translate(-178.34187,-268.83585)"
     style="fill:#2c4a60;fill-opacity:1">
    <path
       style="font-size:96px;line-height:1.25;font-family:'DK Crayon Crumble';-inkscape-font-specification:'DK Crayon Crumble';fill:#2c4a60;fill-opacity:1"
       d="m 238.05388,308.67586 q 0,0.384 -0.288,0.384 l 0.288,-0.48 q -0.192,-0.192 -0.288,-0.192 -0.288,0 -0.288,0.288 0,0.384 0.288,0.384 l -0.96,2.304 v -1.152 l -0.672,1.536 h -0.384 q -0.192,0.096 -0.384,0.288 -0.192,0.096 -0.384,0.096 0,0.096 0,0.384 0.096,0.288 0.096,0.576 0,0.48 -0.672,0.48 -0.576,-0.096 -0.576,0.192 0,0.096 0.192,0.384 0.192,0.192 0.192,0.288 h 0.096 q 0.096,0 0.288,-0.096 0.288,-0.192 0.384,-0.288 l -1.152,2.304 v 0.768 q 0,0.192 -0.192,0.864 -0.096,0.576 -0.192,0.768 v 0.384 l -0.288,0.48 q -0.096,0.192 -0.48,0.576 l -0.288,0.384 v 1.056 q 0,0.096 0.096,0.288 0.192,0.192 0.192,0.288 -0.192,0.096 -0.672,0.288 -0.384,0.192 -0.384,0.384 h 0.768 v 0.384 q 0,0.096 -0.192,0.384 -0.096,0.288 -0.192,0.384 l -0.384,-0.288 q -0.288,0.192 -0.576,0.864 -0.288,0.672 -0.288,0.768 0,0.192 0,0.384 0.096,0.096 0.096,0.192 -0.096,0.096 -0.48,0.384 -0.288,0.288 -0.384,0.288 v 0.48 q 0,0.096 -0.096,0.384 0,0.288 -0.096,0.384 h -0.48 q -0.288,0 -1.248,0.384 -0.864,0.288 -1.056,0.48 v -1.152 q -0.192,0.864 -0.864,1.632 -0.672,0.672 -1.152,0.672 0,-0.48 -0.192,-0.672 -0.096,-0.192 -0.384,-0.384 -0.192,-0.192 -0.384,-0.48 -0.096,-0.288 -0.096,-0.864 -0.288,1.056 -0.96,1.824 -0.576,0.768 -1.248,1.152 0,-0.48 -0.48,-0.768 -0.384,-0.288 -0.672,-0.288 l 0.384,-0.384 q 0.288,-0.288 0.48,-0.288 v -0.576 q -0.48,-0.48 -0.48,-0.96 0.096,-0.576 -0.384,-0.576 -0.096,0 -0.384,0.192 -0.192,0.096 -0.288,0.288 v -0.48 q 0,-0.384 0.288,-0.672 -0.096,0 -0.384,0.192 -0.288,0.192 -0.384,0.192 h -0.384 q 0.672,-0.192 0.864,-0.864 0,-0.096 -0.192,-0.672 -0.192,-0.672 -0.288,-0.768 v -0.288 l -0.192,-0.192 -0.192,-0.288 q 0.384,-0.384 0.384,-0.48 l -0.096,-0.288 h -0.96 q 0.096,-0.096 0.192,-0.384 0.192,-0.288 0.192,-0.48 -0.192,-0.096 -0.288,0 l -0.096,-0.192 q 0,-0.192 0.096,-0.768 0.192,-0.576 0.288,-0.768 h -1.44 v -0.288 q 0,-0.192 -0.096,-0.192 l -0.384,-0.288 q -0.096,0 -0.096,-0.192 v -0.192 h 0.864 q 0,-0.384 -0.576,-0.96 -0.48,-0.672 -0.672,-0.672 -0.48,0 -0.576,0.384 v -1.824 h 0.576 q 0,-0.48 -0.384,-0.48 -0.384,-0.096 -0.672,-0.384 v -0.768 l 0.864,-0.96 -0.192,-0.192 -0.672,0.384 0.48,-0.768 q -0.192,-0.192 -0.192,-0.384 h -0.288 l -0.384,-0.384 q 0.192,0 0.576,-0.288 0.48,-0.288 0.48,-0.48 -0.288,-0.288 -0.288,-0.576 0,-0.192 0.096,-0.384 0.096,-0.288 0.096,-0.384 -0.192,0 -0.672,0.096 -0.48,0.096 -0.672,0.096 l -1.152,-0.768 0.768,-0.384 -0.768,-0.288 q 0,-0.096 0.096,-0.288 0.096,-0.192 0.288,-0.192 h 0.384 q 0.192,0 0.288,-0.384 0.192,-0.384 0.48,-0.672 v -0.48 q -0.576,0.288 -0.96,0.864 -0.384,0.48 -1.536,0.48 0,-1.056 0.672,-1.248 0.768,-0.192 0.768,-0.672 l -0.096,-0.096 -0.48,0.288 q -0.192,0.096 -0.576,0.096 -0.192,0 -0.192,-0.192 0,-0.192 -0.288,-0.672 v -0.288 q 0.096,-0.096 0.288,-0.192 0.288,-0.192 0.48,-0.192 l -0.288,-0.192 -0.48,-0.288 v -0.288 l 0.768,-0.48 q 0,-0.096 -0.096,-0.192 0,-0.192 0,-0.288 h -1.632 q 0,-0.192 0.384,-0.672 0.48,-0.576 0.96,-1.056 0,-0.192 -0.384,-0.288 -0.288,-0.096 -0.384,-0.096 -0.096,0 -0.384,0.288 -0.288,0.288 -0.288,0.48 -0.096,-0.096 -0.192,-0.672 -0.096,-0.576 -0.288,-1.248 -0.192,-0.672 -0.48,-1.152 -0.288,-0.576 -0.672,-0.576 -0.192,0 -0.576,0.096 -0.384,0.096 -0.864,0.384 -0.48,0.192 -0.864,0.672 -0.288,0.48 -0.288,1.248 v 0.864 q -0.384,0.96 -0.864,2.112 -0.48,1.152 -0.672,2.016 v 0.48 q 0,0.096 -0.192,0.384 -0.192,0.192 -0.192,0.288 v 0.864 q -0.096,0.576 -0.672,1.152 v 0.288 q 0,0.192 -0.192,0.768 -0.192,0.576 -0.192,0.768 -0.768,1.92 -1.248,2.976 -0.384,0.96 -0.384,1.44 v 0.288 q 0,0.096 0.096,0.192 -0.192,0.672 -0.48,1.248 -0.288,0.48 -0.288,0.672 0,0.192 0,0.48 0.096,0.288 0.096,0.48 h 0.672 l -0.384,0.192 q -0.48,0.288 -1.056,0.576 -0.576,0.288 -0.576,0.48 0,0.192 0,0.384 0.096,0.192 0.096,0.288 -0.384,0.288 -0.672,1.152 -0.288,0.864 -0.576,1.92 -0.192,0.96 -0.48,1.824 -0.192,0.864 -0.48,1.152 h -0.672 q 0,0.096 -0.096,0.48 -0.096,0.288 -0.096,0.576 0,0.096 0.192,0.192 0.192,0.096 0.192,0.288 0,0.192 -0.384,0.768 -0.384,0.48 -0.864,0.672 v 0.48 l 0.864,-0.48 -1.152,1.248 h -0.288 q -0.192,0 -0.48,0.096 -0.192,0.096 -0.384,0.192 0,-0.096 0,-0.288 0.096,-0.096 0.096,-0.288 0,-0.288 -0.192,-0.576 -0.192,-0.384 -0.672,-0.384 l -0.576,0.384 -0.576,0.48 -0.288,0.384 -0.192,0.288 q -0.192,0 -0.288,-0.768 -0.096,-0.768 -0.384,-0.96 h 0.96 q 0,-0.288 -0.096,-0.864 -0.096,-0.576 -0.096,-0.768 0,-0.288 0.192,-0.864 l -0.48,0.384 -0.576,0.96 q 0,-0.192 -0.096,-0.768 -0.096,-0.672 -0.096,-0.864 l -0.384,-0.48 0.096,-0.288 q 0,0.288 0.288,0.288 0.192,0 0.192,-0.288 0,-0.48 -0.192,-0.48 l -0.192,0.096 0.192,-0.384 q 0,-0.192 -0.192,-0.384 -0.192,-0.192 -0.192,-0.288 h 0.672 v -0.384 q 0,-0.096 -0.192,-0.192 -0.096,-0.096 -0.096,-0.288 l -0.288,0.096 q -0.384,0 -0.384,-0.384 0,-0.48 -0.384,-0.48 -0.192,0 -0.288,0.096 -0.096,0 -0.192,0 l 0.384,-0.768 -0.288,-0.192 -0.48,-0.288 v -0.384 q 0,-0.096 -0.192,-0.576 -0.192,-0.48 -0.192,-0.576 l -0.096,-0.768 -0.288,-0.384 q 0,-0.096 0,-0.48 0.096,-0.384 0.096,-0.48 -0.192,0.192 -0.48,0.192 -0.096,0 -0.288,-0.576 -0.096,-0.288 -0.096,-0.576 v -1.248 q 0,-0.48 0.576,-0.672 0.576,-0.288 0.576,-0.48 l -0.096,-0.48 q -0.192,0 -0.384,0.096 -0.096,0.096 -0.288,0.096 l -0.576,-0.576 q -0.48,-0.48 -0.48,-0.672 0,-0.096 0.096,-0.192 0.096,-0.192 0.096,-0.288 -0.192,0 -0.384,0.096 -0.096,0.096 -0.192,0.096 -0.192,-0.096 -0.576,-0.864 -0.288,-0.768 -0.288,-1.056 v -1.536 q 0,-0.096 0.192,-0.48 0.192,-0.48 0.288,-0.672 h -1.152 q 0,-1.152 0.864,-1.44 -0.192,0 -0.192,-0.384 0,-0.192 0.096,-0.384 0.096,-0.192 0.096,-0.288 -0.096,0 -0.288,0 -0.096,-0.096 -0.192,-0.096 -0.192,0 -0.48,0.48 -0.288,0.48 -0.288,0.672 -0.096,-0.288 -0.192,-1.152 -0.096,-0.96 -0.096,-1.152 0,-0.096 0.096,-0.384 0.096,-0.384 0.192,-0.48 h -0.864 q 0,-0.48 0.288,-0.96 0.288,-0.576 0.288,-0.864 0,-0.192 -0.192,-0.576 -0.192,-0.48 -0.192,-0.576 h -0.48 q -0.192,-0.192 -0.48,-0.576 -0.192,-0.48 -0.192,-1.056 v -0.768 q 0,-0.288 0.096,-0.384 l 0.192,-0.384 v -1.536 q -0.096,-0.096 -0.576,-0.096 -0.48,-0.096 -0.672,-0.192 v -0.48 q 0.096,-0.096 0.288,-0.096 0.192,-0.096 0.192,-0.192 0,-0.192 -0.096,-0.672 -0.096,-0.48 -0.288,-0.48 -0.192,0 -0.192,0.096 0,-0.192 -0.192,-0.48 -0.096,-0.384 -0.288,-0.384 v -2.688 l 0.384,-0.288 q -0.96,-0.288 -1.056,-1.344 -0.096,-1.056 -0.576,-1.824 0.48,0 0.48,-0.384 0,-0.096 -0.288,-0.768 -0.192,-0.672 -0.192,-0.768 v -1.152 q 0,-0.48 -0.384,-0.672 -0.384,-0.288 -0.384,-0.48 0,-0.096 0.192,-0.576 0.192,-0.48 0.192,-0.576 0,-0.288 -0.48,-0.864 -0.384,-0.576 -0.576,-1.056 l 0.384,-0.384 v -0.288 q 0,-0.384 -0.192,-1.248 -0.192,-0.864 -0.192,-1.056 l -0.768,-0.48 q -0.096,0 -0.096,-0.192 l -0.096,-0.096 h 1.056 q 0,-0.192 -0.096,-0.576 0,-0.384 0,-0.576 0,-0.192 0.288,-0.288 0.288,-0.192 0.576,-0.192 0.096,0 1.152,1.056 1.056,0.96 1.056,3.168 v 1.152 l 0.192,0.768 q 0.288,0.288 0.96,0.288 l -0.48,0.48 0.768,3.84 q 0.096,0.768 0.384,1.728 0.384,0.864 0.768,1.728 0.384,0.864 0.672,1.536 0.288,0.672 0.48,0.768 0,0.096 -0.192,0.576 -0.192,0.48 -0.192,0.576 0,0.096 0.192,1.248 0.288,1.056 0.96,2.112 h 0.096 q 0.192,0 0.288,0.768 0.096,0.768 0.288,2.016 0.192,1.152 0.48,2.592 0.384,1.44 1.056,2.784 0.192,0.192 0.48,0.288 0.288,0 0.288,0.192 v 0.288 q 0.48,0 0.48,0.672 h -0.384 q 0,0.096 -0.096,0.288 0,0.096 0,0.192 0.096,0.192 0.192,0.768 0.192,0.576 0.192,0.768 v 0.096 q 0,0.192 -0.096,0.576 0,0.288 0,0.384 l 0.48,0.096 q 0.192,0 0.384,-0.096 0.288,-0.192 0.384,-0.288 v 0.672 q -0.096,0 -0.288,0.192 l -0.192,0.192 v 0.768 l 0.48,1.152 0.384,0.384 q 0,0.096 -0.096,0.288 0,0.192 0,0.384 0,0.768 0.768,2.112 0.768,1.248 0.768,2.112 v 0.576 q 0.48,0.48 0.768,1.344 0.384,0.864 0.384,1.248 v 0.48 q 0.384,0 0.48,0.768 0.096,0.672 0.288,1.056 l -0.096,0.288 q 0,0.096 0.384,0.384 0.384,0.288 0.576,0.384 l 0.096,-0.192 0.192,-0.576 0.288,-0.672 q 0.192,0 0.384,0.192 0.192,0.096 0.288,0.096 0,-0.096 0.096,-0.384 0.096,-0.384 0.096,-0.576 l -0.192,-0.192 q -0.096,-0.096 -0.096,-0.192 -0.192,0 -0.48,0.096 -0.192,0.096 -0.384,0.192 l 0.192,-0.384 q 0,-0.192 0.096,-0.288 l 1.248,-3.072 q 0.192,-0.48 0.48,-1.056 0.288,-0.672 0.288,-0.576 0,-0.096 -0.192,-0.384 -0.096,-0.288 -0.096,-0.384 0,-0.192 0.288,-0.96 0.288,-0.864 0.576,-1.344 l 0.192,-0.384 q 0.192,0.192 0.384,0.192 0,-0.192 -0.096,-0.864 0,-0.672 0,-0.864 0.48,-1.536 0.768,-2.208 0.288,-0.768 0.96,-1.152 h -0.864 q 0.192,-0.192 0.384,-0.576 0.192,-0.384 0.48,-0.576 0,-0.096 -0.096,-0.192 0,-0.096 0,-0.288 l 0.192,-0.768 q 0.096,-0.576 0.576,-1.056 v -0.48 l -0.672,0.864 q -0.192,-0.192 -0.192,-0.288 v -0.288 q 0,-0.576 0.576,-0.768 0.672,-0.192 0.672,-1.056 h -0.384 q -0.096,0 -0.384,0.192 -0.192,0.096 -0.288,0.288 0,-0.288 0.288,-0.864 l 0.384,-0.768 q 0.288,-0.288 0.288,-1.152 0.096,-0.864 0.48,-1.44 v -0.48 q 0,-0.096 0.096,-0.384 0.192,-0.288 0.192,-0.384 l 0.48,-2.496 q 0,-0.288 0.192,-1.056 l 0.192,-0.576 h 0.48 q 0,-0.192 -0.096,-0.768 0,-0.576 0,-0.768 0,-0.192 0.288,-1.248 0.384,-1.152 0.384,-1.344 v -0.576 l -0.288,-0.288 q 0.096,-0.096 0.384,-0.48 0.288,-0.384 0.288,-0.768 v -1.824 q 0,-0.096 0.192,-0.48 0.192,-0.48 0.192,-0.672 v -0.768 l 0.384,-0.384 h 1.152 l -0.384,0.384 0.576,0.096 0.48,-0.864 h 1.632 q 0.192,-0.096 0.288,-0.48 0.192,-0.48 0.48,-0.768 0.192,0.096 0.576,0.576 0.384,0.48 0.576,0.672 v 2.304 l 0.288,-0.672 q 0.096,0.096 0.192,0.192 0.192,0.096 0.192,0.192 v 0.288 l 0.384,0.384 q 0.768,0.768 0.672,1.536 0,0.768 0.48,1.824 v 0.576 q 0.096,0.192 0.384,0.96 0.288,0.672 0.384,0.768 v 0.576 q 0.192,0.192 0.48,0.864 0.288,0.672 0.288,0.864 v 0.96 q 0.192,0.384 0.48,1.344 0.288,0.864 0.288,0.768 0,0.192 -0.096,0.48 0,0.288 0,0.384 l 0.192,0.192 q 0.096,0.096 0.192,0.096 l 0.576,1.92 q 0.288,1.056 0.288,1.536 l 0.192,0.96 q 0.288,0.48 0.576,1.152 0.288,0.672 0.48,1.248 l 0.288,0.864 q 0,0.192 0.096,0.864 0.096,0.576 0.192,0.768 0,0.192 -0.096,0.864 0,0.576 0,0.768 l 0.384,-0.096 -0.096,0.096 q 0,0.288 0.384,1.152 0.48,0.768 1.056,1.92 0.576,1.056 0.96,2.4 0.48,1.248 0.48,2.4 v 0.768 q 0,0.576 0.768,1.248 0.768,0.672 1.44,0.672 0,0.096 -0.192,0.384 -0.096,0.192 -0.096,0.384 v 2.688 q 0,0.096 0.48,0.672 0.576,0.576 0.576,1.344 v 0.288 q 0.192,0.384 0.48,1.152 0.384,0.768 0.384,1.344 0,0.192 -0.096,0.288 0,0.096 0,0.192 0.192,0 0.768,-0.864 0.672,-0.96 0.672,-3.168 0,-0.288 0.384,-0.48 0.48,-0.192 0.48,-0.768 v -0.288 l -0.864,0.288 q 0.288,-0.288 0.864,-1.44 0.576,-1.248 0.768,-1.632 0,-0.096 -0.096,-0.288 0,-0.288 0,-0.48 h -0.384 q 0,-0.48 0.48,-0.96 0.576,-0.48 0.864,-0.96 v -0.768 q 0.192,-0.864 0.192,-1.248 0,-0.384 0.672,-0.672 -0.192,-0.096 -0.288,-0.384 -0.096,-0.288 -0.096,-0.384 h 0.96 v -0.768 h 0.48 q 0,-0.192 -0.096,-0.864 0,-0.768 0,-0.96 0,-0.48 0.384,-1.152 0.384,-0.768 0.384,-0.96 l 0.192,0.096 -0.192,-0.672 q 0,-0.096 0.096,-0.384 0.192,-0.288 0.192,-0.384 v -0.864 q 0.096,-0.096 0.384,-0.192 0.288,-0.096 0.384,-0.096 v -2.688 h 0.384 q 0,-0.576 0.384,-1.536 0.384,-0.96 0.864,-1.632 l -0.096,-1.152 h 0.768 q 0,0.096 -0.192,0.672 0.288,-0.288 0.576,-0.288 l 0.768,0.384 v -0.384 q -0.192,-0.384 -0.288,-0.768 0,-0.384 -0.192,-0.384 h -0.672 l -0.288,-0.288 q 0,-0.288 0.672,-0.48 -0.288,0 -0.288,-0.384 0,-0.384 0.288,-0.384 0.288,0 0.288,0.384 v 0.192 q 0.096,0 0.192,-0.096 v -0.48 q -0.096,-0.096 -0.288,-0.096 -0.192,-0.096 -0.192,-0.192 v -1.44 l 0.192,-0.48 q 0.096,-0.288 0.288,-0.288 h 0.192 l 0.096,-0.384 q 0,-0.384 -0.192,-0.384 -0.192,0 -0.192,-0.48 v -0.48 q 0,-0.384 0.576,-1.056 0.672,-0.768 0.672,-1.536 v -1.632 q 0.384,0 0.672,0.384 0,-0.288 0.192,-0.768 0.288,-0.576 0.48,-0.768 -0.384,0 -0.384,-1.056 0,-1.056 0.384,-1.344 0.48,-0.288 0.48,-0.576 0,-0.192 -0.096,-0.576 0,-0.384 0,-0.864 0,-0.192 0,-0.288 0.096,-0.096 0.096,-0.192 l 0.384,-0.384 q 0,-0.576 0.096,-0.768 0.096,-0.192 0.288,-0.48 0.288,-0.288 0.48,-0.864 0.288,-0.672 0.576,-2.112 0,-0.768 0.288,-1.44 0.288,-0.672 0.576,-1.152 l -0.096,0.288 h 0.384 q 1.344,-0.192 1.632,-0.768 0.384,-0.672 0.864,-1.152 v 1.92 l -0.288,0.48 h 0.48 q 0.096,0 0.192,-0.096 l 0.288,-0.192 -0.096,0.192 q 0,0.48 0.384,0.48 0.288,0 0.288,-0.384 0,-0.288 -0.288,-0.48 h 0.384 q 0.192,0.384 0.288,0.672 0.096,0.288 0.384,0.48 l 0.288,0.096 0.576,-0.672 v 1.056 q 0,0.192 -0.672,0.288 -0.576,0.096 -0.576,1.248 0.192,-0.672 0.864,-0.864 l 0.384,-0.096 v 0.576 l -0.384,0.384 q -0.096,0.096 -0.096,0.288 0,0.192 0,0.48 0.096,0.288 0.096,0.384 -0.48,0.864 -0.768,1.536 -0.192,0.672 -0.768,0.672 v 3.072 l 0.384,0.384 -0.768,0.48 h -0.864 q -0.672,0 -0.672,0.288 0.192,0 0.384,0.384 0.288,0.288 0.288,0.48 0,0.096 -0.192,0.48 -0.192,0.288 -0.384,0.288 l -0.096,-0.096 q 0,0.288 0.288,0.384 0.384,0.096 0.672,0.096 0,0.48 -0.96,0.576 l -0.384,0.576 h 0.768 q -0.288,2.976 -1.92,2.976 0.192,0.096 0.384,0.288 0.288,0.096 0.48,0.096 l 0.288,0.384 q -0.576,0.48 -0.864,0.864 -0.288,0.384 -0.672,0.672 l -0.384,0.768 q 0,0.096 0,0.192 0.096,0.096 0.096,0.192 l 0.288,0.096 0.864,-0.48 q -0.096,0.096 -0.288,0.384 -0.192,0.192 -0.192,0.384 0,1.632 -0.576,2.88 -0.48,1.248 -0.96,2.112 0,-0.48 -0.288,-0.48 l -0.096,0.096 q 0,-0.48 -0.288,-0.48 -0.288,0 -0.288,0.384 0,0.384 0.288,0.384 h 0.096 q 0,0.384 0.288,0.384 h 0.096 q -0.48,0.768 -0.48,0.864 v 2.304 q 0,0.288 -0.768,1.44 -0.768,1.056 -0.768,3.168 z m -29.28,-14.496 q 0,0.096 -0.192,0.768 -0.096,0.576 -0.192,0.768 v 0.864 q 0,0.096 -0.096,0.288 0,0.192 -0.192,0.288 h 1.824 q 0.192,-0.192 0.384,-1.056 0.192,-0.96 0.384,-1.44 l 0.096,-0.48 h -0.864 l 0.768,-1.152 q -0.192,0 -0.576,-0.096 -0.384,-0.096 -0.48,-0.192 v -0.48 q 0,-0.192 0.096,-0.576 0.192,-0.384 0.192,-0.576 -0.48,0.672 -0.672,1.152 -0.096,0.48 -0.096,1.248 h 0.768 q -0.096,0.192 -0.384,0.48 -0.288,0.288 -0.48,0.288 z m 1.92,-3.456 q -0.192,0.48 -0.288,0.96 -0.096,0.48 -0.096,0.768 0.192,0 0.768,-0.096 0.576,-0.096 0.768,-0.096 l 0.384,-0.288 q -0.48,0 -0.768,-0.288 l -0.384,-0.288 0.096,-0.288 z m 32.352,-16.512 q 0.288,0 0.288,0.576 0.576,-0.576 0.768,-0.96 0.192,-0.384 0.192,-0.864 l -0.288,0.096 q -0.288,0.192 -0.864,0.576 -0.576,0.288 -0.576,1.056 v 0.672 q 0.192,0 0.48,-0.288 -0.384,0 -0.384,-0.384 0,-0.48 0.384,-0.48 z m -0.864,6.912 q 0,0.192 0.096,0.384 0.192,0.192 0.288,0.384 l 0.864,-1.536 -1.248,-0.384 v 0.384 l 0.384,0.384 z m -6.048,19.104 q -0.576,0.192 -1.248,0.672 -0.576,0.384 -0.576,0.576 h 0.288 q 1.536,-0.384 1.536,-1.248 z m 8.64,-18.336 h 0.864 v -0.384 q 0,-0.192 -0.192,-0.576 -0.096,-0.384 -0.192,-0.576 z m -10.176,17.184 q -0.288,0 -0.288,0.48 0,0.384 0.192,0.384 -0.192,0.192 -0.192,0.288 0,0.48 0.288,0.48 0.288,0 0.288,-0.384 0,-0.192 -0.288,-0.384 0.288,0 0.288,-0.384 z m 7.968,-22.56 q -0.288,0 -0.288,0.48 0,0.384 0.288,0.384 h 0.096 q 0,0.288 0.384,0.288 0.288,0 0.288,-0.288 0,-0.384 -0.288,-0.384 h -0.192 z m -58.464,21.504 -0.288,-0.48 q -0.192,0 -0.192,0.384 0,0.384 0.192,0.384 h 0.096 q 0,0.384 0.288,0.384 0.384,0 0.384,-0.384 0,-0.384 -0.48,-0.288 z m 12.48,32.448 q 0.192,-0.096 0.288,-0.192 0.192,-0.096 0.288,-0.096 v -0.096 l 0.288,0.096 -0.288,1.056 q -0.192,-0.192 -0.576,-0.192 z m 36.576,-27.552 q 0.192,0 0.192,0.48 0,0.384 -0.192,0.384 -0.48,0 -0.48,-0.384 0,-0.48 0.48,-0.48 z m -33.12,14.208 q -0.288,0 -0.288,0.48 0,0.384 0.288,0.384 0.384,0 0.384,-0.384 0,-0.48 -0.384,-0.48 z m 16.32,-1.248 q -0.288,0 -0.288,0.48 0,0.384 0.288,0.384 0.384,0 0.384,-0.384 0,-0.48 -0.384,-0.48 z m 17.472,-10.656 q -0.288,0 -0.288,0.48 0,0.384 0.288,0.384 0.384,0 0.384,-0.384 0,-0.48 -0.384,-0.48 z m 5.76,-22.56 q -0.384,0 -0.384,0.48 0,0.384 0.384,0.384 0.288,0 0.288,-0.384 z m 5.664,-3.552 q -0.384,0 -0.384,0.48 0,0.384 0.384,0.384 0.288,0 0.288,-0.384 z m -47.424,38.4 q 0,0.576 0.48,0.768 v -1.152 q -0.48,0 -0.48,0.384 z m 37.152,-1.632 q 0.384,0 0.384,0.48 0,0.384 -0.384,0.384 -0.288,0 -0.288,-0.384 z m -50.784,-15.648 q 0.384,0 0.384,0.48 0,0.384 -0.384,0.384 -0.288,0 -0.288,-0.384 z m 32.16,3.552 q -0.288,0 -0.288,0.384 0,0.384 0.288,0.384 0.384,0 0.384,-0.384 0,-0.384 -0.384,-0.384 z m -7.584,-13.056 q -0.288,0 -0.288,0.384 0,0.384 0.288,0.384 0.384,0 0.384,-0.384 0,-0.384 -0.384,-0.384 z m -15.552,32.544 q -0.288,0 -0.288,0.384 0,0.384 0.288,0.384 0.384,0 0.384,-0.384 0,-0.384 -0.384,-0.384 z m 37.152,-10.752 q -0.288,0 -0.288,0.48 0,0.288 0.288,0.288 0.384,0 0.384,-0.288 0,-0.48 -0.384,-0.48 z m -19.68,-16.512 q -0.288,0 -0.288,0.48 0,0.288 0.288,0.288 0.384,0 0.384,-0.288 0,-0.48 -0.384,-0.48 z m 24.288,11.904 q -0.288,0 -0.288,0.48 0,0.288 0.288,0.288 0.384,0 0.384,-0.288 0,-0.48 -0.384,-0.48 z m 4.608,-17.568 q -0.384,0 -0.384,0.384 0,0.384 0.384,0.384 0.288,0 0.288,-0.384 z m -36,8.352 q -0.384,0 -0.384,0.384 0,0.384 0.384,0.384 0.288,0 0.288,-0.384 z m -12.192,20.448 q -0.384,0 -0.384,0.384 0,0.384 0.384,0.384 0.288,0 0.288,-0.384 z m 11.04,-13.056 q -0.384,0 -0.384,0.384 0,0.384 0.384,0.384 0.288,0 0.288,-0.384 z m 18.624,19.104 q -0.384,0 -0.384,0.384 0,0.384 0.384,0.384 0.288,0 0.288,-0.384 z m -26.208,1.44 q -0.384,0 -0.384,0.48 0,0.384 0.384,0.384 0.192,0 0.192,-0.384 z m 1.152,2.304 q -0.384,0 -0.384,0.48 0,0.384 0.384,0.384 0.192,0 0.192,-0.384 z m 4.032,-22.848 q 0.384,0 0.384,0.384 0,0.384 -0.384,0.384 -0.288,0 -0.288,-0.384 z m 33.792,13.056 q 0.384,0 0.384,0.384 0,0.384 -0.384,0.384 -0.288,0 -0.288,-0.384 z m -40.608,-6.24 q 0.384,0 0.384,0.384 0,0.384 -0.384,0.384 -0.288,0 -0.288,-0.384 z m 46.368,-12.192 q -0.384,0 -0.384,0.48 0,0.288 0.384,0.288 0.288,0 0.288,-0.288 z m -48.192,15.648 q -0.384,0 -0.384,0.48 0,0.288 0.384,0.288 0.288,0 0.288,-0.288 z m 42.432,-7.968 q -0.288,0 -0.288,0.288 0,0.384 0.288,0.384 0.384,0 0.384,-0.384 0,-0.288 -0.384,-0.288 z m -31.776,-4.32 h -0.096 q -0.096,0 -0.096,0.384 v 0.576 q 0,1.056 0.096,1.056 0.096,0 0.096,-0.288 z m -1.248,8.064 q -0.192,0 -0.192,0.384 0,0.384 0.192,0.384 0.384,0 0.384,-0.384 0,-0.384 -0.384,-0.384 z m 9.12,-22.176 q -0.192,0 -0.192,0.384 0,0.384 0.192,0.384 0.384,0 0.384,-0.384 0,-0.384 -0.384,-0.384 z m 26.976,18.72 q -0.192,0 -0.192,0.384 0,0.384 0.192,0.384 0.384,0 0.384,-0.384 0,-0.384 -0.384,-0.384 z m -46.272,8.448 q -0.288,0 -0.288,0.48 0,0.384 0.288,0.384 0.288,0 0.288,-0.384 z m 54.144,-41.28 q -0.288,0 -0.288,0.384 0,0.288 0.288,0.288 0.384,0 0.384,-0.288 0,-0.384 -0.384,-0.384 z m -32.16,25.92 q -0.288,0 -0.288,0.48 0,0.384 0.288,0.384 0.288,0 0.288,-0.384 z m 10.272,24.864 q -0.288,0 -0.288,0.48 0,0.384 0.288,0.384 0.288,0 0.288,-0.384 z m 1.152,-6.048 q -0.288,0 -0.288,0.48 0,0.384 0.288,0.384 0.288,0 0.288,-0.384 z m -18.624,-31.872 q -0.288,0 -0.288,0.48 0,0.384 0.288,0.384 0.288,0 0.288,-0.384 z m 19.68,36.768 q -0.288,0 -0.288,0.48 0,0.384 0.288,0.384 0.288,0 0.288,-0.384 z m -16.704,-39.36 q -0.288,0 -0.288,0.48 0,0.384 0.288,0.384 0.288,0 0.288,-0.384 z m 13.728,39.36 q -0.288,0 -0.288,0.48 0,0.384 0.288,0.384 0.288,0 0.288,-0.384 z m -35.232,-17.088 q -0.384,0 -0.384,0.288 0,0.384 0.384,0.384 0.288,0 0.288,-0.384 z m 24.288,-20.352 q -0.384,0 -0.384,0.288 0,0.384 0.384,0.384 0.288,0 0.288,-0.384 z m -29.664,-1.632 q -0.192,0 -0.192,0.48 0,0.288 0.192,0.288 0.384,0 0.384,-0.288 0,-0.48 -0.384,-0.48 z m 1.056,4.704 q -0.096,0 -0.096,0.48 0,0.384 0.096,0.384 0.384,0 0.384,-0.384 0,-0.48 -0.384,-0.48 z m 51.744,18.336 q -0.384,0 -0.384,0.384 0,0.384 0.384,0.384 0.192,0 0.192,-0.384 z m -33.792,0 q -0.384,0 -0.384,0.384 0,0.384 0.384,0.384 0.192,0 0.192,-0.384 z m 34.944,1.536 q -0.384,0 -0.384,0.384 0,0.384 0.384,0.384 0.192,0 0.192,-0.384 z m 1.152,-17.952 q -0.384,0 -0.384,0.384 0,0.384 0.384,0.384 0.192,0 0.192,-0.384 z m -22.848,16.8 q 0.288,0 0.288,0.384 0,0.384 -0.288,0.384 -0.288,0 -0.288,-0.384 z m -26.112,3.84 q 0.288,0 0.288,0.384 0,0.384 -0.288,0.384 -0.288,0 -0.288,-0.384 z m 6.048,13.44 q -0.384,0 -0.384,0.48 0,0.288 0.384,0.288 0.192,0 0.192,-0.288 z m 6.336,-22.56 q 0.384,0 0.384,0.384 0,0.288 -0.384,0.288 -0.288,0 -0.288,-0.288 z m -9.792,13.44 q -0.288,0 -0.288,0.384 0,0.384 0.288,0.384 0.288,0 0.288,-0.384 z m 26.976,-1.248 q -0.288,0 -0.288,0.384 0,0.384 0.288,0.384 0.288,0 0.288,-0.384 z m 6.432,9.6 q -0.288,0 -0.288,0.384 0,0.384 0.288,0.384 0.288,0 0.288,-0.384 z m 7.968,-7.2 q -0.288,0 -0.288,0.384 0,0.384 0.288,0.384 0.288,0 0.288,-0.384 z m 14.016,-42.912 q -0.288,0 -0.288,0.384 0,0.384 0.288,0.384 0.288,0 0.288,-0.384 z m -31.104,18.24 q -0.288,0 -0.288,0.384 0,0.384 0.288,0.384 0.288,0 0.288,-0.384 z m 3.456,16.512 q -0.288,0 -0.288,0.384 0,0.384 0.288,0.384 0.288,0 0.288,-0.384 z m -14.016,-9.504 q -0.288,0 -0.288,0.384 0,0.384 0.288,0.384 0.288,0 0.288,-0.384 z m -9.984,23.712 q -0.288,0 -0.288,0.384 0,0.384 0.288,0.384 0.288,0 0.288,-0.384 z m 14.4,-26.88 q 0.288,0 0.288,0.48 0,0.288 -0.288,0.288 -0.288,0 -0.288,-0.288 z m 22.848,10.752 q 0.288,0 0.288,0.48 0,0.288 -0.288,0.288 -0.288,0 -0.288,-0.288 z m -45.504,-21.408 q 0.288,0 0.288,0.48 0,0.288 -0.288,0.288 -0.288,0 -0.288,-0.288 z m 9.12,43.392 q 0.192,0 0.192,0.288 0,0.384 -0.192,0.384 -0.384,0 -0.384,-0.384 0,-0.288 0.384,-0.288 z m 24.192,-5.568 h -1.056 q 0.48,-0.192 0.672,-0.384 l 0.384,-0.384 z m -33.696,-39.36 q 0.288,0 0.288,0.48 0,0.384 -0.288,0.384 -0.192,0 -0.192,-0.384 z m 56.064,-5.376 q -0.288,0 -0.288,0.48 0,0.288 0.288,0.288 0.288,0 0.288,-0.288 z m -1.056,-1.152 q -0.288,0 -0.288,0.48 0,0.288 0.288,0.288 0.288,0 0.288,-0.288 z m -46.368,48.576 q -0.288,0 -0.288,0.48 0,0.288 0.288,0.288 0.288,0 0.288,-0.288 z m 23.232,-13.056 q -0.288,0 -0.288,0.48 0,0.288 0.288,0.288 0.288,0 0.288,-0.288 z m -13.248,-17.952 q -0.288,0 -0.288,0.48 0,0.288 0.288,0.288 0.288,0 0.288,-0.288 z m 42.72,-20.64 q -0.192,0 -0.192,0.48 0,0.384 0.192,0.384 0.288,0 0.288,-0.384 z m -39.072,6.144 q -0.192,0 -0.192,0.48 0,0.384 0.192,0.384 0.288,0 0.288,-0.384 z m -1.44,6.048 0.384,-0.672 -0.096,-0.096 q -0.096,0 -0.384,0.192 -0.288,0.096 -0.288,0.288 z m 38.208,-13.632 q 0.576,-0.576 0.576,-0.864 h -0.576 z m -0.96,13.344 q -0.288,0 -0.288,0.48 0,0.384 0.288,0.384 0.192,0 0.192,-0.384 z m -51.648,33.216 q -0.288,0 -0.288,0.48 0,0.384 0.288,0.384 0.192,0 0.192,-0.384 z m 40.608,-14.112 q -0.288,0 -0.288,0.48 0,0.384 0.288,0.384 0.192,0 0.192,-0.384 z m -29.568,-8.448 q -0.288,0 -0.288,0.48 0,0.384 0.288,0.384 0.192,0 0.192,-0.384 z m 34.944,8.16 q -0.288,0 -0.288,0.288 0,0.384 0.288,0.384 0.288,0 0.288,-0.384 z m -15.648,20.256 q -0.288,0 -0.288,0.288 0,0.384 0.288,0.384 0.288,0 0.288,-0.384 z m -15.936,-43.968 q -0.288,0 -0.288,0.288 0,0.384 0.288,0.384 0.288,0 0.288,-0.384 z m 0,-1.152 q -0.288,0 -0.288,0.288 0,0.384 0.288,0.384 0.288,0 0.288,-0.384 z m -16.32,33.312 q -0.288,0 -0.288,0.288 0,0.384 0.288,0.384 0.288,0 0.288,-0.384 z m 33.408,8.352 q -0.288,0 -0.288,0.288 0,0.384 0.288,0.384 0.288,0 0.288,-0.384 z m -17.856,-37.056 q -0.288,0 -0.288,0.288 0,0.384 0.288,0.384 0.288,0 0.288,-0.384 z m 2.592,1.056 q -0.288,0 -0.288,0.288 0,0.384 0.288,0.384 0.288,0 0.288,-0.384 z m 32.352,0 q -0.288,0 -0.288,0.288 0,0.384 0.288,0.384 0.288,0 0.288,-0.384 z m -35.424,-6.528 q -0.096,0.096 -0.288,0.288 -0.192,0.096 -0.288,0.096 l -0.384,0.096 v -0.48 z m 13.824,41.376 q 0.192,0 0.192,0.48 0,0.384 -0.192,0.384 -0.288,0 -0.288,-0.384 z m -0.768,-1.92 q 0.288,0 0.288,0.384 0,0.288 -0.288,0.288 -0.288,0 -0.288,-0.288 z m 23.424,-27.168 q -0.288,0 -0.288,0.384 0,0.288 0.288,0.288 0.288,0 0.288,-0.288 z m 4.608,-19.104 q -0.288,0 -0.288,0.384 0,0.288 0.288,0.288 0.288,0 0.288,-0.288 z m 0,2.304 q -0.288,0 -0.288,0.384 0,0.288 0.288,0.288 0.288,0 0.288,-0.288 z m -38.688,16.8 q -0.288,0 -0.288,0.384 0,0.288 0.288,0.288 0.288,0 0.288,-0.288 z m -21.984,7.68 q -0.192,0 -0.192,0.384 0,0.384 0.192,0.384 0.288,0 0.288,-0.384 z m 34.848,19.968 q -0.192,0 -0.192,0.384 0,0.384 0.192,0.384 0.288,0 0.288,-0.384 z m -20.544,-7.776 q -0.192,0 -0.192,0.384 0,0.384 0.192,0.384 0.288,0 0.288,-0.384 z m 41.376,-19.2 q -0.192,0 -0.192,0.384 0,0.384 0.192,0.384 0.288,0 0.288,-0.384 z m -37.92,2.688 h -0.096 q -0.096,0 -0.096,0.672 0,0.48 0.096,0.48 0.192,0 0.192,-0.48 z m 35.04,-7.584 q -0.288,0 -0.288,0.384 0,0.384 0.288,0.384 0.192,0 0.192,-0.384 z m -5.76,19.104 q -0.288,0 -0.288,0.384 0,0.384 0.288,0.384 0.192,0 0.192,-0.384 z m 5.76,-2.592 q -0.288,0 -0.288,0.384 0,0.384 0.288,0.384 0.192,0 0.192,-0.384 z m -33.408,-10.368 q -0.288,0 -0.288,0.384 0,0.384 0.288,0.384 0.192,0 0.192,-0.384 z m -22.368,-13.824 q -0.288,0 -0.288,0.48 0,0.288 0.288,0.288 0.192,0 0.192,-0.288 z m 61.728,-2.304 q -0.288,0 -0.288,0.48 0,0.288 0.288,0.288 0.192,0 0.192,-0.288 z m -44.736,36.768 q -0.288,0 -0.288,0.48 0,0.288 0.288,0.288 0.192,0 0.192,-0.288 z m -11.04,-4.992 q -0.192,0 -0.192,0.48 0,0.288 0.192,0.288 0.288,0 0.288,-0.288 z m -8.64,-39.072 q 0.192,0 0.192,0.48 0,0.288 -0.192,0.288 -0.288,0 -0.288,-0.288 z m 58.752,14.688 q -0.192,0 -0.192,0.288 0,0.384 0.192,0.384 0.288,0 0.288,-0.384 z m -18.24,36.768 q -0.192,0 -0.192,0.288 0,0.384 0.192,0.384 0.288,0 0.288,-0.384 z m -8.352,-18.048 q 0.288,0 0.288,0.384 0,0.288 -0.288,0.288 -0.192,0 -0.192,-0.288 z m 18.144,19.776 q -0.096,0 -0.096,0.48 0,0.384 0.096,0.384 0.288,0 0.288,-0.384 z m -11.232,-1.44 q 0.192,0 0.192,0.288 0,0.384 -0.192,0.384 -0.288,0 -0.288,-0.384 z m -34.944,-30.24 q -0.192,0 -0.192,0.384 0,0.288 0.192,0.288 0.288,0 0.288,-0.288 z m 45.504,19.104 q 0,0.192 -0.288,0.384 -0.288,0.096 -0.384,0.096 v -0.48 z m 6.816,-9.504 h 0.48 v -0.48 h -0.48 z m -39.84,19.104 q -0.192,0 -0.192,0.384 0,0.384 0.192,0.384 0.192,0 0.192,-0.384 z m 44.448,-43.68 q 0.672,0 0.672,-0.384 h -0.672 z m -11.424,38.688 q -0.192,0 -0.192,0.48 0,0.288 0.192,0.288 0.192,0 0.192,-0.288 z m -11.328,-2.4 0.384,-1.824 -0.384,0.768 z m 18.144,-1.824 v -0.768 l 0.192,-0.192 q 0.192,-0.192 0.288,-0.192 z m -8.352,9.6 q -0.192,0 -0.192,0.48 0,0.384 0.192,0.384 0.096,-0.096 0.096,-0.384 z m -22.752,-24.192 q 0,-0.096 -0.384,-0.096 -0.288,0 -0.288,0.096 0,0.288 0.288,0.288 0.192,0 0.384,-0.288 z m 1.536,-12.576 -0.096,-0.096 q -0.384,0 -0.384,0.288 0,0.192 0.288,0.192 0.192,0 0.192,-0.384 z m 7.584,10.368 h 0.384 v -0.48 h -0.384 z m -0.384,4.224 h 0.768 l -0.384,-0.48 z m -7.584,-13.536 0.384,0.096 q 0.192,0 0.48,0 0.288,-0.096 0.288,-0.288 z m -18.144,23.04 q -0.192,0 -0.192,0.48 0,0.288 0.192,0.288 0.096,-0.096 0.096,-0.384 z m -1.92,-6.144 h -0.096 q -0.384,0 -0.384,0.384 l 0.096,0.096 q 0.384,0 0.384,-0.48 z m 52.032,-1.44 v -0.864 l -0.384,0.48 z m -31.968,-12.288 0.384,0.384 v -0.384 l -0.384,-0.384 z m -11.808,39.456 v 0.384 h -0.384 v -0.384 z m 44.064,-38.688 0.384,-0.768 h -0.384 z m -15.168,26.4 v -0.768 l -0.384,0.384 z m -3.072,3.072 v -0.384 h -0.768 z m -15.456,-28.608 q -0.384,0 -0.384,0.288 v 0.48 z m 37.44,-12.864 h 0.864 v -0.288 z m -52.704,36.576 -0.096,-0.096 q -0.384,0 -0.384,0.288 l 0.288,0.096 z m 47.424,-13.44 0.48,-0.48 h -0.48 z m -25.344,-3.168 0.288,-0.768 h -0.288 z m 9.024,29.664 h -0.384 l 0.384,-0.576 z m -1.536,-14.688 h -0.096 q -0.096,0.096 -0.096,0.192 0,0.192 0.192,0.192 0.192,0 0.192,-0.096 z m -14.304,-20.256 q -0.384,0 -0.384,0.384 v 0.288 z m 5.952,3.744 q -0.192,0 -0.192,0.288 0.096,0.096 0.192,0.096 l 0.192,-0.096 z m 26.688,-7.2 q 0,-0.096 -0.288,-0.096 -0.192,0 -0.192,0.096 0,0.192 0.192,0.192 z m -27.744,-3.168 q -0.192,0 -0.192,0.288 l 0.096,0.192 q 0.192,0 0.192,-0.192 z m 28.128,1.536 h 0.672 v -0.288 z m -20.928,20.736 -0.48,0.384 v 0.384 z m 18.912,-7.2 h 0.384 l -0.384,-0.48 z m -26.976,-20.736 h 0.48 l -0.48,-0.384 z m 24.384,26.4 q -0.192,0 -0.192,0.288 0,0.192 0.096,0.192 0.192,0 0.096,-0.48 z m -14.784,7.776 0.672,-0.576 h -0.288 z m -4.224,-4.32 v -0.384 q 0,-0.096 0.096,-0.192 0.192,-0.096 0.288,-0.192 z m 29.568,-32.928 q -0.192,0 -0.192,0.288 l 0.096,0.096 q 0.192,0 0.192,-0.096 z m -17.088,48.672 v -0.096 q 0,-0.096 -0.192,-0.096 -0.192,0 -0.192,0.192 0.192,0.192 0.384,0 z m 2.016,-6.528 h -0.096 q -0.096,0 -0.096,0.192 0,0.192 0.192,0.192 0.096,0 0,-0.384 z m 14.4,-44.736 h -0.096 q -0.096,0 -0.096,0.192 0,0.192 0.192,0.192 0.096,0 0,-0.384 z m -43.008,48.576 q 0,0.192 -0.192,0.192 -0.192,0 -0.192,-0.192 0,-0.192 0.384,0 z m 24.672,3.072 0.384,-0.384 h -0.384 z m -10.176,-21.408 0.384,-0.384 h -0.384 z m 6.048,21.408 -0.384,0.384 v -0.384 z m -37.536,-31.488 q 0.096,0.096 0.096,0.288 0,0.192 -0.096,0.192 -0.192,0 0,-0.48 z m 51.264,16.128 q -0.192,0 -0.192,0.192 0,0.192 0.096,0.192 0.192,0 0.096,-0.384 z m -12.576,12.288 v -0.384 h -0.288 z m -11.04,-43.68 v -0.384 h -0.288 z m 11.424,48.192 q 0,-0.096 -0.192,-0.096 -0.192,0 -0.192,0.096 0,0.192 0.384,0 z m -15.936,-43.2 q 0,-0.096 -0.192,-0.096 -0.192,0 -0.192,0.096 0,0.192 0.384,0 z m 36.384,-7.296 q -0.096,-0.096 -0.192,-0.096 l -0.192,0.096 q 0,0.192 0.384,0 z m -51.936,41.472 -0.192,0.096 q 0,0.192 0.192,0.192 z m 12.384,-18.624 -0.288,0.288 0.096,0.192 z m 40.416,-29.664 0.096,0.096 q 0,0.192 -0.096,0.192 -0.192,0 0,-0.288 z m -3.456,15.552 v -0.192 h -0.384 z m 4.128,-9.504 h -0.384 l 0.192,0.192 z m -1.248,-0.672 q -0.192,0.192 -0.192,0.384 0.192,0 0.192,-0.384 z m -27.936,32.064 q 0,-0.096 -0.192,-0.096 -0.192,0 -0.192,0.096 z m 1.056,-0.48 -0.096,-0.384 -0.096,0.096 z m -32.064,-10.272 q 0.192,0 0.192,-0.288 z m 56.736,0.096 q 0,0.288 -0.192,0.288 z m -49.152,26.784 q 0,-0.288 0.096,-0.384 z m 49.344,-26.112 q 0,-0.096 0.192,-0.288 z m 5.184,-26.016 q -0.096,0 -0.288,0.192 z m -46.368,38.688 q 0,-0.096 -0.192,-0.096 z m 50.688,2.592 q 0.288,-0.192 0.384,-0.384 0.096,-0.192 0.288,-0.192 l 0.384,0.096 q 0.096,-0.192 0.192,-0.864 0.096,-0.672 0.096,-0.96 0,-0.192 -0.096,-1.344 0,-1.248 0,-2.4 0,-1.728 0.48,-3.744 0.576,-2.016 0.576,-4.8 0,-0.48 0.192,-1.248 0.288,-0.864 0.576,-1.728 0.288,-0.96 0.48,-1.728 0.288,-0.864 0.288,-1.44 v -1.152 q 0.192,-0.288 0.288,-0.576 0.192,-0.384 0.384,-0.384 l 0.288,0.096 q 0.48,0 1.152,0.576 0.672,0.576 0.864,1.056 l 1.056,1.344 q 0,0.192 0.096,0.48 0.192,0.288 0.192,0.384 v 1.632 q 0,0.096 -0.192,0.288 -0.096,0.192 -0.096,0.288 l 0.288,0.384 -0.864,0.864 h 1.152 q 0,1.152 -0.288,2.208 -0.288,1.056 -0.288,1.344 v 0.48 l 0.768,-0.48 q 0,0.768 -0.48,1.248 -0.384,0.48 -0.384,0.96 0,0.096 0,0.192 0.096,0.096 0.096,0.192 l 0.768,-0.384 q 0,0.192 -0.288,0.48 -0.192,0.288 -0.192,0.384 v 1.248 q 0,0.096 -0.192,0.288 -0.096,0.192 -0.096,0.288 0,0.096 0.096,0.576 0.192,0.48 0.192,0.672 0,0.48 -0.768,0.48 h -0.096 q 0.384,0.192 0.576,0.864 0.288,0.672 0.288,0.96 v 2.016 q 0,0.192 -0.192,0.384 -0.096,0.096 -0.096,0.192 0,0.096 0.384,0.672 0.384,0.48 0.384,1.056 v 2.688 l -0.48,-0.48 q -0.192,0.096 -0.576,0.384 -0.288,0.288 -0.288,0.48 0,0.096 0.192,0.384 0.288,0.288 0.384,0.48 l 0.288,0.48 v 1.248 q 0,0.096 0.192,0.288 0.288,0.192 0.288,0.288 0,0.192 -0.096,0.288 -0.096,0.096 -0.192,0.288 -0.096,0.192 -0.192,0.288 h 0.48 q 0.096,0 0.288,0.96 0.192,0.96 0.192,1.536 0,0.48 -0.384,0.768 -0.384,0.192 -0.864,0.672 h -0.384 q -0.192,0 -0.288,-0.096 0,0.096 0,0.384 0.096,0.192 0.096,0.384 0,0.192 -0.576,0.576 -0.48,0.384 -0.672,0.384 l -0.384,-0.864 q -0.288,0.384 -0.768,1.056 -0.48,0.576 -0.48,0.768 l -1.344,0.48 q -0.096,0.192 -0.096,0.288 0,0.096 -0.096,0.192 l -0.288,0.384 h -0.864 q 0,-1.056 -0.288,-1.728 -0.192,-0.672 -0.192,-2.304 0,-1.44 0,-2.88 0.096,-1.536 0.096,-1.824 0,-0.192 -0.192,-0.96 -0.096,-0.768 -0.096,-0.864 v -4.896 z m 4.416,-36.096 v -0.48 h -1.152 q 0,-0.288 -0.288,-0.576 -0.288,-0.384 -0.288,-0.768 v -0.384 q -0.096,-0.096 -0.096,-0.192 l -0.288,-0.672 v -0.288 q 0,-0.096 0.096,-0.192 h -0.672 q 0,-0.384 0.096,-0.384 l 0.48,-0.576 v -2.112 q 0,-0.192 0.096,-0.576 0.192,-0.384 0.288,-0.48 0.096,0.096 0.192,0.096 0.192,0 0.288,0.096 h 0.288 l 0.96,-0.96 q 0.576,0.48 0.576,0.672 l -0.192,0.288 q 1.152,0 2.496,1.056 1.344,0.96 1.344,1.536 h 0.576 l 1.632,1.344 q -0.192,0 -0.288,0.192 -0.096,0.192 -0.096,0.288 0.096,0.288 0.288,0.672 0.192,0.288 0.192,0.672 0,1.056 -0.96,1.44 -0.96,0.384 -2.88,0.672 h -0.48 q -0.096,0 -0.48,0.192 -0.384,0.192 -0.48,0.192 v -0.384 l 0.384,-0.384 z m -1.824,46.56 h 2.304 q -0.864,-0.192 -1.152,-0.384 -0.48,-0.288 -0.672,-0.48 h -0.48 z m 4.704,-25.056 q -0.192,0 -0.192,0.576 0,0.384 0.192,0.384 0.48,0 0.48,-0.384 0,-0.576 -0.48,-0.576 z m -6.72,28.128 q 0.288,0 0.288,0.48 0,0.48 -0.288,0.48 -0.384,0 -0.384,-0.48 0,-0.48 0.384,-0.48 z m 5.472,-53.184 q -0.288,0 -0.288,0.48 0,0.384 0.288,0.384 0.48,0 0.48,-0.384 0,-0.48 -0.48,-0.48 z m 1.824,47.904 q -0.48,0 -0.48,0.48 0,0.48 0.48,0.48 0.192,0 0.192,-0.48 z m 0,-7.008 -0.288,0.192 q -0.096,0.096 -0.096,0.384 0,0.768 0.384,0.768 0.096,0 0.096,-0.672 z m 0,9.216 q -0.48,0 -0.48,0.48 0,0.384 0.48,0.384 0.192,0 0.192,-0.384 z m 0,-5.184 q -0.48,0 -0.48,0.48 0,0.384 0.48,0.384 0.192,0 0.192,-0.384 z m -1.248,-11.52 q -0.48,0 -0.48,0.48 0,0.48 0.48,0.48 0.096,0 0.096,-0.48 z m -3.168,14.496 q -0.288,0 -0.288,0.48 0,0.48 0.288,0.48 0.288,0 0.288,-0.48 z m -0.864,-3.84 q -0.192,0 -0.192,0.48 0,0.384 0.192,0.384 0.384,0 0.384,-0.384 0,-0.48 -0.384,-0.48 z m 4.224,-4.896 q -0.192,0 -0.192,0.48 0,0.384 0.192,0.384 0.384,0 0.384,-0.384 0,-0.48 -0.384,-0.48 z m 1.344,4.416 q 0.384,0 0.384,0.48 0,0.384 -0.384,0.384 -0.192,0 -0.192,-0.384 z m -2.496,10.56 q 0.288,0 0.288,0.48 0,0.384 -0.288,0.384 -0.288,0 -0.288,-0.384 z m -0.864,0 q 0.288,0 0.288,0.48 0,0.384 -0.288,0.384 -0.288,0 -0.288,-0.384 z m 3.36,-52.8 q -0.192,0 -0.192,0.384 0,0.48 0.192,0.48 0.288,-0.096 0.288,-0.48 z m -1.344,48.384 h -0.768 l 0.192,0.768 z m 1.824,3.456 h -0.48 v -1.152 z m -6.816,-57.12 q 0.192,0 0.192,0.48 0,0.384 -0.192,0.384 -0.192,0 -0.192,-0.384 z m 1.248,55.968 -0.096,-0.096 q -0.48,0 -0.48,0.288 l 0.192,0.192 q 0.48,0 0.384,-0.384 z m 5.568,-49.44 q -0.192,0 -0.192,0.192 0,0.288 0.192,0.288 0.096,0 0.096,-0.192 z m -1.344,51.552 q 0.192,0 0.192,0.192 0,0.288 -0.192,0.288 -0.096,0 0,-0.48 z m 0.096,-51.072 v -0.096 q 0,-0.096 -0.192,-0.096 l -0.096,0.288 z m 27.83994,49.632 0.288,-0.576 0.192,-0.576 v -0.48 q 0,-0.288 -0.288,-0.48 -0.192,-0.288 -0.48,-0.576 -0.192,-0.288 -0.48,-0.672 -0.192,-0.384 -0.192,-1.056 h 0.384 q 0.288,0 0.576,0 0.288,-0.096 0.48,-0.48 l 0.192,-0.48 q 0.384,-0.672 1.152,-1.632 0.768,-0.96 2.016,-1.152 v 0.384 q 0.192,-0.192 0.288,-0.768 0.096,-0.576 0.192,-0.768 v -0.48 l -0.672,0.384 q 1.056,-1.056 1.056,-2.88 v -1.632 l 0.576,-0.864 q -0.192,0 -0.192,-0.384 0,-0.384 -0.384,-0.672 l -1.152,-2.208 -1.632,-1.632 q -0.672,-0.288 -1.44,-0.768 -0.768,-0.576 -1.44,-1.056 -0.672,-0.576 -1.152,-0.96 -0.384,-0.48 -0.384,-0.672 l -0.192,-0.096 q 0,-0.288 -0.192,-0.48 -0.096,-0.288 -0.192,-0.384 h -0.288 q -0.096,0.096 -0.48,0.288 -0.288,0.192 -0.384,0.192 l -0.192,-0.192 q -0.096,-0.096 -0.096,-0.288 h -0.384 q -0.192,0 -0.768,-0.288 -0.576,-0.384 -0.864,-0.48 l -0.672,-0.768 q 0,-0.096 0,-0.288 0.096,-0.192 0.096,-0.288 -0.096,0 -0.48,0.096 -0.384,0 -0.48,0 l -0.768,-0.288 q -0.576,-0.288 -1.248,-0.576 l -1.344,-0.576 q -0.672,-0.288 -1.152,-0.48 -0.384,-0.192 -0.48,-0.288 l -0.672,0.096 q -0.096,0 -0.192,-0.096 l -0.288,-0.096 -0.384,0.576 q -0.48,0 -0.672,-0.576 -0.096,-0.576 -0.096,-1.248 -0.576,1.056 -1.536,1.056 v -0.672 h 0.48 v -0.384 l -0.384,-0.096 -0.384,0.192 q -0.288,0.192 -0.48,0.48 v -0.192 q 0,-0.192 0.192,-0.384 0.192,-0.288 0.192,-0.48 v -0.48 l 0.384,-1.056 -0.384,0.288 h -0.384 l -1.056,-0.768 q 0.096,-0.096 0.48,-0.384 0.48,-0.288 0.576,-0.48 l 2.4,-2.4 q 0.192,-0.288 0.384,-0.96 0.288,-0.672 0.288,-0.768 l -0.288,-0.384 -2.784,4.032 -0.48,-0.384 v -1.152 l 0.768,0.288 v -1.056 l 0.48,0.384 0.48,-0.96 q 0.096,-0.192 0.288,-0.48 0.288,-0.384 0.576,-0.672 l 0.672,-0.768 h 0.288 l -0.096,-0.288 -0.192,-0.096 q -0.192,0 -0.48,0.192 -0.288,0.192 -0.384,0.192 l -0.48,0.096 q 0,-0.288 0.096,-0.96 0.192,-0.768 1.248,-0.768 h 0.672 q 0.192,-0.096 0.288,-0.384 0.192,-0.384 0.192,-0.48 0.096,0.096 0.288,0.48 0.288,0.288 0.48,0.384 h 0.384 q 0.288,0 0.864,-0.48 0.576,-0.48 0.576,-0.864 v -0.288 l -0.672,0.768 q -0.384,0 -0.384,-0.768 0,-0.384 0.48,-0.672 l -0.096,0.192 q 0,0.48 0.384,0.48 0.192,0 0.192,-0.384 0,-0.192 -0.192,-0.384 h 1.248 q 0,-0.096 0.48,-0.576 0.48,-0.576 0.576,-0.768 h 0.384 q 0.096,0 0.576,-0.384 0.48,-0.384 0.96,-0.384 h 0.672 l 0.384,-0.384 h 0.48 q -0.192,0.192 -0.288,0.864 -0.096,0.576 -0.192,0.768 v 0.288 q 0.192,0 0.48,-0.288 l 0.48,-0.48 v -0.288 q 0,-0.288 1.152,-0.768 -0.096,0.096 -0.096,0.384 0,0.384 0.288,0.384 0.384,0 0.384,-0.384 0,-0.384 -0.384,-0.48 h 0.48 q 0,0.192 0.096,0.48 0.192,0.288 0.192,0.384 l 0.384,-0.864 q 0.48,-0.288 1.44,-0.576 0.96,-0.288 1.728,-0.288 0.768,0 1.056,0.672 0.384,0.576 0.864,0.576 0.096,0 0.384,-0.096 0.288,-0.192 0.384,-0.288 v 0.768 q 0,0.384 0.384,0.384 0.192,0 0.192,-0.288 0,-0.192 -0.096,-0.192 v -0.192 q 0.096,-0.096 0.384,-0.096 h 0.288 q 0.768,0 0.96,0.672 0.288,0.576 0.288,0.768 0,0.288 -0.48,0.96 -0.48,0.576 -0.96,0.576 -0.192,0 -0.48,-0.288 -0.288,-0.384 -1.248,-0.576 h -0.48 l -0.192,-0.288 q -0.192,-0.192 -0.192,-0.288 l -1.056,0.864 -0.48,-0.864 -1.152,1.344 h 0.96 q 0,0.096 -0.192,0.48 -0.192,0.288 -0.288,0.288 h -2.688 q -0.192,0.096 -0.48,0.48 -0.288,0.384 -0.672,0.384 l 0.672,0.288 q -0.192,0.48 -0.864,0.576 -0.672,0 -1.44,0 v -0.48 q -0.192,0.288 -0.672,0.384 -0.384,0 -0.576,0.096 v -2.208 h -0.768 q 0,0.192 0,0.576 0.096,0.288 0.096,0.576 0,0.192 -0.096,0.288 l -0.576,1.152 -0.384,0.384 v 0.384 l 1.44,-0.672 q -0.768,0.48 -0.96,0.96 -0.192,0.48 -0.864,0.48 -0.48,0 -0.48,-0.384 v -1.632 q 0,-0.096 0.192,-0.576 0.288,-0.48 0.288,-0.672 v -0.384 q 0,-0.096 -0.192,-0.384 -0.096,-0.384 -0.288,-0.384 0,0.384 -0.384,1.152 -0.288,0.768 -0.288,1.248 l -0.48,-0.48 -1.056,0.48 v -0.48 l -0.768,1.344 -0.288,-0.384 v 1.44 q 0.096,-0.192 0.384,-0.384 0.288,-0.288 0.384,-0.288 l 1.056,-0.384 q 0,0.768 0.192,1.344 0.288,0.576 1.056,0.576 l 0.192,0.096 q 0.192,0 0.576,-0.096 0.48,-0.096 0.672,-0.288 -0.288,0.48 -0.864,0.96 -0.48,0.48 -1.536,0.672 h -0.288 q -0.384,0 -0.384,0.288 v 0.864 l -0.384,0.384 h 0.768 q 0,0.192 0.096,0.864 0.192,0.672 0.192,0.864 l 0.96,0.384 q -0.096,0.096 -0.096,0.192 h 1.344 q 0,0.192 0.48,0.384 0.48,0.192 0.864,0.192 v 0.48 q 0.48,0.96 1.92,1.152 1.536,0.192 2.592,0.768 l 1.632,0.864 q 0,0.192 0.288,0.48 0.288,0.288 0.48,0.384 l 0.672,-0.384 0.192,0.192 q 0,0.096 0.192,0.096 l 1.536,0.96 q 0,0.096 0.192,0.192 0.288,0.096 0.288,0.192 -0.192,0.192 -0.192,0.576 0.192,0 0.864,-0.096 0.672,-0.096 0.768,-0.096 0.288,0.384 0.864,0.672 0.576,0.288 1.056,0.288 v 0.672 q 0,0.384 0.288,0.384 l -0.576,0.48 q 0.288,0.288 0.288,0.384 l -0.192,0.384 q -0.096,0.096 -0.096,0.288 0,0.192 0.096,0.288 0.192,0.096 0.192,0.288 h 0.48 l 0.192,-0.576 0.288,-0.576 q 0,0.192 0.096,0.576 0.192,0.384 0.192,0.576 l -0.288,0.288 0.864,0.768 v -1.92 h 0.288 q 0,0.576 0.192,0.672 0.288,0.096 0.768,0.48 0.384,0.384 0.576,1.44 0.192,0.96 0.672,0.96 h 0.48 q 0,0.096 0.096,0.48 0.096,0.288 0.096,0.48 v 0.48 q 0.288,0.192 0.384,0.96 0.096,0.672 0.096,1.344 v 0.768 q 0,1.056 -0.288,1.344 -0.192,0.288 -0.192,0.768 0,0.096 0.192,0.48 0.192,0.288 0.192,0.384 0,0.48 -0.384,0.48 0,-0.192 -0.384,-0.576 l -0.288,-0.288 q -0.384,0 -0.384,0.288 0,0.096 0.192,0.288 0.192,0.192 0.192,0.288 v 0.288 q 0,0.192 0.288,0.48 l 0.384,0.384 h -1.92 q -0.096,0 -0.192,0.192 -0.096,0.192 -0.096,0.288 h 0.288 q 0.192,0.096 0.48,0.384 0.288,0.192 0.384,0.288 -0.192,0.192 -0.576,0.576 -0.384,0.288 -0.576,0.288 v 0.288 q 0,0.192 -0.288,0.768 -0.192,0.48 -0.384,0.576 v -1.344 l -0.576,1.728 -0.288,-0.384 q -0.192,0 -0.384,0.672 -0.096,0.672 -0.096,1.152 -0.384,-0.096 -0.768,-0.768 0,1.056 -0.48,1.44 -0.384,0.384 -1.728,0.864 h -0.384 q -0.48,0 -0.576,0.384 0,0.384 -0.096,0.864 -0.096,0.384 -0.384,0.768 -0.192,0.288 -0.96,0.288 v -0.384 z m -1.44,0 q -0.384,0 -0.384,0.384 0,0.384 0.288,0.48 h -1.152 l -2.304,0.96 v 0.192 q 0,0.48 -0.192,0.48 -0.48,0 -0.48,-0.48 0.096,-0.096 0.096,-0.192 l -0.096,-1.44 -0.96,1.632 -0.576,-0.384 -0.384,0.192 q -0.096,0.096 -0.288,0.096 l -0.576,-0.288 q -0.096,0.096 -0.192,0.096 0,-0.096 -0.48,-0.192 -0.384,-0.192 -0.384,-0.576 -0.192,0.288 -0.48,0.288 h -1.824 q -0.192,0 -0.48,0.192 -0.192,0.096 -0.288,0.192 v -0.96 q -0.192,0 -0.576,0.096 -0.384,0.096 -0.576,0.096 0,-0.192 -0.768,-0.48 -0.768,-0.288 -0.768,-0.768 h -0.48 q 0,-0.192 -0.096,-0.192 -0.096,-0.096 -0.192,-0.288 l -0.192,-0.288 h -0.192 q -0.48,-0.384 -0.576,-0.96 0,-0.672 -0.672,-1.152 l 0.384,-0.384 q 0,-0.384 -0.384,-0.384 -0.096,0 -0.288,0.192 -0.192,0.096 -0.384,0.192 0.192,-0.576 0.192,-0.864 l 0.192,-0.096 q 0,-0.288 -0.48,-0.672 -0.384,-0.384 -0.384,-0.864 0,-0.384 0.096,-0.48 -1.152,-0.48 -2.208,-1.536 -0.96,-1.152 -0.96,-1.632 v -0.768 h 0.384 q -0.288,0.192 -0.288,0.48 0,0.288 0.384,0.288 0.192,0 0.192,-0.288 0,-0.288 -0.192,-0.48 h 1.152 l -0.768,-0.864 0.768,-0.864 q -0.768,-0.384 -1.728,-0.384 0,-1.728 0.576,-2.112 l -0.864,-0.192 q 0.672,-0.192 0.96,-0.864 0.288,-0.768 0.288,-1.248 0,-0.384 -0.384,-0.384 0,-0.192 0.192,-0.288 0.288,-0.192 0.288,-0.96 l 0.192,-0.096 q 0.192,0 0.768,-0.192 0.192,0 0.48,0.096 0.384,0.096 0.672,0.096 0.384,0 0.576,-0.48 0.288,-0.576 0.288,-0.672 0,-0.096 -0.096,-0.192 -0.096,-0.096 -0.096,-0.192 0.576,0.192 0.768,0.576 0.192,0.288 0.192,0.384 l -0.096,0.288 q 0.576,-0.576 0.864,-0.576 0.672,0 0.672,0.576 v 0.864 l -0.384,0.192 q 0,0.576 0.384,0.576 0.288,0 0.864,-0.576 -0.192,0.384 -0.576,0.96 -0.288,0.48 -0.384,0.48 h -0.288 q -0.384,0.192 -0.768,1.056 -0.288,0.864 -0.384,1.344 v 1.056 q 0.096,0.192 0.192,0.768 0.192,0.576 0.192,0.672 v 0.768 q 0.288,0.192 0.864,0.96 0.672,0.672 1.152,1.248 l 0.288,0.288 q 0,0.096 -0.096,0.576 -0.096,0.384 -0.192,0.48 h 0.096 q 0.096,-0.096 0.192,-0.096 0.384,0 0.768,0.384 0.48,0.384 0.864,0.96 0.384,0.48 0.672,0.96 0.288,0.48 0.48,0.672 v 0.48 q 0.096,-0.096 0.384,-0.192 0.288,-0.192 0.288,-0.288 h 1.632 q 0.288,0.192 0.384,0.576 0.192,0.384 0.576,0.384 0.384,0 0.48,-0.384 v 2.016 q 0.096,-0.096 0.48,-0.384 0.48,-0.288 1.056,-0.576 0.576,-0.288 1.152,-0.48 0.576,-0.288 0.864,-0.288 h 2.592 q 0.288,0.288 0.864,1.44 0.576,1.056 0.672,1.344 v 0.48 q 0,0.192 -0.192,0.672 -0.096,0.384 -0.096,0.576 h -0.768 q 0.096,-0.096 0.096,-0.576 z m 8.16,-42.912 0.576,0.864 q -0.192,0.192 -0.384,0.48 -0.192,0.288 -0.192,0.768 -0.576,0 -1.056,-0.384 l -0.576,-0.384 z m -3.552,22.464 q -0.384,0 -0.384,0.48 0,0.288 0.288,0.288 -0.288,0.288 -0.288,0.384 0,0.48 0.384,0.48 0.288,0 0.288,-0.384 0,-0.192 -0.288,-0.48 0.288,0 0.288,-0.384 z m -13.152,16.416 q -0.192,0 -0.192,0.48 0,0.288 0.096,0.288 -0.096,0.096 -0.096,0.384 0,0.576 0.192,0.576 0.384,0 0.384,-0.384 0,-0.48 -0.384,-0.576 0.384,0 0.384,-0.288 0,-0.48 -0.384,-0.48 z m 18.528,-38.4 q 0.096,0.096 0.192,0.096 h 0.096 l -1.056,1.056 h -0.48 q 0.192,-0.192 0.384,-0.576 0.288,-0.384 0.48,-0.48 z m -2.304,30.144 q -0.384,0 -0.384,0.48 0,0.384 0.384,0.384 0.384,0 0.384,-0.384 0,-0.48 -0.384,-0.48 z m -24.96,-20.736 -0.48,0.384 v -0.864 l 0.192,-0.384 q 0.096,-0.288 0.288,-0.48 z m 13.056,-7.776 q -0.384,0 -0.384,0.48 0,0.384 0.384,0.384 0.288,0 0.288,-0.384 z m -1.92,3.264 q 0.192,0 0.192,0.48 0,0.384 -0.192,0.384 -0.384,0 -0.384,-0.384 0,-0.48 0.384,-0.48 z m -1.92,-2.112 q -0.288,0 -0.288,0.48 0,0.48 0.288,0.48 0.288,0 0.288,-0.48 z m 6.432,-2.688 1.152,-0.864 -0.288,-0.48 z m -18.816,30.624 q 0.384,0 0.384,0.384 0,0.384 -0.384,0.384 -0.288,0 -0.288,-0.384 z m 5.472,-22.176 q -0.384,0 -0.384,0.48 0,0.384 0.384,0.384 0.192,0 0.192,-0.384 z m 10.752,8.256 q -0.384,0 -0.384,0.48 0,0.288 0.384,0.288 0.288,0 0.288,-0.288 z m -13.536,21.12 q 0.384,0 0.384,0.48 0,0.384 -0.384,0.384 -0.192,0 -0.192,-0.384 z m -0.768,-4.8 q -0.288,0 -0.288,0.48 0,0.384 0.288,0.384 0.288,0 0.288,-0.384 z m 15.744,-31.968 q -0.288,0 -0.288,0.48 0,0.384 0.288,0.384 0.288,0 0.288,-0.384 z m -13.44,8.64 q -0.288,0 -0.288,0.48 0,0.384 0.288,0.384 0.288,0 0.288,-0.384 z m 19.584,31.776 q -0.288,0 -0.288,0.48 0,0.384 0.288,0.384 0.288,0 0.288,-0.384 z m 8.16,-12.288 q -0.288,0 -0.288,0.48 0,0.384 0.288,0.384 0.288,0 0.288,-0.384 z m -18.144,-30.816 q -0.192,0 -0.192,0.48 0,0.288 0.192,0.288 0.384,0 0.384,-0.288 0,-0.48 -0.384,-0.48 z m 8.928,41.088 q -0.288,0 -0.288,0.48 0,0.48 0.288,0.48 0.192,0 0.192,-0.48 z m -0.384,-0.768 q -0.384,0 -0.384,0.384 0,0.384 0.384,0.384 0.192,0 0.192,-0.384 z m -5.664,2.496 q -0.384,0 -0.384,0.384 0,0.384 0.384,0.384 0.192,0 0.192,-0.384 z m 3.744,-43.68 q -0.384,0 -0.384,0.48 0,0.384 0.384,0.384 0.096,0 0.096,-0.384 z m 4.992,43.968 q 0,-0.384 0.288,-0.672 0.384,-0.384 0.864,-0.384 z m 4.224,-10.848 q -0.288,0 -0.288,0.384 0,0.384 0.288,0.384 0.288,0 0.288,-0.384 z m -17.28,11.328 q -0.288,0 -0.288,0.384 0,0.384 0.288,0.384 0.288,0 0.288,-0.384 z m 11.424,-1.536 q -0.288,0 -0.288,0.384 0,0.384 0.288,0.384 0.288,0 0.288,-0.384 z m -21.888,-9.792 q -0.288,0 -0.288,0.384 0,0.384 0.288,0.384 0.288,0 0.288,-0.384 z m 15.744,11.328 q -0.288,0 -0.288,0.384 0,0.384 0.288,0.384 0.288,0 0.288,-0.384 z m -1.92,-38.304 q 0.288,0 0.288,0.48 0,0.288 -0.288,0.288 -0.288,0 -0.288,-0.288 z m -6.432,-2.592 q 0.288,0 0.288,0.48 0,0.384 -0.288,0.384 -0.192,0 -0.192,-0.384 z m 9.216,41.28 q -0.288,0 -0.288,0.384 0,0.48 0.288,0.48 0.192,0 0.192,-0.48 z m -1.536,-41.28 q -0.192,0 -0.192,0.48 0,0.384 0.192,0.384 0.288,0 0.288,-0.384 z m -3.552,0.48 q -0.192,0 -0.192,0.48 0,0.384 0.192,0.384 0.288,0 0.288,-0.384 z m -1.728,-2.88 q 0.096,0 0.096,0.48 0,0.288 -0.096,0.288 -0.384,0 -0.384,-0.288 0,-0.48 0.384,-0.48 z m 18.336,23.712 q -0.288,0 -0.288,0.48 0,0.384 0.288,0.384 0.192,0 0.192,-0.384 z m -2.688,6.816 q -0.288,0 -0.288,0.48 0,0.384 0.288,0.384 0.192,0 0.192,-0.384 z m 2.688,3.84 q -0.288,0 -0.288,0.48 0,0.384 0.288,0.384 0.192,0 0.192,-0.384 z m -23.04,-24.576 q -0.288,0 -0.288,0.48 0,0.384 0.288,0.384 0.192,0 0.192,-0.384 z m 4.704,33.504 q -0.384,0 -0.384,0.384 0,0.384 0.384,0.384 0.096,0 0.096,-0.384 z m -10.08,-16.704 q -0.096,0 -0.288,0.192 -0.096,0.192 -0.192,0.288 v 0.672 l 0.288,-0.384 0.192,-0.288 z m 19.872,-28.128 q -0.192,0 -0.192,0.384 0,0.384 0.192,0.384 0.288,0 0.288,-0.384 z m -4.512,44.832 q -0.192,0 -0.192,0.384 0,0.384 0.192,0.384 0.288,0 0.288,-0.384 z m -1.632,-41.952 q -0.192,0 -0.192,0.384 0,0.384 0.192,0.384 0.288,0 0.288,-0.384 z m 9.696,40.704 q 0.288,0 0.288,0.48 0,0.288 -0.288,0.288 -0.192,0 -0.192,-0.288 z m -9.696,-2.4 q 0.288,0 0.288,0.48 0,0.288 -0.288,0.288 -0.192,0 -0.192,-0.288 z m -2.592,-38.304 q -0.288,0 -0.288,0.384 0,0.384 0.288,0.384 0.192,0 0.192,-0.384 z m 17.664,25.248 q -0.288,0 -0.288,0.48 0,0.288 0.288,0.288 0.192,0 0.192,-0.288 z m -11.616,-24.96 q -0.288,0 -0.288,0.48 0,0.288 0.288,0.288 0.192,0 0.192,-0.288 z m 4.224,40.416 q -0.192,0 -0.192,0.48 0,0.288 0.192,0.288 0.288,0 0.288,-0.288 z m -1.536,-2.4 q -0.192,0 -0.192,0.48 0,0.288 0.192,0.288 0.288,0 0.288,-0.288 z m -16.896,-12.288 q -0.192,0 -0.192,0.48 0,0.384 0.192,0.384 0.192,0 0.192,-0.384 z m 11.136,-24.96 q -0.384,0.192 -0.384,0.672 0,0.384 -0.384,0.672 0.192,0 0.48,-0.48 0.288,-0.48 0.288,-0.864 z m 7.68,35.616 q -0.192,0 -0.192,0.48 0,0.288 0.192,0.288 0.192,0 0.192,-0.288 z m -17.664,-22.56 q -0.192,0.192 -0.288,0.192 -0.288,0 -0.48,-0.192 0,-0.192 0.48,-0.192 z m -5.28,14.88 h 0.672 l -0.672,-0.576 z m 4.128,11.04 q 0.192,0 0.192,0.384 0,0.288 -0.192,0.288 -0.192,0 -0.192,-0.288 z m -4.608,-13.536 h -0.768 l 0.768,-0.48 z m 17.376,-28.608 q -0.192,0 -0.192,0.384 0,0.384 0.192,0.384 0.096,0 0.096,-0.384 z m 15.264,32.16 h -0.096 q -0.288,0 -0.288,0.384 0,0.192 0.192,0.192 0.192,0 0.192,-0.576 z m -33.408,-1.632 q 0.192,0 0.192,0.288 0,0.288 -0.192,0.288 -0.192,0 -0.192,-0.288 z m 3.936,-6.048 v 0.096 q 0,0.288 -0.384,0.288 l -0.192,-0.192 q 0,-0.192 0.576,-0.192 z m 12.576,-5.664 -0.096,-0.288 q -0.288,0 -0.288,0.288 0,0.192 0.384,0 z m 1.92,-18.048 q -0.192,0 -0.192,0.288 0,0.192 0.192,0.192 0.192,0 0.192,-0.192 z m -0.96,1.632 q 0,-0.192 -0.288,-0.192 -0.192,0 -0.192,0.192 0,0.192 0.192,0.192 z m 12.48,31.968 h 0.48 v -0.48 z m -11.52,-14.784 -0.672,-0.096 q 0,0.288 0.288,0.288 z m 12.384,6.624 h 0.384 l -0.384,-0.576 z m -15.072,-19.68 -0.096,0.192 q -0.192,0 -0.192,-0.192 0,-0.192 0.288,0 z m -7.68,3.168 h 0.384 v -0.288 z m -4.608,23.808 -0.096,-0.192 q -0.192,0 -0.192,0.192 0,0.096 0.288,0 z m 17.28,-30.624 q 0,-0.192 -0.192,-0.192 -0.096,0.096 0.192,0.192 z m -3.264,1.632 q -0.288,0 -0.288,0.096 v 0.192 z m 8.736,-4.512 0.096,0.096 q -0.096,0.096 -0.384,0.096 z m 14.11193,31.392 q 0.288,-0.192 0.384,-0.384 0.096,-0.192 0.288,-0.192 l 0.384,0.096 q 0.096,-0.192 0.192,-0.864 0.096,-0.672 0.096,-0.96 0,-0.192 -0.096,-1.344 0,-1.248 0,-2.4 0,-1.728 0.48,-3.744 0.576,-2.016 0.576,-4.8 0,-0.48 0.192,-1.248 0.288,-0.864 0.576,-1.728 0.288,-0.96 0.48,-1.728 0.288,-0.864 0.288,-1.44 v -1.152 q 0.192,-0.288 0.288,-0.576 0.192,-0.384 0.384,-0.384 l 0.288,0.096 q 0.48,0 1.152,0.576 0.672,0.576 0.864,1.056 l 1.056,1.344 q 0,0.192 0.096,0.48 0.192,0.288 0.192,0.384 v 1.632 q 0,0.096 -0.192,0.288 -0.096,0.192 -0.096,0.288 l 0.288,0.384 -0.864,0.864 h 1.152 q 0,1.152 -0.288,2.208 -0.288,1.056 -0.288,1.344 v 0.48 l 0.768,-0.48 q 0,0.768 -0.48,1.248 -0.384,0.48 -0.384,0.96 0,0.096 0,0.192 0.096,0.096 0.096,0.192 l 0.768,-0.384 q 0,0.192 -0.288,0.48 -0.192,0.288 -0.192,0.384 v 1.248 q 0,0.096 -0.192,0.288 -0.096,0.192 -0.096,0.288 0,0.096 0.096,0.576 0.192,0.48 0.192,0.672 0,0.48 -0.768,0.48 h -0.096 q 0.384,0.192 0.576,0.864 0.288,0.672 0.288,0.96 v 2.016 q 0,0.192 -0.192,0.384 -0.096,0.096 -0.096,0.192 0,0.096 0.384,0.672 0.384,0.48 0.384,1.056 v 2.688 l -0.48,-0.48 q -0.192,0.096 -0.576,0.384 -0.288,0.288 -0.288,0.48 0,0.096 0.192,0.384 0.288,0.288 0.384,0.48 l 0.288,0.48 v 1.248 q 0,0.096 0.192,0.288 0.288,0.192 0.288,0.288 0,0.192 -0.096,0.288 -0.096,0.096 -0.192,0.288 -0.096,0.192 -0.192,0.288 h 0.48 q 0.096,0 0.288,0.96 0.192,0.96 0.192,1.536 0,0.48 -0.384,0.768 -0.384,0.192 -0.864,0.672 h -0.384 q -0.192,0 -0.288,-0.096 0,0.096 0,0.384 0.096,0.192 0.096,0.384 0,0.192 -0.576,0.576 -0.48,0.384 -0.672,0.384 l -0.384,-0.864 q -0.288,0.384 -0.768,1.056 -0.48,0.576 -0.48,0.768 l -1.344,0.48 q -0.096,0.192 -0.096,0.288 0,0.096 -0.096,0.192 l -0.288,0.384 h -0.864 q 0,-1.056 -0.288,-1.728 -0.192,-0.672 -0.192,-2.304 0,-1.44 0,-2.88 0.096,-1.536 0.096,-1.824 0,-0.192 -0.192,-0.96 -0.096,-0.768 -0.096,-0.864 v -4.896 z m 4.416,-36.096 v -0.48 h -1.152 q 0,-0.288 -0.288,-0.576 -0.288,-0.384 -0.288,-0.768 v -0.384 q -0.096,-0.096 -0.096,-0.192 l -0.288,-0.672 v -0.288 q 0,-0.096 0.096,-0.192 h -0.672 q 0,-0.384 0.096,-0.384 l 0.48,-0.576 v -2.112 q 0,-0.192 0.096,-0.576 0.192,-0.384 0.288,-0.48 0.096,0.096 0.192,0.096 0.192,0 0.288,0.096 h 0.288 l 0.96,-0.96 q 0.576,0.48 0.576,0.672 l -0.192,0.288 q 1.152,0 2.496,1.056 1.344,0.96 1.344,1.536 h 0.576 l 1.632,1.344 q -0.192,0 -0.288,0.192 -0.096,0.192 -0.096,0.288 0.096,0.288 0.288,0.672 0.192,0.288 0.192,0.672 0,1.056 -0.96,1.44 -0.96,0.384 -2.88,0.672 h -0.48 q -0.096,0 -0.48,0.192 -0.384,0.192 -0.48,0.192 v -0.384 l 0.384,-0.384 z m -1.824,46.56 h 2.304 q -0.864,-0.192 -1.152,-0.384 -0.48,-0.288 -0.672,-0.48 h -0.48 z m 4.704,-25.056 q -0.192,0 -0.192,0.576 0,0.384 0.192,0.384 0.48,0 0.48,-0.384 0,-0.576 -0.48,-0.576 z m -6.72,28.128 q 0.288,0 0.288,0.48 0,0.48 -0.288,0.48 -0.384,0 -0.384,-0.48 0,-0.48 0.384,-0.48 z m 5.472,-53.184 q -0.288,0 -0.288,0.48 0,0.384 0.288,0.384 0.48,0 0.48,-0.384 0,-0.48 -0.48,-0.48 z m 1.824,47.904 q -0.48,0 -0.48,0.48 0,0.48 0.48,0.48 0.192,0 0.192,-0.48 z m 0,-7.008 -0.288,0.192 q -0.096,0.096 -0.096,0.384 0,0.768 0.384,0.768 0.096,0 0.096,-0.672 z m 0,9.216 q -0.48,0 -0.48,0.48 0,0.384 0.48,0.384 0.192,0 0.192,-0.384 z m 0,-5.184 q -0.48,0 -0.48,0.48 0,0.384 0.48,0.384 0.192,0 0.192,-0.384 z m -1.248,-11.52 q -0.48,0 -0.48,0.48 0,0.48 0.48,0.48 0.096,0 0.096,-0.48 z m -3.168,14.496 q -0.288,0 -0.288,0.48 0,0.48 0.288,0.48 0.288,0 0.288,-0.48 z m -0.864,-3.84 q -0.192,0 -0.192,0.48 0,0.384 0.192,0.384 0.384,0 0.384,-0.384 0,-0.48 -0.384,-0.48 z m 4.224,-4.896 q -0.192,0 -0.192,0.48 0,0.384 0.192,0.384 0.384,0 0.384,-0.384 0,-0.48 -0.384,-0.48 z m 1.344,4.416 q 0.384,0 0.384,0.48 0,0.384 -0.384,0.384 -0.192,0 -0.192,-0.384 z m -2.496,10.56 q 0.288,0 0.288,0.48 0,0.384 -0.288,0.384 -0.288,0 -0.288,-0.384 z m -0.864,0 q 0.288,0 0.288,0.48 0,0.384 -0.288,0.384 -0.288,0 -0.288,-0.384 z m 3.36,-52.8 q -0.192,0 -0.192,0.384 0,0.48 0.192,0.48 0.288,-0.096 0.288,-0.48 z m -1.344,48.384 h -0.768 l 0.192,0.768 z m 1.824,3.456 h -0.48 v -1.152 z m -6.816,-57.12 q 0.192,0 0.192,0.48 0,0.384 -0.192,0.384 -0.192,0 -0.192,-0.384 z m 1.248,55.968 -0.096,-0.096 q -0.48,0 -0.48,0.288 l 0.192,0.192 q 0.48,0 0.384,-0.384 z m 5.568,-49.44 q -0.192,0 -0.192,0.192 0,0.288 0.192,0.288 0.096,0 0.096,-0.192 z m -1.344,51.552 q 0.192,0 0.192,0.192 0,0.288 -0.192,0.288 -0.096,0 0,-0.48 z m 0.096,-51.072 v -0.096 q 0,-0.096 -0.192,-0.096 l -0.096,0.288 z m 24.19202,30.432 q 0.384,0 0.384,0.672 0,0.288 -0.192,0.288 -0.384,0 -0.384,-0.672 v -0.192 l -0.384,0.384 -0.48,-0.384 q -0.384,-0.384 -0.384,-0.576 0,-0.096 0.096,-0.192 0.096,-0.096 0.096,-0.192 l -1.92,0.288 -0.096,-0.384 h -1.056 l -0.192,0.48 q 0,0.096 -0.384,0.096 l -0.192,-0.96 -0.576,0.672 q -0.192,-0.384 -0.864,-1.056 -0.576,-0.672 -0.768,-0.864 l -0.576,0.096 h -0.096 l 0.576,1.056 h -0.672 q -0.672,0 -0.768,0.576 l 0.192,0.48 q 0,0.096 0.192,0.48 0.192,0.288 0.288,0.384 0,2.592 0.768,4.32 0.864,1.632 0.864,2.496 v 0.48 q 0.192,0.192 0.768,0.48 0.576,0.288 1.056,0.288 -0.096,0.192 -0.288,0.576 -0.096,0.288 -0.096,0.384 v 0.576 q 0.096,0.096 0.384,0.192 0.384,0.096 0.384,0.192 v 0.576 q 0.288,0 0.384,0.768 0.192,0.672 0.192,0.864 0.192,0 0.48,-0.192 0.288,-0.192 0.48,-0.192 0.576,0.288 1.536,1.344 0.96,0.96 1.344,1.344 h 0.576 q 0.576,0 0.768,-1.056 0.096,0.384 0.48,0.384 0.384,0 0.672,0.288 v 0.384 l 0.768,0.48 q 0.192,0 1.344,0.288 1.152,0.192 1.536,0.192 l 0.192,0.288 q 0.096,0.288 0.192,0.288 l 0.576,-0.576 q 0.192,0 0.576,0.192 0.384,0.096 0.576,0.192 l 0.288,-0.096 h 0.288 q 0.384,-0.192 0.48,-0.384 0.192,-0.192 0.384,-0.192 0.384,0 0.864,0.096 0.576,0 0.768,0.192 l 0.288,0.384 q 0.288,-0.096 0.96,-0.288 0.768,-0.192 1.536,-0.48 0.864,-0.288 1.44,-0.48 0.672,-0.192 0.768,-0.288 0.096,0.192 0.672,0.48 0.576,0.192 0.864,0.192 h 0.768 q 0.192,0 0.48,-0.096 0.384,-0.096 0.48,-0.096 l 0.192,-0.48 h 0.288 l -1.344,2.688 q 0,-0.576 -0.384,-0.576 -0.192,0 -0.192,0.384 0,0.384 0.192,0.576 l -0.768,0.192 q 0,0.096 0.192,0.384 0.192,0.288 0.192,0.48 0,0.288 -0.288,0.576 h 0.096 q 0.288,0 0.288,0.48 0,0.48 -0.192,0.48 -0.384,0 -0.384,-0.576 l 0.096,-0.192 q -0.384,0.384 -0.48,0.384 l -0.384,-0.192 q -0.384,-0.096 -0.384,-0.288 l -0.288,0.096 q -0.096,0 -0.288,-0.288 -0.192,-0.384 -0.192,-0.576 l -0.48,0.48 v -0.288 q 0,-0.576 -0.288,-0.576 -0.192,0 -0.192,0.384 0,0.576 0.288,0.576 l -0.576,0.576 -0.384,-0.48 -0.192,0.96 q -0.096,-0.096 -0.576,-0.096 -0.384,-0.096 -0.768,-0.096 -0.576,0 -0.576,0.96 h -0.192 q -0.096,0.096 -0.192,0.096 l 0.288,-0.576 q -0.288,0.192 -1.152,0.288 -0.768,0.096 -0.96,0.096 -0.096,0 -0.768,-0.384 -0.576,-0.48 -0.768,-0.48 h -0.48 q -0.192,0 -1.152,0.48 -0.864,0.384 -1.248,0.384 l -0.096,-0.672 q -0.192,0.096 -0.864,0.288 -0.672,0.192 -0.96,0.192 -0.576,0 -1.152,-0.288 -0.48,-0.384 -1.056,-0.384 l -0.576,-0.192 q -0.576,-0.192 -0.48,-0.192 -0.096,0 -0.288,0.192 -0.096,0.096 -0.288,0.192 v -0.288 l -0.768,-0.48 q -0.288,-0.096 -1.056,-0.384 -0.672,-0.288 -0.864,-0.384 l -0.288,0.096 -2.304,-1.152 q -0.192,0 -0.384,-0.48 -0.192,-0.48 -0.192,-0.864 -0.192,0.576 -0.192,0.48 h -0.384 l -0.768,-0.384 -0.288,-2.496 -0.864,1.728 -1.632,-1.824 0.192,-0.48 h -0.576 l -0.672,-0.768 q -0.672,-0.672 -0.672,-1.056 l -1.056,-2.784 -0.576,-1.056 -0.096,-0.384 q 0.096,-0.096 0.096,-0.384 0.096,-0.288 0.192,-0.48 -0.192,0 -0.48,-0.672 -0.192,-0.672 -0.192,-1.152 0,-0.288 0.192,-0.288 h 0.192 l -0.48,-0.48 q 0.384,-0.192 0.48,-0.768 0.096,-0.576 0.096,-0.48 l -0.48,-0.768 q 0,-0.096 -0.096,-0.288 0,-0.192 0,-0.288 l 0.288,-0.096 0.096,-0.288 -0.672,-0.96 0.384,-0.096 -0.096,-1.152 q 0.288,0 0.384,-0.192 0.192,-0.288 0.576,-0.672 h -0.096 q -0.288,0 -0.288,-0.48 0,-0.288 0.096,-0.384 h -0.192 q 0,-0.384 0.192,-0.768 0.288,-0.384 0.288,-1.152 v -1.248 q 0,-0.864 -0.096,-0.96 l 0.576,-0.096 v -0.288 q 0,-0.096 0.096,-0.192 -0.384,0 -0.48,-0.48 0,-0.48 -0.192,-0.864 l 0.288,-1.056 q 0,-0.096 0.096,-0.288 0.096,-0.288 0.192,-0.288 l 0.096,0.864 h 0.48 q 0,-0.096 -0.096,-0.192 -0.096,-0.096 -0.096,-0.192 0,-0.192 0.192,-0.768 0.288,-0.672 0.288,-0.768 v -0.096 q 0,-0.576 -0.48,-0.864 0.48,0 0.864,-0.096 0.384,-0.096 0.384,-0.576 l 0.48,-1.92 q 0.288,0 0.288,-0.288 0.096,-0.384 0.288,-0.768 v 0.576 q 0,0.48 0.192,0.672 0,0.192 -0.096,0.864 0,0.576 -0.096,0.768 l 0.384,-0.096 q 0.192,-0.192 0.384,-0.576 0.192,-0.384 0.192,-0.48 0,-0.192 -0.192,-0.768 -0.096,-0.576 -0.096,-0.672 0,-0.576 0.48,-0.864 0.48,-0.384 1.632,-1.536 h 0.288 q 0.096,0 0.288,-0.192 l 0.384,-0.384 v 0.384 l 0.288,0.096 0.672,-1.056 -0.576,0.096 q 0,-0.384 0.192,-0.576 l 0.96,-2.112 0.864,0.96 q 0,-0.384 0.288,-0.672 0.384,-0.288 0.576,-0.48 0.096,0 0.192,0.096 l 0.192,0.192 q 0,-0.384 0.192,-0.96 h 1.056 q 0,-0.864 1.92,-1.344 l 0.48,-0.096 q 0.192,0 0.576,0.48 0.384,0.384 0.48,0.384 h 0.384 q 0.096,0 0.192,-0.096 0,-0.096 -0.192,-0.384 -0.192,-0.288 -0.192,-0.384 0,-0.192 0.384,-0.48 0.384,-0.288 0.576,-0.288 0.096,0.096 0.288,0.288 0.192,0.096 0.384,0.384 l 0.768,0.672 -0.288,-1.536 1.152,0.864 -0.096,-1.44 q 0.096,0.096 0.288,0.288 0.192,0.096 0.192,0.192 l 0.864,1.344 h 0.384 q 0.096,-0.096 0.384,-0.192 0.288,-0.096 0.576,-0.384 0,0.768 0.192,1.056 0.288,0.288 0.768,0.768 0.48,0 0.672,-0.576 0,0.384 0.096,0.48 v 0.48 q 0,0.192 -0.192,0.288 -0.096,0 -0.096,0.192 0.096,0.192 0.192,0.576 0.192,0.384 0.384,0.384 0,-0.288 0.288,-1.248 0.288,-0.96 1.44,-0.96 0.096,0 0.384,0.096 0.288,0.096 0.288,0.288 h 0.192 q 0.096,0 0.192,-0.096 0.192,0.288 0.384,0.864 0.192,0.48 0.864,0.48 0.288,0 0.576,-0.48 0,0.672 0.192,1.728 0.192,1.056 0.672,1.056 h 0.096 l -0.192,-1.44 q 0.096,0.096 0.288,0.48 0.192,0.288 0.384,0.384 0.096,0 0.384,0.48 0.288,0.384 0.768,2.592 0,-0.672 0.192,-0.768 0.288,-0.192 0.288,-0.576 l 0.096,-0.096 q 0.192,0 0.384,0.384 0.288,0.384 0.288,0.672 0,0.192 -0.096,0.768 0,0.576 0,0.672 l 0.384,0.576 q 0.096,0.192 0.192,0.96 0.096,0.672 0.096,0.96 l 0.288,-0.576 q 0.096,-0.096 0.096,-0.48 v -0.576 l 0.192,0.288 v 1.44 q 0,0.672 -0.096,0.768 v 0.192 q 0,0.96 -0.48,1.44 v 0.192 q 0,0.192 0.096,0.192 l -1.344,2.784 0.384,0.384 -0.768,1.536 -0.48,1.536 -0.384,-0.384 q -0.192,-0.096 -0.48,-0.192 -0.192,-0.192 -0.288,-0.192 -0.288,0.864 -0.384,1.824 0,0.96 -0.576,1.248 -0.192,-0.192 -0.192,-0.384 0.096,-0.288 0,-0.576 0.096,-0.192 0.096,-0.768 0,-0.576 0.192,-0.768 h -0.384 q -0.288,0.48 -0.576,0.672 -0.288,0.192 -0.288,0.96 l 0.48,-0.096 v 0.192 q -0.096,0.288 -0.48,1.152 -0.288,0.768 -1.728,0.768 l -0.096,-0.48 q -0.096,0 -0.288,0 -0.192,-0.096 -0.384,-0.096 -0.192,0 -0.384,0.48 -0.192,0.48 -0.384,0.48 -0.192,0 -0.48,-0.096 -0.288,-0.192 -0.48,-0.192 -0.288,0.288 -0.288,0.96 l -0.384,-0.384 q -0.192,0 -0.384,0.096 -0.192,0 -0.288,0 l -0.672,-0.384 q -0.096,0 -0.192,0.096 -0.096,0 -0.288,0 -0.384,0 -0.576,-0.192 -0.192,-0.192 -0.672,-0.576 0.192,0.192 0.192,0.384 h 0.096 q 0.288,0 0.288,0.672 0,0.288 -0.192,0.288 -0.288,0 -0.288,-0.48 h -0.096 q -0.288,0 -0.288,-0.672 0,-0.384 0.192,-0.384 h 0.096 l -1.344,-0.768 h -0.288 q -0.096,0 -0.192,0.288 0,0.288 -0.096,0.384 l 0.096,0.288 v 0.096 l 0.576,-0.48 -0.384,1.92 q -0.096,-0.096 -0.384,-0.384 -0.288,-0.384 -0.48,-0.48 l -0.768,0.096 h -0.192 l -0.672,0.672 -0.192,-1.536 q -0.288,0.288 -0.384,0.48 0,0.192 -0.864,0.768 z m 6.336,-7.392 q 0.288,0 0.288,0.672 l -0.096,0.288 h 1.632 l -0.48,1.92 h 0.192 q 0.192,0 0.288,-0.288 0.192,-0.384 0.288,-0.768 0.096,-0.384 0.096,-0.672 0.096,-0.384 0.288,-0.384 l 0.288,-0.096 q 0.384,-0.192 0.672,-0.672 0.384,-0.48 0.768,-0.96 0.384,-0.576 0.768,-1.056 0.384,-0.48 0.864,-0.576 l 0.288,0.288 q 0.096,0.096 0.384,0.096 l 0.576,-0.192 q -0.768,0 -0.768,-0.864 v -0.48 q 0,-0.384 0.096,-1.152 0.192,-0.768 0.192,-0.96 l 0.768,-0.096 q -0.192,0.576 -0.192,1.056 0.096,0.096 0.192,0.288 0.096,0.192 0.192,0.192 0.096,-0.096 0.096,-0.48 0.096,-0.384 0.096,-0.576 v -0.576 q 0,-0.288 -0.384,-0.672 -0.288,-0.384 -0.48,-0.576 0,-0.192 0.192,-0.672 0.288,-0.48 0.288,-0.864 0,-0.48 -0.192,-0.672 -0.192,-0.192 -0.384,-0.192 -0.192,-0.096 -0.48,-0.192 -0.192,-0.096 -0.288,-0.384 h -0.288 v -0.384 q 0,-0.384 0.096,-0.48 -0.096,0.096 -0.288,0.096 h -0.384 q -0.288,0 -0.768,-0.096 -0.48,-0.192 -1.056,-0.384 -0.576,-0.288 -1.056,-0.384 -0.48,-0.192 -0.672,-0.192 l -0.384,0.096 -0.096,-1.056 q 0,0.384 -0.96,0.672 -0.96,0.288 -1.728,0.288 l -0.288,-0.192 q -0.384,-0.096 -0.384,-0.384 l -0.384,-0.288 h -0.768 q -0.096,0 -0.288,0.096 -0.096,0 -0.288,0 l 0.96,0.288 v 0.192 q 0,0.192 -0.384,0.384 -0.288,0.096 -0.48,0.096 -0.384,0 -0.576,-0.672 -0.192,-0.672 -0.192,-1.248 l -0.576,0.096 0.288,2.208 q -0.096,0 -0.384,0 -0.288,-0.096 -0.48,-0.096 -0.192,0 -0.48,0.288 -0.192,0.192 -0.288,0.192 h -0.384 v -0.288 q -0.288,-0.384 -0.384,-0.672 -0.096,-0.384 -0.576,-0.384 -0.192,0.192 -0.384,0.576 -0.192,0.288 -0.576,0.288 0.096,0.192 0.192,0.48 0.096,0.288 0.384,0.288 l 0.096,0.48 q -1.44,1.44 -2.784,2.688 -1.344,1.248 -1.536,1.44 0,0.384 -0.384,1.536 -0.384,1.152 -1.152,2.112 l 0.096,0.48 q 0,0.864 -0.576,1.632 -0.48,0.672 -0.48,2.976 v 0.672 q 0,0.576 0.192,0.768 l 0.576,-1.056 q 0.192,-0.288 0.192,-1.056 0.096,-0.864 0.288,-1.056 0,0.576 0.384,0.576 0.096,0 0.096,-0.288 0,-0.672 -0.288,-0.672 0,-0.48 0.096,-0.96 0.192,-0.576 0.288,-0.576 0.576,0.288 1.536,0.672 0.96,0.288 1.44,0.576 l 0.384,0.192 q 0.48,0.48 1.44,0.672 1.056,0.096 2.688,0.864 h 0.288 q 0.096,0 0.192,0 0.096,-0.096 0.192,-0.096 0.096,0 0.48,0.192 0.48,0.192 0.672,0.192 0.864,-0.48 2.112,-0.768 1.344,-0.288 1.632,-0.384 -0.192,-0.192 -0.192,-0.48 0,-0.288 0.288,-0.48 z m 6.144,2.208 q -0.192,0 -0.192,0.384 0,0.576 0.384,0.576 -0.096,0.192 -0.48,0.384 -0.384,0.192 -0.576,0.192 0.384,0.384 0.576,0.768 0.192,0.384 0.48,1.248 0,-0.768 0.384,-1.536 0.48,-0.864 0.48,-1.632 v -0.672 l -0.288,0.192 -0.48,0.864 v -0.192 z m 7.68,21.408 v 0.096 q 0,0.192 0.096,0.192 v 0.192 q 0,0.096 -0.192,0.288 -0.096,0.192 -0.096,0.672 0,0.192 0.096,0.576 0.192,0.288 0.192,0.48 l 0.192,-0.096 0.096,0.48 -1.056,0.192 q 0,-0.096 -0.096,-0.288 0,-0.288 0,-0.48 v -0.576 q 0,-0.96 0.768,-1.728 z m -29.376,-29.952 q -0.288,0.192 -0.288,0.48 0,0.48 0.192,0.48 0.48,0 0.48,-0.672 0,-0.288 -0.384,-0.288 z m 25.92,-0.48 q -0.192,0 -0.192,0.384 0,0.672 0.384,0.672 0.192,0 0.192,-0.384 0,-0.672 -0.384,-0.672 z m -0.768,6.624 0.192,0.192 0.288,0.192 -0.192,-1.056 -0.672,0.096 0.096,0.48 z m -1.248,-8.448 q -0.192,0.192 -0.192,0.48 0,0.576 0.288,0.576 0.288,0 0.288,-0.384 0,-0.672 -0.384,-0.672 z m -1.344,4.8 q -0.192,0 -0.192,0.288 0,0.192 0.096,0.48 0.096,0.288 0.288,0.288 0.192,0 0.192,-0.384 0,-0.672 -0.384,-0.672 z m -13.056,25.056 q 0.384,0 0.384,0.672 0,0.384 -0.192,0.384 -0.384,0 -0.384,-0.672 z m -0.768,-19.776 q -0.192,0 -0.192,0.384 0,0.576 0.288,0.576 0.288,0 0.288,-0.384 0,-0.576 -0.384,-0.576 z m -9.6,-6.144 q -0.192,0 -0.192,0.384 0,0.576 0.288,0.576 0.288,0 0.288,-0.384 0,-0.576 -0.384,-0.576 z m 16.992,9.696 q -0.192,0 -0.192,0.288 0,0.672 0.384,0.672 0.192,0 0.192,-0.384 0,-0.576 -0.384,-0.576 z m 9.888,-18.336 q 0.384,0 0.384,0.672 0,0.384 -0.192,0.384 -0.384,0 -0.384,-0.576 z m -22.272,4.512 q -0.192,0 -0.192,0.384 0,0.576 0.288,0.576 0.288,0 0.288,-0.288 0,-0.672 -0.384,-0.672 z m -8.832,8.64 q 0.384,0 0.384,0.672 0,0.384 -0.192,0.384 -0.192,0 -0.288,-0.288 -0.096,-0.288 -0.096,-0.48 z m 28.224,-13.728 q -0.192,0.192 -0.192,0.384 0,0.576 0.288,0.576 0.288,0 0.288,-0.288 0,-0.672 -0.384,-0.672 z m -0.192,12.96 q -0.192,0.192 -0.192,0.384 0,0.576 0.288,0.576 0.288,0 0.288,-0.288 0,-0.672 -0.384,-0.672 z m -18.432,25.344 q -0.288,0.192 -0.288,0.576 0,0.48 0.288,0.48 0.288,0 0.288,-0.576 z m 23.808,-34.464 q 0.288,0 0.288,0.384 0,0.576 -0.288,0.576 -0.288,0 -0.288,-0.48 z m -27.648,33.024 q 0.384,0 0.384,0.672 0,0.288 -0.192,0.288 -0.384,0 -0.384,-0.576 z m 29.568,2.496 q 0.192,0 0.288,0.288 0.096,0.288 0.096,0.48 0,0.192 -0.096,0.192 -0.48,0 -0.48,-0.672 z m -29.76,-4.512 q -0.288,0 -0.288,0.48 0,0.48 0.288,0.48 0.288,0 0.288,-0.384 z m 4.416,-36.48 q 0.288,0 0.288,0.576 0,0.48 -0.192,0.48 -0.288,0 -0.288,-0.576 z m -2.784,2.016 q 0.288,0 0.288,0.576 0,0.288 -0.192,0.288 -0.384,0 -0.384,-0.384 0,-0.288 0.288,-0.48 z m 17.28,18.624 q -0.288,0 -0.288,0.384 0,0.576 0.384,0.576 0.192,0 0.192,-0.384 z m -4.512,-18.912 q -0.288,0.192 -0.288,0.48 0,0.48 0.288,0.48 0.288,0 0.288,-0.384 z m 9.696,40.608 q 0.384,0 0.384,0.576 0,0.288 -0.192,0.288 -0.384,0 -0.384,-0.576 z m -16.704,-5.28 q -0.288,0.192 -0.288,0.48 0,0.48 0.384,0.48 0.192,0 0.192,-0.384 z m -0.096,-33.888 q 0.192,0 0.192,0.288 0.096,0.288 0.096,0.48 0,0.288 -0.096,0.288 -0.384,0 -0.384,-0.576 z m 12.096,-3.072 q -0.192,0 -0.192,0.384 0,0.672 0.288,0.672 0.192,0 0.192,-0.48 z m -21.888,12 q -0.288,0 -0.288,0.384 0,0.48 0.288,0.48 0.288,0 0.288,-0.384 z m 1.824,24.48 q -0.192,0 -0.192,0.48 0,0.576 0.288,0.576 0.192,0 0.192,-0.48 z m 19.68,-31.968 q 0.288,0 0.288,0.576 0,0.384 -0.192,0.384 -0.288,0 -0.288,-0.576 z m 5.856,7.2 q -0.192,0.192 -0.192,0.48 0,0.576 0.288,0.576 0.192,0 0.192,-0.48 z m 1.536,-1.728 q -0.192,0.192 -0.192,0.48 0,0.576 0.192,0.576 0.288,0 0.288,-0.384 z m -8.832,-7.776 q -0.192,0.192 -0.192,0.384 0,0.672 0.384,0.672 0.096,0 0.096,-0.384 z m 0.384,17.472 q 0,0.384 -0.096,0.48 0,0.48 0.384,0.48 0.096,0 0.096,-0.288 0,-0.768 -0.384,-0.672 z m -22.368,10.368 q -0.192,0 -0.192,0.384 0,0.576 0.288,0.576 0.192,0 0.192,-0.384 z m 1.632,-19.68 q -0.192,0 -0.192,0.288 0,0.672 0.384,0.672 0.096,0 0.096,-0.288 z m -1.44,13.632 q -0.192,0.192 -0.192,0.384 0,0.576 0.192,0.576 0.288,0 0.288,-0.384 z m 16.224,-24.48 q -0.192,0.192 -0.192,0.48 0,0.48 0.192,0.48 0.288,0 0.288,-0.384 z m 5.664,19.584 q -0.192,0 -0.192,0.384 0,0.672 0.288,0.672 h 0.096 q -0.096,-0.096 -0.096,-0.192 0,-0.096 0.192,-0.288 z m -13.728,-17.472 q -0.192,0 -0.192,0.384 0,0.48 0.288,0.48 0.192,0 0.192,-0.384 z m 4.32,19.872 q -0.192,0 -0.192,0.288 0,0.576 0.288,0.576 0.192,0 0.192,-0.384 z m -13.248,7.104 q 0,0.192 0,0.288 0.096,0.096 0.096,0.192 h 0.288 l 0.192,-0.576 z m -0.288,-11.424 q 0.192,0.192 0.192,0.672 0,0.288 -0.096,0.288 -0.096,0 -0.192,-0.288 0,-0.288 0.096,-0.672 z m 0.48,5.376 q -0.192,0 -0.192,0.192 0,0.384 0.192,0.384 0.192,0 0.192,-0.288 z m 28.32,-13.152 h 0.288 l -0.096,-0.48 h -0.288 z m -22.176,16.896 q 0.192,0 0.192,0.192 0,0.288 -0.192,0.288 -0.192,0 0,-0.48 z m 24.288,14.592 v 0.672 q 0,0.288 0.096,0.384 0.096,-0.096 0.096,-0.48 z m -24,-2.688 -0.192,0.096 q 0,0.384 0.288,0.384 0.096,0 0.096,-0.192 z m 19.776,-21.6 q -0.096,0 -0.096,0.192 0,0.384 0.192,0.384 0.096,0 0.096,-0.192 z m -4.8,-16.128 q -0.192,0 -0.192,0.096 0,0.288 0.192,0.288 0.192,0 0,-0.384 z m -11.52,-1.056 q 0.096,0.096 0.096,0.288 0,0.192 -0.096,0.192 -0.192,0 0,-0.48 z m 0.096,3.456 q -0.096,0 -0.096,0.192 0,0.288 0.096,0.288 0.192,0 0.192,-0.192 z m -9.408,18.624 q 0,-0.096 -0.192,-0.096 -0.192,0 -0.192,0.192 l 0.192,0.192 z m 26.496,-18.336 h -0.096 q -0.096,0.096 -0.096,0.192 l 0.096,0.192 q 0.192,0 0.096,-0.384 z m -10.368,-4.224 -0.096,-0.48 -0.288,0.096 z m -16.512,21.408 0.192,-0.384 -0.384,-0.192 q 0.192,0.192 0.192,0.576 z m 27.744,-13.44 q 0,-0.096 -0.192,-0.096 l -0.096,0.096 q 0,0.192 0.096,0.192 l 0.096,0.096 z m -0.096,-3.072 -0.096,-0.288 -0.096,0.672 0.096,-0.096 z m -15.936,16.8 q -0.192,0 -0.192,0.192 l 0.096,0.192 q 0.192,0 0.096,-0.384 z m -5.568,-4.8 q -0.192,0.192 -0.192,0.384 z m 33.02394,19.584 q 0,-0.096 0.192,-0.384 0.192,-0.384 0.192,-0.48 v -0.384 q 0.096,-0.096 0.192,-0.384 0.192,-0.288 0.192,-0.384 v -1.728 q 0,-0.384 -0.384,-0.384 v -2.88 l 0.384,-0.768 h -0.576 q 0,-0.288 0.288,-0.576 0.288,-0.384 0.288,-0.672 0,-0.096 -0.192,-0.192 -0.192,-0.192 -0.192,-0.288 0,-0.096 0.192,-0.768 0.192,-0.672 0.192,-0.864 0,-0.192 -0.288,-0.288 -0.288,-0.192 -0.48,-0.192 l -0.288,0.096 q 0,-0.48 0.48,-0.768 0.576,-0.288 0.576,-0.864 v -0.48 q 0,-0.192 0.384,-0.48 0.384,-0.288 0.384,-0.384 0,-0.288 -0.192,-0.672 -0.096,-0.384 -0.096,-0.48 v -0.384 q 0,-0.192 0.288,-0.48 l -0.288,-0.384 v -10.656 q 0,-0.48 0.096,-1.152 0.192,-0.768 0.192,-1.152 0,-0.768 -0.096,-1.92 0,-1.248 0,-1.632 -0.192,0 -0.288,0.096 -0.096,0 -0.288,0 -0.192,0 -0.192,-0.096 0,-0.192 -0.288,-0.384 v -0.384 q 0.096,0 0.384,-0.384 0.384,-0.384 0.48,-0.384 v -0.48 q 0,-0.384 0.576,-0.384 l 0.096,0.096 q 0,-0.192 0.192,-0.864 0.192,-0.672 0.192,-0.768 v -0.576 q 0,-0.096 0.096,-0.768 0.096,-0.672 0.096,-1.44 0.096,-0.768 0.192,-1.44 0.096,-0.672 0.096,-0.864 v -1.632 q 0,-0.096 0.192,-0.384 0.192,-0.384 0.192,-0.48 -0.096,0 -0.192,-0.096 l -0.192,-0.192 q 0,-0.192 0.192,-0.672 0.192,-0.48 0.192,-0.672 v -1.632 q 0,-1.056 0.096,-2.4 0.192,-1.344 0.576,-1.344 h 1.632 q 0.48,0.384 1.056,0.864 0.576,0.48 0.576,0.864 v 8.64 l 0.288,0.384 -0.288,0.48 v 6.912 q -0.48,0.192 -0.768,0.672 -0.192,0.48 -0.192,0.576 0,0.576 0.288,1.152 0.288,0.576 0.288,2.688 0,0.192 -0.096,0.768 -0.096,0.576 -0.096,0.768 l -0.192,0.384 q 0.192,0 0.288,1.056 0.192,0.96 0.192,1.44 h -0.384 q 0,0.096 -0.096,0.384 0,0.192 0,0.384 0,0.192 0.096,0.288 0.096,0.096 0.096,0.192 l -0.096,3.264 q 0,0.096 -0.096,0.192 0,0.096 0,0.192 0,0.096 0.096,0.288 0.096,0.096 0.096,0.192 v 0.384 q 0,0.192 0.192,0.48 0.288,0.192 0.384,0.384 v 5.28 q -0.096,0.096 -0.384,0.48 -0.192,0.288 -0.192,0.384 0,0.096 0.288,0.384 0.288,0.288 0.288,0.48 v 0.384 q 0,0.192 -0.288,0.864 -0.288,0.672 -0.288,0.768 0,0.096 0.288,0.864 0.288,0.672 0.288,0.768 v 1.248 q 0,0.384 0.672,0.384 h 0.096 q -0.48,0.192 -0.96,0.768 -0.48,0.48 -0.96,0.48 l -0.48,-0.096 v 0.48 h 1.056 q 0.192,0 0.384,1.056 0.192,0.96 0.192,1.44 v 7.872 l -0.192,0.192 -0.576,0.192 q -0.384,-0.096 -0.384,-0.288 -0.672,0.48 -0.864,1.152 -0.192,0.672 -0.48,0.672 h -1.728 q 0,-0.48 -0.096,-0.768 l -0.48,-1.632 q -0.096,0 -0.384,0.096 -0.192,0 -0.384,0 -0.384,0 -0.768,-1.056 -0.384,-1.152 -0.384,-1.92 v -1.344 q 0,-0.48 -0.192,-0.96 -0.192,-0.48 -0.192,-0.96 z m 4.032,2.4 q -0.288,0 -0.768,0.288 -0.48,0.288 -0.48,1.056 h 0.384 q 0,-0.384 0.768,-0.48 0.768,-0.096 1.152,-0.096 v -0.288 q -0.288,-0.192 -0.48,-0.288 -0.096,-0.192 -0.576,-0.192 z m 0.576,3.36 q 0,0.384 -0.288,0.384 v 0.48 l 0.96,-0.48 q 0.096,0 0.192,0 0.096,-0.096 0.192,-0.096 0,-0.864 -0.576,-1.056 z m 1.152,-3.264 q 0.192,0.288 0.096,0.672 0,0.384 0.48,0.576 v -1.248 z m -2.4,-5.376 q -0.192,0 -0.192,0.48 0,0.384 0.192,0.384 0.48,0 0.48,-0.384 0,-0.48 -0.48,-0.48 z m 1.248,-4.128 q -0.288,0 -0.288,0.48 0,0.384 0.288,0.384 0.384,0 0.384,-0.384 0,-0.48 -0.384,-0.48 z m -1.248,10.752 q -0.192,0 -0.192,0.384 0,0.384 0.192,0.384 0.48,0 0.48,-0.384 0,-0.384 -0.48,-0.384 z m 4.8,-15.264 q 0.384,0 0.384,0.48 0,0.384 -0.384,0.384 -0.288,0 -0.288,-0.384 z m -7.392,6.624 q -0.288,0 -0.288,0.384 0,0.384 0.288,0.384 0.384,0 0.384,-0.384 0,-0.384 -0.384,-0.384 z m 0,-2.496 q -0.288,0 -0.288,0.384 0,0.384 0.288,0.384 0.384,0 0.384,-0.384 0,-0.384 -0.384,-0.384 z m 3.84,14.4 q -0.288,0 -0.288,0.384 0,0.384 0.288,0.384 0.384,0 0.384,-0.384 0,-0.384 -0.384,-0.384 z m -5.472,-0.384 q 0.48,0 0.48,0.384 0,0.384 -0.48,0.384 -0.192,0 -0.192,-0.384 z m 2.4,0.384 q 0.288,0 0.288,0.384 0,0.384 -0.288,0.384 -0.288,0 -0.288,-0.384 z m 0.384,0.768 q 0.192,0.192 0.192,0.672 0,0.576 -0.288,0.576 l -0.096,-0.576 z m 4.416,-9.888 q -0.192,0 -0.576,0.192 -0.288,0.096 -0.288,0.288 h 0.864 z m -4.416,-20.448 q -0.192,0 -0.192,0.48 0,0.384 0.192,0.384 0.288,0 0.288,-0.384 z m 3.552,30.336 q 0.288,0 0.288,0.384 0,0.384 -0.288,0.384 -0.192,0 -0.192,-0.384 z m -3.552,-42.72 q -0.192,0 -0.192,0.384 0,0.384 0.192,0.384 0.288,0 0.288,-0.384 z m 4.416,39.936 q -0.288,0 -0.288,0.384 0,0.384 0.288,0.384 0.096,0 0.096,-0.384 z m -2.016,0 -0.096,-0.096 q -0.384,0 -0.384,0.384 0.096,0.096 0.192,0.096 0.288,0 0.288,-0.384 z m 0.288,-10.368 h 0.864 l -0.864,-0.384 z m 1.92,11.52 q -0.096,0 -0.096,0.192 0,0.288 0.096,0.288 0.192,0 0.192,-0.192 z m -4.224,-52.992 q 0,0.192 -0.192,0.192 l -0.192,-0.192 z m -4.32,54.24 h -0.384 l 0.384,-0.384 z m 3.552,-3.264 -0.096,-0.096 q -0.192,0 -0.192,0.096 v 0.192 z m 4.992,3.648 -0.096,0.192 q -0.096,-0.096 0.096,-0.192 z m 21.79199,-20.352 q 0.384,0 0.384,0.672 0,0.288 -0.192,0.288 -0.384,0 -0.384,-0.672 v -0.192 l -0.384,0.384 -0.48,-0.384 q -0.384,-0.384 -0.384,-0.576 0,-0.096 0.096,-0.192 0.096,-0.096 0.096,-0.192 l -1.92,0.288 -0.096,-0.384 h -1.056 l -0.192,0.48 q 0,0.096 -0.384,0.096 l -0.192,-0.96 -0.576,0.672 q -0.192,-0.384 -0.864,-1.056 -0.576,-0.672 -0.768,-0.864 l -0.576,0.096 h -0.096 l 0.576,1.056 h -0.672 q -0.672,0 -0.768,0.576 l 0.192,0.48 q 0,0.096 0.192,0.48 0.192,0.288 0.288,0.384 0,2.592 0.768,4.32 0.864,1.632 0.864,2.496 v 0.48 q 0.192,0.192 0.768,0.48 0.576,0.288 1.056,0.288 -0.096,0.192 -0.288,0.576 -0.096,0.288 -0.096,0.384 v 0.576 q 0.096,0.096 0.384,0.192 0.384,0.096 0.384,0.192 v 0.576 q 0.288,0 0.384,0.768 0.192,0.672 0.192,0.864 0.192,0 0.48,-0.192 0.288,-0.192 0.48,-0.192 0.576,0.288 1.536,1.344 0.96,0.96 1.344,1.344 h 0.576 q 0.576,0 0.768,-1.056 0.096,0.384 0.48,0.384 0.384,0 0.672,0.288 v 0.384 l 0.768,0.48 q 0.192,0 1.344,0.288 1.152,0.192 1.536,0.192 l 0.192,0.288 q 0.096,0.288 0.192,0.288 l 0.576,-0.576 q 0.192,0 0.576,0.192 0.384,0.096 0.576,0.192 l 0.288,-0.096 h 0.288 q 0.384,-0.192 0.48,-0.384 0.192,-0.192 0.384,-0.192 0.384,0 0.864,0.096 0.576,0 0.768,0.192 l 0.288,0.384 q 0.288,-0.096 0.96,-0.288 0.768,-0.192 1.536,-0.48 0.864,-0.288 1.44,-0.48 0.672,-0.192 0.768,-0.288 0.096,0.192 0.672,0.48 0.576,0.192 0.864,0.192 h 0.768 q 0.192,0 0.48,-0.096 0.384,-0.096 0.48,-0.096 l 0.192,-0.48 h 0.288 l -1.344,2.688 q 0,-0.576 -0.384,-0.576 -0.192,0 -0.192,0.384 0,0.384 0.192,0.576 l -0.768,0.192 q 0,0.096 0.192,0.384 0.192,0.288 0.192,0.48 0,0.288 -0.288,0.576 h 0.096 q 0.288,0 0.288,0.48 0,0.48 -0.192,0.48 -0.384,0 -0.384,-0.576 l 0.096,-0.192 q -0.384,0.384 -0.48,0.384 l -0.384,-0.192 q -0.384,-0.096 -0.384,-0.288 l -0.288,0.096 q -0.096,0 -0.288,-0.288 -0.192,-0.384 -0.192,-0.576 l -0.48,0.48 v -0.288 q 0,-0.576 -0.288,-0.576 -0.192,0 -0.192,0.384 0,0.576 0.288,0.576 l -0.576,0.576 -0.384,-0.48 -0.192,0.96 q -0.096,-0.096 -0.576,-0.096 -0.384,-0.096 -0.768,-0.096 -0.576,0 -0.576,0.96 h -0.192 q -0.096,0.096 -0.192,0.096 l 0.288,-0.576 q -0.288,0.192 -1.152,0.288 -0.768,0.096 -0.96,0.096 -0.096,0 -0.768,-0.384 -0.576,-0.48 -0.768,-0.48 h -0.48 q -0.192,0 -1.152,0.48 -0.864,0.384 -1.248,0.384 l -0.096,-0.672 q -0.192,0.096 -0.864,0.288 -0.672,0.192 -0.96,0.192 -0.576,0 -1.152,-0.288 -0.48,-0.384 -1.056,-0.384 l -0.576,-0.192 q -0.576,-0.192 -0.48,-0.192 -0.096,0 -0.288,0.192 -0.096,0.096 -0.288,0.192 v -0.288 l -0.768,-0.48 q -0.288,-0.096 -1.056,-0.384 -0.672,-0.288 -0.864,-0.384 l -0.288,0.096 -2.304,-1.152 q -0.192,0 -0.384,-0.48 -0.192,-0.48 -0.192,-0.864 -0.192,0.576 -0.192,0.48 h -0.384 l -0.768,-0.384 -0.288,-2.496 -0.864,1.728 -1.632,-1.824 0.192,-0.48 h -0.576 l -0.672,-0.768 q -0.672,-0.672 -0.672,-1.056 l -1.056,-2.784 -0.576,-1.056 -0.096,-0.384 q 0.096,-0.096 0.096,-0.384 0.096,-0.288 0.192,-0.48 -0.192,0 -0.48,-0.672 -0.192,-0.672 -0.192,-1.152 0,-0.288 0.192,-0.288 h 0.192 l -0.48,-0.48 q 0.384,-0.192 0.48,-0.768 0.096,-0.576 0.096,-0.48 l -0.48,-0.768 q 0,-0.096 -0.096,-0.288 0,-0.192 0,-0.288 l 0.288,-0.096 0.096,-0.288 -0.672,-0.96 0.384,-0.096 -0.096,-1.152 q 0.288,0 0.384,-0.192 0.192,-0.288 0.576,-0.672 h -0.096 q -0.288,0 -0.288,-0.48 0,-0.288 0.096,-0.384 h -0.192 q 0,-0.384 0.192,-0.768 0.288,-0.384 0.288,-1.152 v -1.248 q 0,-0.864 -0.096,-0.96 l 0.576,-0.096 v -0.288 q 0,-0.096 0.096,-0.192 -0.384,0 -0.48,-0.48 0,-0.48 -0.192,-0.864 l 0.288,-1.056 q 0,-0.096 0.096,-0.288 0.096,-0.288 0.192,-0.288 l 0.096,0.864 h 0.48 q 0,-0.096 -0.096,-0.192 -0.096,-0.096 -0.096,-0.192 0,-0.192 0.192,-0.768 0.288,-0.672 0.288,-0.768 v -0.096 q 0,-0.576 -0.48,-0.864 0.48,0 0.864,-0.096 0.384,-0.096 0.384,-0.576 l 0.48,-1.92 q 0.288,0 0.288,-0.288 0.096,-0.384 0.288,-0.768 v 0.576 q 0,0.48 0.192,0.672 0,0.192 -0.096,0.864 0,0.576 -0.096,0.768 l 0.384,-0.096 q 0.192,-0.192 0.384,-0.576 0.192,-0.384 0.192,-0.48 0,-0.192 -0.192,-0.768 -0.096,-0.576 -0.096,-0.672 0,-0.576 0.48,-0.864 0.48,-0.384 1.632,-1.536 h 0.288 q 0.096,0 0.288,-0.192 l 0.384,-0.384 v 0.384 l 0.288,0.096 0.672,-1.056 -0.576,0.096 q 0,-0.384 0.192,-0.576 l 0.96,-2.112 0.864,0.96 q 0,-0.384 0.288,-0.672 0.384,-0.288 0.576,-0.48 0.096,0 0.192,0.096 l 0.192,0.192 q 0,-0.384 0.192,-0.96 h 1.056 q 0,-0.864 1.92,-1.344 l 0.48,-0.096 q 0.192,0 0.576,0.48 0.384,0.384 0.48,0.384 h 0.384 q 0.096,0 0.192,-0.096 0,-0.096 -0.192,-0.384 -0.192,-0.288 -0.192,-0.384 0,-0.192 0.384,-0.48 0.384,-0.288 0.576,-0.288 0.096,0.096 0.288,0.288 0.192,0.096 0.384,0.384 l 0.768,0.672 -0.288,-1.536 1.152,0.864 -0.096,-1.44 q 0.096,0.096 0.288,0.288 0.192,0.096 0.192,0.192 l 0.864,1.344 h 0.384 q 0.096,-0.096 0.384,-0.192 0.288,-0.096 0.576,-0.384 0,0.768 0.192,1.056 0.288,0.288 0.768,0.768 0.48,0 0.672,-0.576 0,0.384 0.096,0.48 v 0.48 q 0,0.192 -0.192,0.288 -0.096,0 -0.096,0.192 0.096,0.192 0.192,0.576 0.192,0.384 0.384,0.384 0,-0.288 0.288,-1.248 0.288,-0.96 1.44,-0.96 0.096,0 0.384,0.096 0.288,0.096 0.288,0.288 h 0.192 q 0.096,0 0.192,-0.096 0.192,0.288 0.384,0.864 0.192,0.48 0.864,0.48 0.288,0 0.576,-0.48 0,0.672 0.192,1.728 0.192,1.056 0.672,1.056 h 0.096 l -0.192,-1.44 q 0.096,0.096 0.288,0.48 0.192,0.288 0.384,0.384 0.096,0 0.384,0.48 0.288,0.384 0.768,2.592 0,-0.672 0.192,-0.768 0.288,-0.192 0.288,-0.576 l 0.096,-0.096 q 0.192,0 0.384,0.384 0.288,0.384 0.288,0.672 0,0.192 -0.096,0.768 0,0.576 0,0.672 l 0.384,0.576 q 0.096,0.192 0.192,0.96 0.096,0.672 0.096,0.96 l 0.288,-0.576 q 0.096,-0.096 0.096,-0.48 v -0.576 l 0.192,0.288 v 1.44 q 0,0.672 -0.096,0.768 v 0.192 q 0,0.96 -0.48,1.44 v 0.192 q 0,0.192 0.096,0.192 l -1.344,2.784 0.384,0.384 -0.768,1.536 -0.48,1.536 -0.384,-0.384 q -0.192,-0.096 -0.48,-0.192 -0.192,-0.192 -0.288,-0.192 -0.288,0.864 -0.384,1.824 0,0.96 -0.576,1.248 -0.192,-0.192 -0.192,-0.384 0.096,-0.288 0,-0.576 0.096,-0.192 0.096,-0.768 0,-0.576 0.192,-0.768 h -0.384 q -0.288,0.48 -0.576,0.672 -0.288,0.192 -0.288,0.96 l 0.48,-0.096 v 0.192 q -0.096,0.288 -0.48,1.152 -0.288,0.768 -1.728,0.768 l -0.096,-0.48 q -0.096,0 -0.288,0 -0.192,-0.096 -0.384,-0.096 -0.192,0 -0.384,0.48 -0.192,0.48 -0.384,0.48 -0.192,0 -0.48,-0.096 -0.288,-0.192 -0.48,-0.192 -0.288,0.288 -0.288,0.96 l -0.384,-0.384 q -0.192,0 -0.384,0.096 -0.192,0 -0.288,0 l -0.672,-0.384 q -0.096,0 -0.192,0.096 -0.096,0 -0.288,0 -0.384,0 -0.576,-0.192 -0.192,-0.192 -0.672,-0.576 0.192,0.192 0.192,0.384 h 0.096 q 0.288,0 0.288,0.672 0,0.288 -0.192,0.288 -0.288,0 -0.288,-0.48 h -0.096 q -0.288,0 -0.288,-0.672 0,-0.384 0.192,-0.384 h 0.096 l -1.344,-0.768 h -0.288 q -0.096,0 -0.192,0.288 0,0.288 -0.096,0.384 l 0.096,0.288 v 0.096 l 0.576,-0.48 -0.384,1.92 q -0.096,-0.096 -0.384,-0.384 -0.288,-0.384 -0.48,-0.48 l -0.768,0.096 h -0.192 l -0.672,0.672 -0.192,-1.536 q -0.288,0.288 -0.384,0.48 0,0.192 -0.864,0.768 z m 6.336,-7.392 q 0.288,0 0.288,0.672 l -0.096,0.288 h 1.632 l -0.48,1.92 h 0.192 q 0.192,0 0.288,-0.288 0.192,-0.384 0.288,-0.768 0.096,-0.384 0.096,-0.672 0.096,-0.384 0.288,-0.384 l 0.288,-0.096 q 0.384,-0.192 0.672,-0.672 0.384,-0.48 0.768,-0.96 0.384,-0.576 0.768,-1.056 0.384,-0.48 0.864,-0.576 l 0.288,0.288 q 0.096,0.096 0.384,0.096 l 0.576,-0.192 q -0.768,0 -0.768,-0.864 v -0.48 q 0,-0.384 0.096,-1.152 0.192,-0.768 0.192,-0.96 l 0.768,-0.096 q -0.192,0.576 -0.192,1.056 0.096,0.096 0.192,0.288 0.096,0.192 0.192,0.192 0.096,-0.096 0.096,-0.48 0.096,-0.384 0.096,-0.576 v -0.576 q 0,-0.288 -0.384,-0.672 -0.288,-0.384 -0.48,-0.576 0,-0.192 0.192,-0.672 0.288,-0.48 0.288,-0.864 0,-0.48 -0.192,-0.672 -0.192,-0.192 -0.384,-0.192 -0.192,-0.096 -0.48,-0.192 -0.192,-0.096 -0.288,-0.384 h -0.288 v -0.384 q 0,-0.384 0.096,-0.48 -0.096,0.096 -0.288,0.096 h -0.384 q -0.288,0 -0.768,-0.096 -0.48,-0.192 -1.056,-0.384 -0.576,-0.288 -1.056,-0.384 -0.48,-0.192 -0.672,-0.192 l -0.384,0.096 -0.096,-1.056 q 0,0.384 -0.96,0.672 -0.96,0.288 -1.728,0.288 l -0.288,-0.192 q -0.384,-0.096 -0.384,-0.384 l -0.384,-0.288 h -0.768 q -0.096,0 -0.288,0.096 -0.096,0 -0.288,0 l 0.96,0.288 v 0.192 q 0,0.192 -0.384,0.384 -0.288,0.096 -0.48,0.096 -0.384,0 -0.576,-0.672 -0.192,-0.672 -0.192,-1.248 l -0.576,0.096 0.288,2.208 q -0.096,0 -0.384,0 -0.288,-0.096 -0.48,-0.096 -0.192,0 -0.48,0.288 -0.192,0.192 -0.288,0.192 h -0.384 v -0.288 q -0.288,-0.384 -0.384,-0.672 -0.096,-0.384 -0.576,-0.384 -0.192,0.192 -0.384,0.576 -0.192,0.288 -0.576,0.288 0.096,0.192 0.192,0.48 0.096,0.288 0.384,0.288 l 0.096,0.48 q -1.44,1.44 -2.784,2.688 -1.344,1.248 -1.536,1.44 0,0.384 -0.384,1.536 -0.384,1.152 -1.152,2.112 l 0.096,0.48 q 0,0.864 -0.576,1.632 -0.48,0.672 -0.48,2.976 v 0.672 q 0,0.576 0.192,0.768 l 0.576,-1.056 q 0.192,-0.288 0.192,-1.056 0.096,-0.864 0.288,-1.056 0,0.576 0.384,0.576 0.096,0 0.096,-0.288 0,-0.672 -0.288,-0.672 0,-0.48 0.096,-0.96 0.192,-0.576 0.288,-0.576 0.576,0.288 1.536,0.672 0.96,0.288 1.44,0.576 l 0.384,0.192 q 0.48,0.48 1.44,0.672 1.056,0.096 2.688,0.864 h 0.288 q 0.096,0 0.192,0 0.096,-0.096 0.192,-0.096 0.096,0 0.48,0.192 0.48,0.192 0.672,0.192 0.864,-0.48 2.112,-0.768 1.344,-0.288 1.632,-0.384 -0.192,-0.192 -0.192,-0.48 0,-0.288 0.288,-0.48 z m 6.144,2.208 q -0.192,0 -0.192,0.384 0,0.576 0.384,0.576 -0.096,0.192 -0.48,0.384 -0.384,0.192 -0.576,0.192 0.384,0.384 0.576,0.768 0.192,0.384 0.48,1.248 0,-0.768 0.384,-1.536 0.48,-0.864 0.48,-1.632 v -0.672 l -0.288,0.192 -0.48,0.864 v -0.192 z m 7.68,21.408 v 0.096 q 0,0.192 0.096,0.192 v 0.192 q 0,0.096 -0.192,0.288 -0.096,0.192 -0.096,0.672 0,0.192 0.096,0.576 0.192,0.288 0.192,0.48 l 0.192,-0.096 0.096,0.48 -1.056,0.192 q 0,-0.096 -0.096,-0.288 0,-0.288 0,-0.48 v -0.576 q 0,-0.96 0.768,-1.728 z m -29.376,-29.952 q -0.288,0.192 -0.288,0.48 0,0.48 0.192,0.48 0.48,0 0.48,-0.672 0,-0.288 -0.384,-0.288 z m 25.92,-0.48 q -0.192,0 -0.192,0.384 0,0.672 0.384,0.672 0.192,0 0.192,-0.384 0,-0.672 -0.384,-0.672 z m -0.768,6.624 0.192,0.192 0.288,0.192 -0.192,-1.056 -0.672,0.096 0.096,0.48 z m -1.248,-8.448 q -0.192,0.192 -0.192,0.48 0,0.576 0.288,0.576 0.288,0 0.288,-0.384 0,-0.672 -0.384,-0.672 z m -1.344,4.8 q -0.192,0 -0.192,0.288 0,0.192 0.096,0.48 0.096,0.288 0.288,0.288 0.192,0 0.192,-0.384 0,-0.672 -0.384,-0.672 z m -13.056,25.056 q 0.384,0 0.384,0.672 0,0.384 -0.192,0.384 -0.384,0 -0.384,-0.672 z m -0.768,-19.776 q -0.192,0 -0.192,0.384 0,0.576 0.288,0.576 0.288,0 0.288,-0.384 0,-0.576 -0.384,-0.576 z m -9.6,-6.144 q -0.192,0 -0.192,0.384 0,0.576 0.288,0.576 0.288,0 0.288,-0.384 0,-0.576 -0.384,-0.576 z m 16.992,9.696 q -0.192,0 -0.192,0.288 0,0.672 0.384,0.672 0.192,0 0.192,-0.384 0,-0.576 -0.384,-0.576 z m 9.888,-18.336 q 0.384,0 0.384,0.672 0,0.384 -0.192,0.384 -0.384,0 -0.384,-0.576 z m -22.272,4.512 q -0.192,0 -0.192,0.384 0,0.576 0.288,0.576 0.288,0 0.288,-0.288 0,-0.672 -0.384,-0.672 z m -8.832,8.64 q 0.384,0 0.384,0.672 0,0.384 -0.192,0.384 -0.192,0 -0.288,-0.288 -0.096,-0.288 -0.096,-0.48 z m 28.224,-13.728 q -0.192,0.192 -0.192,0.384 0,0.576 0.288,0.576 0.288,0 0.288,-0.288 0,-0.672 -0.384,-0.672 z m -0.192,12.96 q -0.192,0.192 -0.192,0.384 0,0.576 0.288,0.576 0.288,0 0.288,-0.288 0,-0.672 -0.384,-0.672 z m -18.432,25.344 q -0.288,0.192 -0.288,0.576 0,0.48 0.288,0.48 0.288,0 0.288,-0.576 z m 23.808,-34.464 q 0.288,0 0.288,0.384 0,0.576 -0.288,0.576 -0.288,0 -0.288,-0.48 z m -27.648,33.024 q 0.384,0 0.384,0.672 0,0.288 -0.192,0.288 -0.384,0 -0.384,-0.576 z m 29.568,2.496 q 0.192,0 0.288,0.288 0.096,0.288 0.096,0.48 0,0.192 -0.096,0.192 -0.48,0 -0.48,-0.672 z m -29.76,-4.512 q -0.288,0 -0.288,0.48 0,0.48 0.288,0.48 0.288,0 0.288,-0.384 z m 4.416,-36.48 q 0.288,0 0.288,0.576 0,0.48 -0.192,0.48 -0.288,0 -0.288,-0.576 z m -2.784,2.016 q 0.288,0 0.288,0.576 0,0.288 -0.192,0.288 -0.384,0 -0.384,-0.384 0,-0.288 0.288,-0.48 z m 17.28,18.624 q -0.288,0 -0.288,0.384 0,0.576 0.384,0.576 0.192,0 0.192,-0.384 z m -4.512,-18.912 q -0.288,0.192 -0.288,0.48 0,0.48 0.288,0.48 0.288,0 0.288,-0.384 z m 9.696,40.608 q 0.384,0 0.384,0.576 0,0.288 -0.192,0.288 -0.384,0 -0.384,-0.576 z m -16.704,-5.28 q -0.288,0.192 -0.288,0.48 0,0.48 0.384,0.48 0.192,0 0.192,-0.384 z m -0.096,-33.888 q 0.192,0 0.192,0.288 0.096,0.288 0.096,0.48 0,0.288 -0.096,0.288 -0.384,0 -0.384,-0.576 z m 12.096,-3.072 q -0.192,0 -0.192,0.384 0,0.672 0.288,0.672 0.192,0 0.192,-0.48 z m -21.888,12 q -0.288,0 -0.288,0.384 0,0.48 0.288,0.48 0.288,0 0.288,-0.384 z m 1.824,24.48 q -0.192,0 -0.192,0.48 0,0.576 0.288,0.576 0.192,0 0.192,-0.48 z m 19.68,-31.968 q 0.288,0 0.288,0.576 0,0.384 -0.192,0.384 -0.288,0 -0.288,-0.576 z m 5.856,7.2 q -0.192,0.192 -0.192,0.48 0,0.576 0.288,0.576 0.192,0 0.192,-0.48 z m 1.536,-1.728 q -0.192,0.192 -0.192,0.48 0,0.576 0.192,0.576 0.288,0 0.288,-0.384 z m -8.832,-7.776 q -0.192,0.192 -0.192,0.384 0,0.672 0.384,0.672 0.096,0 0.096,-0.384 z m 0.384,17.472 q 0,0.384 -0.096,0.48 0,0.48 0.384,0.48 0.096,0 0.096,-0.288 0,-0.768 -0.384,-0.672 z m -22.368,10.368 q -0.192,0 -0.192,0.384 0,0.576 0.288,0.576 0.192,0 0.192,-0.384 z m 1.632,-19.68 q -0.192,0 -0.192,0.288 0,0.672 0.384,0.672 0.096,0 0.096,-0.288 z m -1.44,13.632 q -0.192,0.192 -0.192,0.384 0,0.576 0.192,0.576 0.288,0 0.288,-0.384 z m 16.224,-24.48 q -0.192,0.192 -0.192,0.48 0,0.48 0.192,0.48 0.288,0 0.288,-0.384 z m 5.664,19.584 q -0.192,0 -0.192,0.384 0,0.672 0.288,0.672 h 0.096 q -0.096,-0.096 -0.096,-0.192 0,-0.096 0.192,-0.288 z m -13.728,-17.472 q -0.192,0 -0.192,0.384 0,0.48 0.288,0.48 0.192,0 0.192,-0.384 z m 4.32,19.872 q -0.192,0 -0.192,0.288 0,0.576 0.288,0.576 0.192,0 0.192,-0.384 z m -13.248,7.104 q 0,0.192 0,0.288 0.096,0.096 0.096,0.192 h 0.288 l 0.192,-0.576 z m -0.288,-11.424 q 0.192,0.192 0.192,0.672 0,0.288 -0.096,0.288 -0.096,0 -0.192,-0.288 0,-0.288 0.096,-0.672 z m 0.48,5.376 q -0.192,0 -0.192,0.192 0,0.384 0.192,0.384 0.192,0 0.192,-0.288 z m 28.32,-13.152 h 0.288 l -0.096,-0.48 h -0.288 z m -22.176,16.896 q 0.192,0 0.192,0.192 0,0.288 -0.192,0.288 -0.192,0 0,-0.48 z m 24.288,14.592 v 0.672 q 0,0.288 0.096,0.384 0.096,-0.096 0.096,-0.48 z m -24,-2.688 -0.192,0.096 q 0,0.384 0.288,0.384 0.096,0 0.096,-0.192 z m 19.776,-21.6 q -0.096,0 -0.096,0.192 0,0.384 0.192,0.384 0.096,0 0.096,-0.192 z m -4.8,-16.128 q -0.192,0 -0.192,0.096 0,0.288 0.192,0.288 0.192,0 0,-0.384 z m -11.52,-1.056 q 0.096,0.096 0.096,0.288 0,0.192 -0.096,0.192 -0.192,0 0,-0.48 z m 0.096,3.456 q -0.096,0 -0.096,0.192 0,0.288 0.096,0.288 0.192,0 0.192,-0.192 z m -9.408,18.624 q 0,-0.096 -0.192,-0.096 -0.192,0 -0.192,0.192 l 0.192,0.192 z m 26.496,-18.336 h -0.096 q -0.096,0.096 -0.096,0.192 l 0.096,0.192 q 0.192,0 0.096,-0.384 z m -10.368,-4.224 -0.096,-0.48 -0.288,0.096 z m -16.512,21.408 0.192,-0.384 -0.384,-0.192 q 0.192,0.192 0.192,0.576 z m 27.744,-13.44 q 0,-0.096 -0.192,-0.096 l -0.096,0.096 q 0,0.192 0.096,0.192 l 0.096,0.096 z m -0.096,-3.072 -0.096,-0.288 -0.096,0.672 0.096,-0.096 z m -15.936,16.8 q -0.192,0 -0.192,0.192 l 0.096,0.192 q 0.192,0 0.096,-0.384 z m -5.568,-4.8 q -0.192,0.192 -0.192,0.384 z m 34.65599,2.688 q -0.288,0 -0.288,0.48 0,0.48 0.288,0.48 h 0.096 q -0.096,0.288 -0.096,1.344 v 1.536 l -0.672,0.96 h 0.48 q 0,1.056 0.096,2.304 0.096,1.248 0.384,1.536 v 0.48 q -0.096,0 -0.192,0.288 0,0.192 -0.096,0.192 0.192,0.192 0.576,0.96 0.48,0.672 0.672,0.96 v 0.48 q 0.288,0.768 1.248,1.728 1.056,0.96 2.208,1.824 1.248,0.864 2.4,1.536 1.248,0.576 2.016,0.576 h 0.288 q 0,0.48 0.576,0.768 0.672,0.288 1.056,0.288 l 0.576,-0.48 h 1.248 q 0.192,0 0.672,-0.192 0.48,-0.288 0.576,-0.384 h 1.056 q 0,0.576 0.288,0.576 h 0.288 q 0.096,0 0.288,-0.192 l 0.384,-0.384 q 0.096,0.192 0.288,0.192 h 0.384 q 0,-0.192 -0.096,-0.576 0,-0.384 0,-0.48 0.096,0 0.192,-0.192 0.096,-0.288 0.192,-0.288 l 0.576,1.056 -0.096,0.288 0.288,0.096 q 0.192,0 0.288,-0.192 0.096,-0.288 0.288,-0.288 h 0.48 q 0.192,-0.096 0.672,-0.288 0.576,-0.192 0.672,-0.192 0,0.192 0.096,0.288 0.192,0.096 0.192,0.192 0.096,-0.096 0.096,-0.288 0.096,-0.192 0.192,-0.192 h 0.576 q 0,0.096 -0.096,0.384 -0.096,0.288 -0.096,0.48 l -0.384,0.576 q -0.096,0 -0.288,0.096 -0.096,0 -0.288,0 -0.384,0 -0.864,0 -0.384,-0.096 -0.48,-0.096 -0.288,0.288 -0.48,0.768 -0.096,0.384 -0.48,0.384 l -0.096,-0.576 -0.192,-0.096 q -0.096,0.096 -0.672,0.384 -0.48,0.192 -0.576,0.192 l -0.192,-0.288 q -0.096,-0.096 -0.096,-0.288 l -0.672,0.96 0.384,0.576 q -0.192,0.096 -0.384,0.48 -0.192,0.384 -0.288,0.384 l -0.288,-0.096 v 1.248 q -0.192,0 -0.384,-0.192 l -0.672,-0.48 v 1.056 h -1.344 q -1.152,0 -2.016,-0.576 h -1.536 q -0.48,0 -1.248,-0.48 -0.768,-0.48 -1.344,-0.48 h -0.672 q -0.288,0 -1.056,-0.192 -0.672,-0.192 -0.864,-0.288 l -0.288,-0.384 q -0.096,0 -0.288,0.192 -0.192,0.192 -0.288,0.192 -0.096,0 -0.384,-0.384 -0.288,-0.48 -0.288,-0.576 -0.096,0 -0.384,0.192 -0.192,0.192 -0.288,0.384 v -0.672 q -0.096,0 -0.288,0.096 -0.192,0 -0.288,0 -0.096,0 -0.384,-0.192 -0.192,-0.192 -0.288,-0.192 l 0.288,-0.48 h -0.384 q -0.384,0 -0.48,-0.096 l -2.208,-2.304 q -0.384,-0.384 -0.384,-0.48 h -0.288 q 0,-0.384 -0.288,-1.536 -0.192,-1.152 -0.96,-1.92 v -0.48 q 0,-0.192 -0.192,-1.152 -0.096,-1.056 -0.096,-1.248 v -0.48 l -0.096,-0.384 q 0,-0.48 -0.096,-0.96 -0.096,-0.48 -0.192,-0.96 0,-0.48 0,-0.576 0,-0.096 0,-0.576 0.096,-0.48 0.192,-1.056 0.096,-0.576 0.096,-1.056 0.096,-0.48 0.096,-0.576 0,-0.096 -0.096,-0.48 0,-0.384 0,-0.672 0,-0.768 0.096,-1.536 0.192,-0.768 0.672,-1.248 h 0.192 q 0.288,-0.288 0.288,-0.96 v -0.96 l 0.768,-1.056 q -0.096,-0.096 -0.096,-0.192 l 0.096,-0.672 q 0,-0.096 0.288,-0.96 0.384,-0.864 0.576,-0.96 h 0.288 q 0.096,0 0.288,-0.192 0.288,-0.288 0.384,-0.288 v 0.48 h 0.864 q -0.288,-0.288 -0.288,-1.248 0,-0.384 0.096,-0.768 0.096,-0.384 0.288,-0.384 0,0.384 0.576,0.384 0.384,0 0.768,0 0.48,-0.096 0.672,-0.096 0,-0.192 -0.096,-0.864 -0.096,-0.672 -0.096,-0.864 0,-0.096 0.192,-0.288 l 1.152,-0.768 v 0.48 q 0.096,0.096 0.192,0.096 h 0.096 q 0.096,0 0.288,-0.192 l 0.384,-0.384 v 0.288 q 0.192,-0.48 0.864,-1.248 0.672,-0.864 1.824,-0.864 -0.192,0.192 -0.192,0.384 0,0.48 0.288,0.48 0.192,0 0.192,-0.384 0,-0.288 -0.192,-0.48 h 1.056 q 0,-0.096 0.096,-0.192 l 0.192,-0.288 v 0.096 q 0,0.384 0.288,0.384 0.192,0 0.192,-0.384 0,-0.384 -0.192,-0.576 h 0.288 q 0.096,0.096 0.096,0.384 0.096,0.288 0.192,0.48 0,-0.48 0.384,-0.96 0.384,-0.48 0.576,-0.48 v 0.576 h 1.632 v -0.48 q 0,-0.48 0.288,-0.48 0.192,0 0.192,0.48 0,0.288 -0.192,0.48 h 0.576 v 0.192 q 0.096,0 0.192,0.096 0.096,0.096 0.192,0.096 l 0.672,-0.96 0.672,1.056 0.192,-0.096 q 0,0.096 0.096,0.384 0.192,0.192 0.288,0.192 v -0.48 q 0,-0.48 0.288,-0.48 0.192,0 0.192,0.48 0,0.288 -0.192,0.48 h 1.248 q 0.096,0.096 0.192,0.384 0.096,0.288 0.096,0.48 v 1.248 q 0.096,0 0.192,-0.096 0.192,-0.192 0.384,-0.192 l 1.44,1.44 q -0.096,0.096 -0.096,0.288 0,1.152 0.576,1.152 l -0.288,0.48 q 0.288,0 0.288,0.576 0,0.096 -0.096,0.48 0,0.288 -0.192,0.48 l -0.192,0.384 q -0.096,0 -0.288,0.096 -0.096,0 -0.288,0 -0.096,0 -0.288,0 -0.096,-0.096 -0.192,-0.096 -0.48,-1.536 -1.632,-2.496 -1.056,-1.056 -2.208,-1.344 h -1.536 q -0.576,0.288 -1.536,0.672 -0.96,0.288 -2.016,0.768 -0.96,0.48 -1.824,1.056 -0.864,0.576 -1.248,1.344 0.096,0 0.192,0.288 0.192,0.192 0.192,0.288 0,0.096 -0.192,0.576 -0.096,0.384 -0.192,0.384 h -1.248 q 0.192,-0.192 0.192,-0.48 0,-0.48 -0.192,-0.48 -0.192,0 -0.192,0.48 v 0.48 q -2.016,0.288 -2.016,1.44 h 0.384 l 0.576,-0.576 q -0.288,0.864 -0.768,1.344 -0.48,0.384 -0.96,0.768 -0.48,0.384 -0.96,0.864 -0.384,0.48 -0.576,1.344 v 0.096 q 0,0.192 -0.096,0.288 0,-0.288 0.096,-0.384 z m -1.728,-4.416 q -0.192,0 -0.288,0.384 0,0.288 -0.192,0.672 v 0.48 l 0.864,-1.056 q 0,-0.096 -0.096,-0.192 z m 14.976,26.496 v -2.784 l -0.384,0.384 z m -8.832,-4.416 q -0.288,0 -0.288,0.576 0,0.48 0.288,0.48 0.192,0 0.192,-0.48 z m 7.584,-30.24 q -0.288,0 -0.288,0.48 0,0.48 0.288,0.48 0.192,0 0.192,-0.48 z m 0,-1.44 q -0.288,0 -0.288,0.48 0,0.48 0.288,0.48 0.192,0 0.192,-0.48 z m -15.264,13.056 q -0.192,0 -0.192,0.48 0,0.48 0.192,0.48 0.288,0 0.288,-0.48 z m 3.84,18.24 q -0.192,0 -0.192,0.48 0,0.48 0.192,0.48 0.288,0 0.288,-0.48 z m 8.832,-29.28 q -0.192,0 -0.192,0.48 0,0.48 0.192,0.48 0.288,0 0.288,-0.48 z m -5.664,1.824 q -0.192,0 -0.192,0.576 0,0.48 0.192,0.48 0.192,0 0.192,-0.48 z m 0.288,2.976 q -0.192,0 -0.192,0.48 0,0.384 0.192,0.384 0.288,0 0.288,-0.384 z m -7.584,4.704 q 0.192,0 0.192,0.576 0,0.48 -0.192,0.48 -0.192,0 -0.192,-0.48 z m 3.552,13.152 q -0.288,0 -0.288,0.48 0,0.384 0.288,0.384 0.192,0 0.192,-0.384 z m -1.632,-16.992 q -0.192,0 -0.192,0.48 0,0.48 0.192,0.48 0.192,0 0.192,-0.48 z m 18.336,26.016 q 0.192,0 0.192,0.48 0,0.48 -0.192,0.48 -0.192,0 -0.192,-0.48 z m -0.288,1.44 q 0.192,0 0.192,0.48 0,0.48 -0.192,0.48 -0.192,0 -0.192,-0.48 z m -3.84,0.48 v -0.96 h -0.576 z m -16.32,-21.12 q -0.288,0 -0.288,0.48 0,0.384 0.288,0.384 0.096,0 0.096,-0.384 z m 22.368,-5.856 q -0.192,0.288 -0.384,0.288 -0.288,0 -0.288,-0.288 0,-0.192 0.288,-0.192 z m -7.296,-7.2 q -0.192,0 -0.192,0.384 0,0.192 0.192,0.192 0.096,-0.096 0,-0.576 z m -3.072,0 q 0,-0.096 -0.192,-0.096 -0.192,0 -0.192,0.096 0,0.288 0.096,0.288 0.096,0 0.288,-0.288 z m -9.888,10.656 h 0.288 l -0.288,-0.576 z m -2.112,3.84 q 0,-0.192 -0.192,-0.192 -0.192,0 -0.192,0.192 0,0.192 0.384,0 z m 0.48,-6.24 q 0.192,0.192 0.192,0.288 0,0.096 -0.192,0.096 -0.096,0 0,-0.384 z m 2.592,-0.48 -0.096,-0.192 q -0.192,0 -0.192,0.192 z m 6.624,-7.104 -0.384,0.576 0.096,0.288 q 0,-0.192 0.096,-0.48 z"
       id="text2"
       aria-label="Wisielec" />
  </g>
</svg>
