<?xml version="1.0" encoding="UTF-8" standalone="no"?>
<!-- by Krystian Piatek -->
<svg
 viewBox="0 0 190 100"
 xmlns="http://www.w3.org/2000/svg"
>
  <rect x="0" y="0" width="190" height="7.690" fill="#b31942" />
  <rect x="0" y="7.690" width="190" height="7.69" fill="#ffffff" />
  <rect x="0" y="15.38" width="190" height="7.69" fill="#b31942" />
  <rect x="0" y="23.07" width="190" height="7.69" fill="#ffffff" />
  <rect x="0" y="30.76" width="190" height="7.69" fill="#b31942" />
  <rect x="0" y="38.45" width="190" height="7.69" fill="#ffffff" />
  <rect x="0" y="46.14" width="190" height="7.69" fill="#b31942" />
  <rect x="0" y="53.83" width="190" height="7.69" fill="#ffffff" />
  <rect x="0" y="61.52" width="190" height="7.69" fill="#b31942" />
  <rect x="0" y="69.21" width="190" height="7.69" fill="#ffffff" />
  <rect x="0" y="76.9" width="190" height="7.69" fill="#b31942" />
  <rect x="0" y="84.59" width="190" height="7.69" fill="#ffffff" />
  <rect x="0" y="92.28" width="190" height="7.69" fill="#b31942" />

  <rect x="0" y="0" width="76" height="53.83" fill="#0a3161" />

  <polygon points="6.33,2.3 8.233,8.457 3.25,4.65 9.409,4.652 4.427,8.457 " fill="#ffffff" />
  <polygon points="18.99,2.3 20.893,8.457 15.91,4.65 22.069,4.652 17.087,8.457" fill="#ffffff" />
  <polygon points="31.65,2.3 33.553,8.457 28.57,4.65 34.729,4.652 29.747,8.457" fill="#ffffff" />
  <polygon points="44.31,2.3 46.213,8.457 41.23,4.65 47.389,4.652 42.407,8.457" fill="#ffffff" />
  <polygon points="56.97,2.3 58.873,8.457 53.89,4.65 60.049,4.652 55.067,8.457" fill="#ffffff" />
  <polygon points="69.63,2.3 71.533,8.457 66.55,4.65 72.709,4.652 67.727,8.457" fill="#ffffff" />

  <polygon points="12.66,7.68 14.563,13.837 9.58,10.03 15.739,10.032 10.757,13.837" fill="#ffffff" />
  <polygon points="25.32,7.68 27.223,13.837 22.24,10.03 28.399,10.032 23.417,13.837" fill="#ffffff" />
  <polygon points="37.98,7.68 39.883,13.837 34.9,10.03 41.059,10.032 36.077,13.837" fill="#ffffff" />
  <polygon points="50.64,7.68 52.543,13.837 47.56,10.03 53.719,10.032 48.737,13.837" fill="#ffffff" />
  <polygon points="63.3,7.68 65.203,13.837 60.22,10.03 66.379,10.032 61.397,13.837" fill="#ffffff" />

  <polygon points="6.33,13.06 8.233,19.217 3.25,15.41 9.409,15.412 4.427,19.217" fill="#ffffff" />
  <polygon points="18.99,13.06 20.893,19.217 15.91,15.41 22.069,15.412 17.087,19.217" fill="#ffffff" />
  <polygon points="31.65,13.06 33.553,19.217 28.57,15.41 34.729,15.412 29.747,19.217" fill="#ffffff" />
  <polygon points="44.31,13.06 46.213,19.217 41.23,15.41 47.389,15.412 42.407,19.217" fill="#ffffff" />
  <polygon points="56.97,13.06 58.873,19.217 53.89,15.41 60.049,15.412 55.067,19.217" fill="#ffffff" />
  <polygon points="69.63,13.06 71.533,19.217 66.55,15.41 72.709,15.412 67.727,19.217" fill="#ffffff" />

  <polygon points="12.66,18.44 14.563,24.597 9.58,20.79 15.739,20.792 10.757,24.597" fill="#ffffff" />
  <polygon points="25.32,18.44 27.223,24.597 22.24,20.79 28.399,20.792 23.417,24.597" fill="#ffffff" />
  <polygon points="37.98,18.44 39.883,24.597 34.9,20.79 41.059,20.792 36.077,24.597" fill="#ffffff" />
  <polygon points="50.64,18.44 52.543,24.597 47.56,20.79 53.719,20.792 48.737,24.597" fill="#ffffff" />
  <polygon points="63.3,18.44 65.203,24.597 60.22,20.79 66.379,20.792 61.397,24.597" fill="#ffffff" />

  <polygon points="6.33,23.82 8.233,29.977 3.25,26.17 9.409,26.172 4.427,29.977" fill="#ffffff" />
  <polygon points="18.99,23.82 20.893,29.977 15.91,26.17 22.069,26.172 17.087,29.977" fill="#ffffff" />
  <polygon points="31.65,23.82 33.553,29.977 28.57,26.17 34.729,26.172 29.747,29.977" fill="#ffffff" />
  <polygon points="44.31,23.82 46.213,29.977 41.23,26.17 47.389,26.172 42.407,29.977" fill="#ffffff" />
  <polygon points="56.97,23.82 58.873,29.977 53.89,26.17 60.049,26.172 55.067,29.977" fill="#ffffff" />
  <polygon points="69.63,23.82 71.533,29.977 66.55,26.17 72.709,26.172 67.727,29.977" fill="#ffffff" />

  <polygon points="12.66,29.2 14.563,35.357 9.58,31.55 15.739,31.552 10.757,35.357" fill="#ffffff" />
  <polygon points="25.32,29.2 27.223,35.357 22.24,31.55 28.399,31.552 23.417,35.357" fill="#ffffff" />
  <polygon points="37.98,29.2 39.883,35.357 34.9,31.55 41.059,31.552 36.077,35.357" fill="#ffffff" />
  <polygon points="50.64,29.2 52.543,35.357 47.56,31.55 53.719,31.552 48.737,35.357" fill="#ffffff" />
  <polygon points="63.3,29.2 65.203,35.357 60.22,31.55 66.379,31.552 61.397,35.357" fill="#ffffff" />

  <polygon points="6.33,34.58 8.233,40.737 3.25,36.93 9.409,36.932 4.427,40.737" fill="#ffffff" />
  <polygon points="18.99,34.58 20.893,40.737 15.91,36.93 22.069,36.932 17.087,40.737" fill="#ffffff" />
  <polygon points="31.65,34.58 33.553,40.737 28.57,36.93 34.729,36.932 29.747,40.737" fill="#ffffff" />
  <polygon points="44.31,34.58 46.213,40.737 41.23,36.93 47.389,36.932 42.407,40.737" fill="#ffffff" />
  <polygon points="56.97,34.58 58.873,40.737 53.89,36.93 60.049,36.932 55.067,40.737" fill="#ffffff" />
  <polygon points="69.63,34.58 71.533,40.737 66.55,36.93 72.709,36.932 67.727,40.737" fill="#ffffff" />

  <polygon points="12.66,39.96 14.563,46.117 9.58,42.31 15.739,42.312 10.757,46.117" fill="#ffffff" />
  <polygon points="25.32,39.96 27.223,46.117 22.24,42.31 28.399,42.312 23.417,46.117" fill="#ffffff" />
  <polygon points="37.98,39.96 39.883,46.117 34.9,42.31 41.059,42.312 36.077,46.117" fill="#ffffff" />
  <polygon points="50.64,39.96 52.543,46.117 47.56,42.31 53.719,42.312 48.737,46.117" fill="#ffffff" />
  <polygon points="63.3,39.96 65.203,46.117 60.22,42.31 66.379,42.312 61.397,46.117" fill="#ffffff" />

  <polygon points="6.33,45.34 8.233,51.497 3.25,47.69 9.409,47.692 4.427,51.497" fill="#ffffff" />
  <polygon points="18.99,45.34 20.893,51.497 15.91,47.69 22.069,47.692 17.087,51.497" fill="#ffffff" />
  <polygon points="31.65,45.34 33.553,51.497 28.57,47.69 34.729,47.692 29.747,51.497" fill="#ffffff" />
  <polygon points="44.31,45.34 46.213,51.497 41.23,47.69 47.389,47.692 42.407,51.497" fill="#ffffff" />
  <polygon points="56.97,45.34 58.873,51.497 53.89,47.69 60.049,47.692 55.067,51.497" fill="#ffffff" />
  <polygon points="69.63,45.34 71.533,51.497 66.55,47.69 72.709,47.692 67.727,51.497" fill="#ffffff" />
</svg>
