<svg width="256" height="256" viewBox="0 0 256 256" xmlns="http://www.w3.org/2000/svg"><rect style="fill:#fff;stroke-width:9.647;stroke-linecap:square;stroke-linejoin:round;paint-order:stroke markers fill" width="128" height="20" y="236" ry="3.037"/><path style="fill:#fff;stroke-width:8.35455;stroke-linecap:square;stroke-linejoin:round;paint-order:stroke markers fill" d="M52.892 64.48 116.48.891a3.03 3.03 0 0 1 4.296 0l9.846 9.847a3.03 3.03 0 0 1 0 4.296L67.035 78.62a3.03 3.03 0 0 1-4.296 0l-9.847-9.846a3.03 3.03 0 0 1 0-4.296z"/><rect style="fill:#fff;stroke-width:13.2097;stroke-linecap:square;stroke-linejoin:round;paint-order:stroke markers fill" width="240" height="20" x="16" ry="3.037"/><rect style="fill:#fff;stroke-width:9.647;stroke-linecap:square;stroke-linejoin:round;paint-order:stroke markers fill" width="24" height="256" x="52" ry="3.037"/><rect style="fill:#fff;stroke-width:9.647;stroke-linecap:square;stroke-linejoin:round;paint-order:stroke markers fill" width="8" height="64" x="200" ry="3.037"/><circle style="fill:none;stroke:#fff;stroke-width:8;stroke-linecap:square;stroke-linejoin:round;stroke-dasharray:none;stroke-opacity:1;paint-order:stroke markers fill" cx="204" cy="82.368" r="19.368"/><rect style="fill:#fff;fill-opacity:1;stroke:none;stroke-width:7.70714;stroke-linecap:round;stroke-linejoin:round;stroke-dasharray:none;stroke-opacity:1;paint-order:markers fill stroke" width="12" height="88" x="198" y="102" ry="3.341"/><path style="fill:#fff;stroke-width:11.9999;stroke-linecap:round;stroke-linejoin:round;paint-order:markers fill stroke" d="M207.013 106.8c-2.878-1.661-6.55-.653-8.233 2.262l-25.925 44.903c-1.683 2.915-.72 6.6 2.158 8.261 2.879 1.662 6.551.654 8.234-2.26l25.925-44.904c1.683-2.915.72-6.6-2.159-8.261zm0 76c-2.878-1.661-6.55-.653-8.233 2.262l-25.925 44.903c-1.683 2.915-.72 6.6 2.158 8.261 2.879 1.662 6.551.654 8.234-2.26l25.925-44.904c1.683-2.915.72-6.6-2.159-8.261z"/><path style="fill:#fff;stroke-width:11.9999;stroke-linecap:round;stroke-linejoin:round;paint-order:markers fill stroke" d="M200.987 106.8c2.878-1.661 6.55-.653 8.233 2.262l25.925 44.903c1.683 2.915.72 6.6-2.158 8.261-2.879 1.662-6.551.654-8.234-2.26l-25.925-44.904c-1.683-2.915-.72-6.6 2.159-8.261zm0 76c2.878-1.661 6.55-.653 8.233 2.262l25.925 44.903c1.683 2.915.72 6.6-2.158 8.261-2.879 1.662-6.551.654-8.234-2.26l-25.925-44.904c-1.683-2.915-.72-6.6 2.159-8.261z"/><path style="fill:#fff;stroke-width:0;stroke-miterlimit:2;paint-order:markers stroke fill" d="M212 91.93c0 .554-2.71 1-6.075 1h-3.85c-3.366 0-6.075-.446-6.075-1s2.71-1 6.075-1h3.85c3.366 0 6.075.446 6.075 1z" transform="translate(0 -1.29)"/><path style="fill:#fff;stroke-width:0;stroke-miterlimit:2;paint-order:markers stroke fill" d="M202.965 88.067c-.535.143-.616 1.567-.18 3.192l.498 1.86c.436 1.625 1.217 2.818 1.752 2.675.535-.143.616-1.567.18-3.193l-.498-1.86c-.436-1.625-1.217-2.818-1.752-2.674zm4.999 0c-.535.143-.615 1.567-.18 3.192l.499 1.86c.435 1.625 1.217 2.818 1.752 2.675.535-.143.615-1.567.18-3.193l-.499-1.86c-.435-1.625-1.216-2.818-1.752-2.674zm-10 0c-.535.143-.615 1.567-.18 3.192l.499 1.86c.435 1.625 1.217 2.818 1.752 2.675.535-.143.615-1.567.18-3.193l-.499-1.86c-.435-1.625-1.216-2.818-1.752-2.674z" transform="translate(0 -1.29)"/><path style="fill:#fff;stroke-width:0;stroke-miterlimit:2;paint-order:markers stroke fill" d="M129.52 55.78c.39.392-.252 1.665-1.441 2.855l-1.362 1.361c-1.19 1.19-2.463 1.832-2.855 1.44-.391-.391.251-1.664 1.441-2.854l1.361-1.361c1.19-1.19 2.463-1.833 2.855-1.441z" transform="translate(70.578 17.262)"/><path style="fill:#fff;stroke-width:0;stroke-miterlimit:2;paint-order:markers stroke fill" d="M123.862 55.78c-.391.392.251 1.665 1.441 2.855l1.361 1.361c1.19 1.19 2.463 1.832 2.855 1.44.392-.391-.25-1.664-1.44-2.854l-1.362-1.361c-1.19-1.19-2.463-1.833-2.855-1.441z" transform="translate(70.578 17.262)"/><path style="fill:#fff;stroke-width:0;stroke-miterlimit:2;paint-order:markers stroke fill" d="M129.52 55.78c.39.392-.252 1.665-1.441 2.855l-1.362 1.361c-1.19 1.19-2.463 1.832-2.855 1.44-.391-.391.251-1.664 1.441-2.854l1.361-1.361c1.19-1.19 2.463-1.833 2.855-1.441z" transform="translate(84.04 17.262)"/><path style="fill:#fff;stroke-width:0;stroke-miterlimit:2;paint-order:markers stroke fill" d="M123.862 55.78c-.391.392.251 1.665 1.441 2.855l1.361 1.361c1.19 1.19 2.463 1.832 2.855 1.44.392-.391-.25-1.664-1.44-2.854l-1.362-1.361c-1.19-1.19-2.463-1.833-2.855-1.441z" transform="translate(84.04 17.262)"/></svg>
