<svg width="128" height="128" xml:space="preserve" xmlns="http://www.w3.org/2000/svg"><g style="stroke-width:.3228"><path style="color:#000;fill:#fff;stroke-linecap:square;stroke-linejoin:round;-inkscape-stroke:none;paint-order:stroke markers fill" d="M72.383 39.758c-11.395 0-20.66 9.264-20.66 20.658 0 11.394 9.265 20.66 20.66 20.66 11.394 0 20.658-9.266 20.658-20.66s-9.264-20.658-20.658-20.658zm0 2.582c9.999 0 18.076 8.077 18.076 18.076s-8.077 18.078-18.076 18.078-18.076-8.08-18.076-18.078c0-9.999 8.077-18.076 18.076-18.076z" transform="matrix(3.0979 0 0 3.0979 -160.234 -123.165)"/><path style="fill:#fff;stroke-width:0;stroke-miterlimit:2;paint-order:markers stroke fill" d="M80.383 68.689c0 .554-2.71 1-6.075 1h-3.85c-3.366 0-6.075-.446-6.075-1s2.71-1 6.075-1h3.85c3.366 0 6.075.446 6.075 1z" transform="matrix(3.0979 0 0 3.0979 -160.234 -123.165)"/><path style="fill:#fff;stroke-width:0;stroke-miterlimit:2;paint-order:markers stroke fill" d="M71.348 64.826c-.535.143-.616 1.567-.18 3.192l.498 1.86c.436 1.625 1.217 2.818 1.752 2.675.535-.143.616-1.567.18-3.193L73.1 67.5c-.436-1.625-1.217-2.818-1.752-2.674zm4.999 0c-.535.143-.615 1.567-.18 3.192l.499 1.86c.435 1.625 1.217 2.818 1.752 2.675.535-.143.615-1.567.18-3.193l-.5-1.86c-.434-1.625-1.215-2.818-1.751-2.674zm-10 0c-.535.143-.615 1.567-.18 3.192l.499 1.86c.435 1.625 1.217 2.818 1.752 2.675.535-.143.615-1.567.18-3.193l-.5-1.86c-.434-1.625-1.215-2.818-1.751-2.674zM68.48 51.09c.39.393-.251 1.666-1.44 2.856l-1.362 1.36c-1.19 1.19-2.463 1.833-2.855 1.44-.391-.39.25-1.663 1.44-2.853l1.362-1.361c1.19-1.19 2.463-1.833 2.855-1.441z" transform="matrix(3.0979 0 0 3.0979 -160.234 -123.165)"/><path style="fill:#fff;stroke-width:0;stroke-miterlimit:2;paint-order:markers stroke fill" d="M62.823 51.09c-.391.393.25 1.666 1.44 2.856l1.362 1.36c1.19 1.19 2.463 1.833 2.855 1.44.392-.39-.25-1.663-1.44-2.853l-1.362-1.361c-1.19-1.19-2.463-1.833-2.855-1.441zM81.943 51.09c.39.393-.252 1.666-1.441 2.856l-1.362 1.36c-1.19 1.19-2.463 1.833-2.855 1.44-.391-.39.25-1.663 1.44-2.853l1.362-1.361c1.19-1.19 2.463-1.833 2.855-1.441z" transform="matrix(3.0979 0 0 3.0979 -160.234 -123.165)"/><path style="fill:#fff;stroke-width:0;stroke-miterlimit:2;paint-order:markers stroke fill" d="M76.285 51.09c-.391.393.25 1.666 1.44 2.856l1.362 1.36c1.19 1.19 2.463 1.833 2.855 1.44.392-.39-.25-1.663-1.44-2.853l-1.362-1.361c-1.19-1.19-2.463-1.833-2.855-1.441z" transform="matrix(3.0979 0 0 3.0979 -160.234 -123.165)"/></g></svg>