<?xml version="1.0" encoding="UTF-8" standalone="no"?>
<!-- Created with Inkscape (http://www.inkscape.org/) -->

<svg
   width="128"
   height="128"
   viewBox="0 0 128 128"
   version="1.1"
   id="svg1"
   xml:space="preserve"
   inkscape:version="1.3.2 (091e20ef0f, 2023-11-25, custom)"
   sodipodi:docname="favicon.svg"
   xmlns:inkscape="http://www.inkscape.org/namespaces/inkscape"
   xmlns:sodipodi="http://sodipodi.sourceforge.net/DTD/sodipodi-0.dtd"
   xmlns="http://www.w3.org/2000/svg"
   xmlns:svg="http://www.w3.org/2000/svg"><sodipodi:namedview
     id="namedview1"
     pagecolor="#505050"
     bordercolor="#ffffff"
     borderopacity="1"
     inkscape:showpageshadow="0"
     inkscape:pageopacity="0"
     inkscape:pagecheckerboard="1"
     inkscape:deskcolor="#d1d1d1"
     inkscape:document-units="px"
     inkscape:zoom="2.6125"
     inkscape:cx="-8.4210527"
     inkscape:cy="87.846891"
     inkscape:window-width="1920"
     inkscape:window-height="1001"
     inkscape:window-x="0"
     inkscape:window-y="0"
     inkscape:window-maximized="1"
     inkscape:current-layer="layer1" /><defs
     id="defs1" /><g
     inkscape:label="Warstwa 1"
     inkscape:groupmode="layer"
     id="layer1"><g
       id="g1"
       transform="matrix(3.0978939,0,0,3.0978939,-160.23418,-123.16488)"
       style="stroke-width:0.3228"><path
         style="color:#000000;fill:#ffffff;stroke-linecap:square;stroke-linejoin:round;-inkscape-stroke:none;paint-order:stroke markers fill"
         d="m 72.382812,39.757812 c -11.394453,0 -20.660156,9.26375 -20.660156,20.658204 0,11.394453 9.265703,20.660156 20.660156,20.660156 11.394454,0 20.658204,-9.265703 20.658204,-20.660156 0,-11.394454 -9.26375,-20.658204 -20.658204,-20.658204 z m 0,2.582032 c 9.998828,0 18.076172,8.077344 18.076172,18.076172 0,9.998827 -8.077344,18.078125 -18.076172,18.078125 -9.998827,0 -18.076171,-8.079298 -18.076171,-18.078125 0,-9.998828 8.077344,-18.076172 18.076171,-18.076172 z"
         id="circle4" /><path
         style="fill:#ffffff;stroke-width:0;stroke-miterlimit:2;paint-order:markers stroke fill"
         d="m 80.38278,68.688816 c 0,0.554 -2.71,1 -6.075,1 h -3.85 c -3.366,0 -6.075,-0.446 -6.075,-1 0,-0.554 2.71,-1 6.075,-1 h 3.85 c 3.366,0 6.075,0.446 6.075,1 z"
         id="path7" /><path
         style="fill:#ffffff;stroke-width:0;stroke-miterlimit:2;paint-order:markers stroke fill"
         d="m 71.34778,64.825816 c -0.535,0.143 -0.616,1.567 -0.18,3.192 l 0.498,1.86 c 0.436,1.625 1.217,2.818 1.752,2.675 0.535,-0.143 0.616,-1.567 0.18,-3.193 l -0.498,-1.86 c -0.436,-1.625 -1.217,-2.818 -1.752,-2.674 z m 4.999,0 c -0.535,0.143 -0.615,1.567 -0.18,3.192 l 0.499,1.86 c 0.435,1.625 1.217,2.818 1.752,2.675 0.535,-0.143 0.615,-1.567 0.18,-3.193 l -0.499,-1.86 c -0.435,-1.625 -1.216,-2.818 -1.752,-2.674 z m -10,0 c -0.535,0.143 -0.615,1.567 -0.18,3.192 l 0.499,1.86 c 0.435,1.625 1.217,2.818 1.752,2.675 0.535,-0.143 0.615,-1.567 0.18,-3.193 l -0.499,-1.86 c -0.435,-1.625 -1.216,-2.818 -1.752,-2.674 z"
         id="path8" /><path
         style="fill:#ffffff;stroke-width:0;stroke-miterlimit:2;paint-order:markers stroke fill"
         d="m 68.48078,51.090816 c 0.39,0.392 -0.252,1.665 -1.441,2.855 l -1.362,1.361 c -1.19,1.19 -2.463,1.832 -2.855,1.44 -0.391,-0.391 0.251,-1.664 1.441,-2.854 l 1.361,-1.361 c 1.19,-1.19 2.463,-1.833 2.855,-1.441 z"
         id="path9" /><path
         style="fill:#ffffff;stroke-width:0;stroke-miterlimit:2;paint-order:markers stroke fill"
         d="m 62.82278,51.090816 c -0.391,0.392 0.251,1.665 1.441,2.855 l 1.361,1.361 c 1.19,1.19 2.463,1.832 2.855,1.44 0.392,-0.391 -0.25,-1.664 -1.44,-2.854 l -1.362,-1.361 c -1.19,-1.19 -2.463,-1.833 -2.855,-1.441 z"
         id="path10" /><path
         style="fill:#ffffff;stroke-width:0;stroke-miterlimit:2;paint-order:markers stroke fill"
         d="m 81.94278,51.090816 c 0.39,0.392 -0.252,1.665 -1.441,2.855 l -1.362,1.361 c -1.19,1.19 -2.463,1.832 -2.855,1.44 -0.391,-0.391 0.251,-1.664 1.441,-2.854 l 1.361,-1.361 c 1.19,-1.19 2.463,-1.833 2.855,-1.441 z"
         id="path11" /><path
         style="fill:#ffffff;stroke-width:0;stroke-miterlimit:2;paint-order:markers stroke fill"
         d="m 76.28478,51.090816 c -0.391,0.392 0.251,1.665 1.441,2.855 l 1.361,1.361 c 1.19,1.19 2.463,1.832 2.855,1.44 0.392,-0.391 -0.25,-1.664 -1.44,-2.854 l -1.362,-1.361 c -1.19,-1.19 -2.463,-1.833 -2.855,-1.441 z"
         id="path12" /></g></g></svg>
