<svg width="256" height="256" viewBox="0 0 256 256" xml:space="preserve" xmlns="http://www.w3.org/2000/svg"><circle style="fill:none;stroke:#fff;stroke-width:11.3761;stroke-linecap:square;stroke-linejoin:round;stroke-dasharray:none;stroke-opacity:1;paint-order:stroke markers fill" cx="128" cy="33.23" r="27.542"/><rect style="fill:#fff;fill-opacity:1;stroke:none;stroke-width:10.9596;stroke-linecap:round;stroke-linejoin:round;stroke-dasharray:none;stroke-opacity:1;paint-order:markers fill stroke" width="17.064" height="125.137" x="119.468" y="61.147" ry="4.751"/><path style="fill:#fff;stroke-width:17.064;stroke-linecap:round;stroke-linejoin:round;paint-order:markers fill stroke" d="M134.047 108.838c3.342-3.342 3.309-8.758-.075-12.142L81.836 44.56c-3.384-3.384-8.8-3.417-12.142-.075-3.342 3.342-3.308 8.757.076 12.141l52.136 52.137c3.384 3.384 8.799 3.417 12.141.075zm-1.762 67.208c-4.093-2.364-9.315-.93-11.708 3.215L83.71 243.114c-2.393 4.145-1.024 9.384 3.07 11.748 4.093 2.363 9.315.93 11.708-3.216l36.866-63.853c2.393-4.145 1.024-9.384-3.07-11.747z"/><path style="fill:#fff;stroke-width:17.064;stroke-linecap:round;stroke-linejoin:round;paint-order:markers fill stroke" d="M121.953 108.838c-3.342-3.342-3.309-8.758.075-12.142l52.136-52.136c3.384-3.384 8.8-3.417 12.142-.075 3.342 3.342 3.308 8.757-.076 12.141l-52.136 52.136c-3.384 3.385-8.799 3.418-12.141.076zm1.762 67.208c4.093-2.364 9.315-.93 11.708 3.215l36.866 63.853c2.393 4.145 1.024 9.384-3.07 11.748-4.093 2.363-9.315.93-11.708-3.216l-36.866-63.853c-2.393-4.145-1.024-9.384 3.07-11.747z"/><path style="fill:#fff;stroke-width:0;stroke-miterlimit:2;paint-order:markers stroke fill" d="M118.42 23.06a5 5 0 0 0-5 5h10a5 5 0 0 0-5-5zm19.16 0a5 5 0 0 0-5 5h10a5 5 0 0 0-5-5zM113.111 41A15 10 0 0 0 128 49.879 15 10 0 0 0 142.889 41h-2.07A13.5 8.5 0 0 1 128 46.879 13.5 8.5 0 0 1 115.182 41Z"/></svg>
