<?xml version="1.0" encoding="UTF-8" standalone="no"?>
<!-- Created with Inkscape (http://www.inkscape.org/) -->

<svg
   width="128"
   height="128"
   viewBox="0 0 128 128"
   version="1.1"
   id="svg1"
   xml:space="preserve"
   inkscape:version="1.3.2 (091e20ef0f, 2023-11-25, custom)"
   sodipodi:docname="favicon.svg"
   xmlns:inkscape="http://www.inkscape.org/namespaces/inkscape"
   xmlns:sodipodi="http://sodipodi.sourceforge.net/DTD/sodipodi-0.dtd"
   xmlns="http://www.w3.org/2000/svg"
   xmlns:svg="http://www.w3.org/2000/svg"><sodipodi:namedview
     id="namedview1"
     pagecolor="#505050"
     bordercolor="#ffffff"
     borderopacity="1"
     inkscape:showpageshadow="0"
     inkscape:pageopacity="0"
     inkscape:pagecheckerboard="1"
     inkscape:deskcolor="#d1d1d1"
     inkscape:document-units="px"
     inkscape:zoom="3.6946329"
     inkscape:cx="72.26699"
     inkscape:cy="74.838288"
     inkscape:window-width="1920"
     inkscape:window-height="1001"
     inkscape:window-x="0"
     inkscape:window-y="0"
     inkscape:window-maximized="1"
     inkscape:current-layer="layer1" /><defs
     id="defs1" /><g
     inkscape:label="Warstwa 1"
     inkscape:groupmode="layer"
     id="layer1"><g
       id="rect1"
       style="opacity:1"><path
         style="color:#000000;fill:#201f29;stroke-linecap:round;stroke-linejoin:bevel;-inkscape-stroke:none;paint-order:fill markers stroke"
         d="M 16.550124,16 H 111.44988 C 111.75464,16 112,16.245355 112,16.550124 V 111.44988 C 112,111.75464 111.75464,112 111.44988,112 H 16.550124 C 16.245355,112 16,111.75464 16,111.44988 V 16.550124 C 16,16.245355 16.245355,16 16.550124,16 Z"
         id="path2" /><path
         style="color:#000000;fill:#201f29;stroke-linecap:round;stroke-linejoin:bevel;-inkscape-stroke:none;paint-order:fill markers stroke"
         d="M 16.550781,0 C 7.6587773,0 0,7.6587773 0,16.550781 V 111.44922 C 0,120.34122 7.6587773,128 16.550781,128 H 111.44922 C 120.34122,128 128,120.34122 128,111.44922 V 16.550781 C 128,7.6587773 120.34122,0 111.44922,0 Z M 32,32 H 96 V 96 H 32 Z"
         id="path3" /></g><g
       id="g1"
       transform="matrix(2.3750518,0,0,2.3750518,-107.91286,-79.49306)"
       style="stroke-width:0.421044"><circle
         style="fill:none;stroke:#ffffff;stroke-width:3.36834;stroke-linecap:square;stroke-linejoin:round;stroke-dasharray:none;stroke-opacity:1;paint-order:stroke markers fill"
         cx="72.382782"
         cy="60.416813"
         r="19.368"
         id="circle4" /><path
         style="fill:#ffffff;stroke-width:0;stroke-miterlimit:2;paint-order:markers stroke fill"
         d="m 80.38278,68.688816 c 0,0.554 -2.71,1 -6.075,1 h -3.85 c -3.366,0 -6.075,-0.446 -6.075,-1 0,-0.554 2.71,-1 6.075,-1 h 3.85 c 3.366,0 6.075,0.446 6.075,1 z"
         id="path7" /><path
         style="fill:#ffffff;stroke-width:0;stroke-miterlimit:2;paint-order:markers stroke fill"
         d="m 71.34778,64.825816 c -0.535,0.143 -0.616,1.567 -0.18,3.192 l 0.498,1.86 c 0.436,1.625 1.217,2.818 1.752,2.675 0.535,-0.143 0.616,-1.567 0.18,-3.193 l -0.498,-1.86 c -0.436,-1.625 -1.217,-2.818 -1.752,-2.674 z m 4.999,0 c -0.535,0.143 -0.615,1.567 -0.18,3.192 l 0.499,1.86 c 0.435,1.625 1.217,2.818 1.752,2.675 0.535,-0.143 0.615,-1.567 0.18,-3.193 l -0.499,-1.86 c -0.435,-1.625 -1.216,-2.818 -1.752,-2.674 z m -10,0 c -0.535,0.143 -0.615,1.567 -0.18,3.192 l 0.499,1.86 c 0.435,1.625 1.217,2.818 1.752,2.675 0.535,-0.143 0.615,-1.567 0.18,-3.193 l -0.499,-1.86 c -0.435,-1.625 -1.216,-2.818 -1.752,-2.674 z"
         id="path8" /><path
         style="fill:#ffffff;stroke-width:0;stroke-miterlimit:2;paint-order:markers stroke fill"
         d="m 68.48078,51.090816 c 0.39,0.392 -0.252,1.665 -1.441,2.855 l -1.362,1.361 c -1.19,1.19 -2.463,1.832 -2.855,1.44 -0.391,-0.391 0.251,-1.664 1.441,-2.854 l 1.361,-1.361 c 1.19,-1.19 2.463,-1.833 2.855,-1.441 z"
         id="path9" /><path
         style="fill:#ffffff;stroke-width:0;stroke-miterlimit:2;paint-order:markers stroke fill"
         d="m 62.82278,51.090816 c -0.391,0.392 0.251,1.665 1.441,2.855 l 1.361,1.361 c 1.19,1.19 2.463,1.832 2.855,1.44 0.392,-0.391 -0.25,-1.664 -1.44,-2.854 l -1.362,-1.361 c -1.19,-1.19 -2.463,-1.833 -2.855,-1.441 z"
         id="path10" /><path
         style="fill:#ffffff;stroke-width:0;stroke-miterlimit:2;paint-order:markers stroke fill"
         d="m 81.94278,51.090816 c 0.39,0.392 -0.252,1.665 -1.441,2.855 l -1.362,1.361 c -1.19,1.19 -2.463,1.832 -2.855,1.44 -0.391,-0.391 0.251,-1.664 1.441,-2.854 l 1.361,-1.361 c 1.19,-1.19 2.463,-1.833 2.855,-1.441 z"
         id="path11" /><path
         style="fill:#ffffff;stroke-width:0;stroke-miterlimit:2;paint-order:markers stroke fill"
         d="m 76.28478,51.090816 c -0.391,0.392 0.251,1.665 1.441,2.855 l 1.361,1.361 c 1.19,1.19 2.463,1.832 2.855,1.44 0.392,-0.391 -0.25,-1.664 -1.44,-2.854 l -1.362,-1.361 c -1.19,-1.19 -2.463,-1.833 -2.855,-1.441 z"
         id="path12" /></g></g></svg>
