<svg width="128" height="128" xml:space="preserve" xmlns="http://www.w3.org/2000/svg"><g style="opacity:1"><path style="color:#000;fill:#201f29;stroke-linecap:round;stroke-linejoin:bevel;-inkscape-stroke:none;paint-order:fill markers stroke" d="M16.55 16h94.9c.305 0 .55.245.55.55v94.9c0 .305-.245.55-.55.55h-94.9a.549.549 0 0 1-.55-.55v-94.9c0-.305.245-.55.55-.55Z"/><path style="color:#000;fill:#201f29;stroke-linecap:round;stroke-linejoin:bevel;-inkscape-stroke:none;paint-order:fill markers stroke" d="M16.55 0C7.66 0 0 7.659 0 16.55v94.9C0 120.34 7.659 128 16.55 128h94.9c8.891 0 16.55-7.659 16.55-16.55v-94.9C128 7.66 120.341 0 111.45 0ZM32 32h64v64H32Z"/></g><g transform="translate(-107.913 -79.493) scale(2.37505)" style="stroke-width:.421044"><circle style="fill:none;stroke:#fff;stroke-width:3.36834;stroke-linecap:square;stroke-linejoin:round;stroke-dasharray:none;stroke-opacity:1;paint-order:stroke markers fill" cx="72.383" cy="60.417" r="19.368"/><path style="fill:#fff;stroke-width:0;stroke-miterlimit:2;paint-order:markers stroke fill" d="M80.383 68.689c0 .554-2.71 1-6.075 1h-3.85c-3.366 0-6.075-.446-6.075-1s2.71-1 6.075-1h3.85c3.366 0 6.075.446 6.075 1z"/><path style="fill:#fff;stroke-width:0;stroke-miterlimit:2;paint-order:markers stroke fill" d="M71.348 64.826c-.535.143-.616 1.567-.18 3.192l.498 1.86c.436 1.625 1.217 2.818 1.752 2.675.535-.143.616-1.567.18-3.193L73.1 67.5c-.436-1.625-1.217-2.818-1.752-2.674zm4.999 0c-.535.143-.615 1.567-.18 3.192l.499 1.86c.435 1.625 1.217 2.818 1.752 2.675.535-.143.615-1.567.18-3.193l-.5-1.86c-.434-1.625-1.215-2.818-1.751-2.674zm-10 0c-.535.143-.615 1.567-.18 3.192l.499 1.86c.435 1.625 1.217 2.818 1.752 2.675.535-.143.615-1.567.18-3.193l-.5-1.86c-.434-1.625-1.215-2.818-1.751-2.674zM68.48 51.09c.39.393-.251 1.666-1.44 2.856l-1.362 1.36c-1.19 1.19-2.463 1.833-2.855 1.44-.391-.39.25-1.663 1.44-2.853l1.362-1.361c1.19-1.19 2.463-1.833 2.855-1.441z"/><path style="fill:#fff;stroke-width:0;stroke-miterlimit:2;paint-order:markers stroke fill" d="M62.823 51.09c-.391.393.25 1.666 1.44 2.856l1.362 1.36c1.19 1.19 2.463 1.833 2.855 1.44.392-.39-.25-1.663-1.44-2.853l-1.362-1.361c-1.19-1.19-2.463-1.833-2.855-1.441zM81.943 51.09c.39.393-.252 1.666-1.441 2.856l-1.362 1.36c-1.19 1.19-2.463 1.833-2.855 1.44-.391-.39.25-1.663 1.44-2.853l1.362-1.361c1.19-1.19 2.463-1.833 2.855-1.441z"/><path style="fill:#fff;stroke-width:0;stroke-miterlimit:2;paint-order:markers stroke fill" d="M76.285 51.09c-.391.393.25 1.666 1.44 2.856l1.362 1.36c1.19 1.19 2.463 1.833 2.855 1.44.392-.39-.25-1.663-1.44-2.853l-1.362-1.361c-1.19-1.19-2.463-1.833-2.855-1.441z"/></g></svg>